<?xml version="1.0" encoding="utf-8"?>
<!-- Generator: Adobe Illustrator 24.3.0, SVG Export Plug-In . SVG Version: 6.00 Build 0)  -->
<svg version="1.1" id="레이어_1" xmlns="http://www.w3.org/2000/svg" xmlns:xlink="http://www.w3.org/1999/xlink" x="0px"
	 y="0px" viewBox="0 0 203.3 57" style="enable-background:new 0 0 203.3 57;" xml:space="preserve">
<g>
	<path d="M43.7,25.3c-1.3,0-2.1-1.7-2.1-3.2c0-1.2,2.4-3.4,2.9-3.4c0.1,0-1.4,1.9-1.1,2.3c3.4,0,11.3-4.5,11.3-8.5
		c0-2.2-1.9-3.5-5-3.5C34.2,8.9,7.2,35,8.3,48.9c0.4,4.2,3.5,5.4,7.3,5.4c9.4,0,24.7-8.5,36.6-18.1c0-0.1,0.6,0.2,0.4,0.3
		C43.8,45.1,24.9,57.8,14,57.6C8.6,57.5,4,55.1,3.7,49C2.7,31.5,32.2,7.6,49.1,7.6c4.4,0,7.4,1.9,7.4,5.7
		C56.5,18.3,48.6,25.3,43.7,25.3z"/>
	<path d="M66,32.9c-5.1,5.2-11.8,12.4-14.8,13c-0.1,0-0.4,0-0.4,0c-0.8,0-2.3-1.3-2.3-2.5c0-2.2,2.8-7.2,5.6-11.2
		c1.8-2.5,3.9-4.9,5.1-5.9c0.2-0.2,0.5-0.3,0.7-0.3c1.2,0,3.2,2,3.2,3.2c0,0.2-0.2,0-0.7-0.1c-0.8-0.1-2.9,2.5-4.5,4.7
		c-2.6,3.3-5.1,7.7-5.1,9.2c2.4-1,7.5-5.5,9.9-7.8c2.6-2.5,6.3-6.9,9.2-9.1c0.2-0.2,0.5-0.2,0.7-0.2c1.2,0,3.1,1.9,3.1,3.2
		c0,0.2-0.2-0.1-0.6-0.1c-0.3,0-1,0.4-1.6,1.1c-0.8,0.8-2.2,2.6-3.8,4.8c-2.5,3.3-4.3,6.9-4.3,8.3c3.1-0.9,10.2-7.8,13.3-10.7
		c0.3-0.2,0.5,0.2,0.4,0.3c-4.3,4.8-12.5,13.1-15.5,13.1c-0.2,0-0.5-0.1-0.8-0.3c-0.8-0.4-1.8-1.5-1.8-2.5c0-0.5,0.3-1.4,0.5-2.1
		C62.3,38.7,64.2,35.2,66,32.9z"/>
	<path d="M80,34.7c-0.2,0.9,1,1.7,1.5,2.1c8-4.5,14.4-5.6,15.1-5.6c0.1,0,0.3,0.1,0.3,0.2c0.5,0.2-9.5,2.8-14.9,6
		c0.7,0.5,1.9,2,1.8,3c-0.7,3.2-7.3,5.9-10.6,5.9c-1.1,0-1.7-0.9-1.9-2c0.2-2.1,7.5-6.3,9.3-7c-0.5-0.7-3.5-2.5-3-4.7
		c0.8-3.8,8-7.6,12.4-7.6c1.4,0,2,2.3,1.9,3.8c0,0.7-3.2,3.7-4.6,3.7c0,0-0.1-0.2-0.1-0.2c0.1,0,3.5-3.5,3.6-4.5
		C88.4,27.6,80.6,32.4,80,34.7z M72.5,43.8c2-0.5,8.2-3.8,8.2-5.7C77.7,39.9,74,42.4,72.5,43.8z"/>
	<path d="M108.6,9.8c0.8-0.6,1.4-1,1.8-1c2.8-0.1,4.8,2.8,3.9,2.2c-1.6-0.8-4.6,3.3-6.8,6.1c8.1-0.4,18.6,0,25.8,1.5
		c0.4,0.1,0.6,0.2,0,0.1c-9.9-0.9-19.1-0.8-27.4,0.5c-1.9,2.3-3.5,4.8-5.5,7.8c-4.3,6.6-8.1,13-9.3,16.2c2.1,0.2,10.5-7.9,13.4-10.6
		c0.3-0.2,0.5,0.2,0.3,0.3c-2.4,2.8-11.2,11.9-14.2,13c-0.7,0.2-1.2,0-1.6-0.2c-0.4-0.2-1.5-1.2-1.8-2c0-0.1-0.1-0.2-0.1-0.8
		c0-1.5,2.2-6.4,8.4-15.9c1.3-2.1,2.8-4.3,4.7-6.7c-4.8,1-7.7,3.4-6.4,4.1c-0.8,0-2.5-1-2.7-2.6c-0.2-2.2,5.3-3.7,10.9-4.3
		C105.9,12.4,107.3,10.8,108.6,9.8z"/>
	<path d="M119.5,26.7c-9,0-19.5,16.9-16.7,18.1c2.8,1.1,10-6.9,13.3-12c-0.2-0.5-0.8-2-0.6-2.4c0.2-0.5,1.7-2,2.3-2.1
		c0.5,0,1,0.4,1.1,0.5c1,1.5,2.2,2.7,4.2,2.5c3.4-0.3,5.2-2.2,5.8-2.2c-0.2,0.7-2.3,2.4-4.7,3.1c-1.1,0.4-2.2,0.5-3,0.5
		c-0.8,0-1.3-0.1-1.5-0.2c-1.3,6.7-11.7,13.9-17,13.6c-2.3-0.2-3.8-2-3.8-4c0-8.2,11-16.3,18.9-16.3c1.9,0,2.7,0.5,3,0.8
		c0.2,0.2,0.1,0.2-0.1,0.2C120.2,26.8,119.8,26.7,119.5,26.7z"/>
	<path d="M140.2,43.1c0-2.8,5.5-11.2,8.1-13.6c-9.1,6.3-14.3,15-15.7,15c-0.7,0-2.3-1.6-2.3-2.6c0-1.9,3.9-9.1,7.2-12.2
		c-5.1,3-9.7,7.8-13.4,11.9c-0.9,1-1.4,1.6-1.8,2c-1.4,1.7-1.6,2.7-0.9,3c-1.5,0.3-2.8-1.2-3.2-2.6c-0.1-0.4,0.1-1.7,1.4-4
		c2.2-4,5.2-8.7,7.9-11.9c0.7-0.9,1.4-1.6,1.9-2c0.2-0.2,0.5-0.2,0.7-0.2c1.2,0,3.2,1.9,3.2,3.2c0,0.2-0.2-0.1-0.6-0.1
		c-0.3-0.1-1,0.4-1.7,1.2c-2.2,2.5-6.6,9-7.7,11c3.2-4.2,14-14,16.1-14.5c0.1,0,0.2,0,0.3,0c1,0,2.7,2.5,2.2,3
		c-2.6,2.7-7.1,9.9-7.1,11.7c4.7-6,14.2-15.2,16.3-15.2c1.1,0,2.8,2.7,2.1,3.2c-1.2,1-9.1,11.9-9.1,14.1c3.2-0.8,10.6-7.8,13.8-10.9
		c0.3-0.2,0.6,0.2,0.5,0.3c-4.4,4.8-12.6,13.1-15.6,13.1C141.6,45.9,140.2,44.1,140.2,43.1z"/>
	<path d="M155.2,42.8c-0.1,0.6,0.4,1,1.5,1c3.7,0,12.8-7,17.9-11.2c0.2-0.1,0.5,0.2,0.4,0.3c-3.8,3.5-13.7,13-20.4,13
		c-1.5,0-3.5-1.8-3.5-3.1c0-1.2,0.3-2.2,0.7-3.3c1.2-2.8,3.8-6,6.9-8.7c4.2-3.4,8.6-5,10.8-5c0.8,0,3,1.1,3,2.5
		c0,3.1-9.6,10.3-15.2,10.5C156.3,39.9,155.3,41.5,155.2,42.8z M157.8,37.8c4.4-0.5,12.7-8.6,13-10.5
		C165.2,29.1,159.5,35.2,157.8,37.8z"/>
	<path d="M179.4,26.2c0.3-0.2,0.5-0.2,0.7-0.2c1.2,0,3.1,2,3.1,3.2c0,0.2-0.1,0-0.5-0.1c-0.8-0.1-2.5,1.9-4,3.9
		c-1.4,1.8-3.1,4.2-4.2,6c2.7-3.5,7.7-7.7,12-10.8c2-1.4,3.5-2.3,4.5-2.4c0.5-0.1,2.6,2.1,2.2,2.5c-1.1,1.1-5.2,4.8-6.9,8.7
		c2.4-0.2,5.9-2.5,9-5.2c0,0,0.4-0.1,0.4,0c-0.9,1.2-6.9,6.8-10.4,6.8c-0.9,0-2.4-1.8-2.4-2.4c0-1.4,1.6-4.3,2.9-5.8
		c-4.6,2.7-7,4.7-10.4,8.5c-2.6,2.8-5.6,7.2-4.5,7.7c-1.5,0.3-2.7-1.2-3-2.6c-0.1-0.5,0.1-1.4,0.8-2.6c1.2-2.8,3.5-6.3,5.5-9.2
		C176,29.7,178.2,27.2,179.4,26.2z"/>
</g>
</svg>
