<?xml version="1.0" encoding="utf-8"?>
<!-- Generator: Adobe Illustrator 24.3.0, SVG Export Plug-In . SVG Version: 6.00 Build 0)  -->
<svg version="1.1" id="레이어_1" xmlns="http://www.w3.org/2000/svg" xmlns:xlink="http://www.w3.org/1999/xlink" x="0px"
	 y="0px" viewBox="0 0 142 57" style="enable-background:new 0 0 142 57;" xml:space="preserve">
<g>
	<path d="M59.35,28.98c-6.45,9.8-11.65,19.15-11.5,21.95c0,0.4,0.15,0.6,0.5,0.55c1.1-0.1,1.75-0.75,2.65-1.25
		c-0.9,1.05-2.55,2.55-3.55,2.6c-0.75,0.05-1.6-0.85-1.7-1.95c-0.25-4.45,3.9-13.75,8.9-22c-3.5,0.05-6.5,0.25-13.7,1.05
		c-7.5,9.55-14.65,20.95-14.6,24.5c0,0.65,0.3,1.1,1,1.2c-0.25,0.1-0.55,0.15-0.85,0.15c-1.15,0.05-2.15-1.15-2.15-2.95
		c0-4,3.95-12.4,10.9-22.25c-8.8,1.45-16.15,4.7-16.1,5.8c0,0.55-1.5-0.6-1.5-2.35c-0.05-4.25,16.35-5.8,19.7-6.25
		c4.95-6.75,12.85-17.6,12.8-21.1c-0.05-1.9-1.85-2.55-3.8-2.5c-14.95,0.25-35.6,22-35.55,24.75c0,0.65,0.35,0.8,0.85,0.8
		c0.75,0,1.95-0.3,2.4-0.7c0,0.45-1.8,2-3.6,2c-1.8,0.05-2.95-0.95-2.95-2.6c-0.1-8.4,24.25-25.25,38.45-25.4
		c3.85-0.05,7.7,0.9,7.75,4.95c0,5.25-6.6,14-10.9,19.6c2.1-0.15,4.15-0.2,6.3-0.2c1.95,0,4.05,0.05,6.3,0.2
		c4.6-7.3,9.9-14.75,14.3-19.55c1.7-1.8,3.3-3.2,4.55-4.05c0.9-0.55,1.65-0.8,2-0.8c2.9,0,4.65,3.3,3.75,2.65
		c-0.95-0.6-2.55,0.5-4.15,2c-4.5,4.3-10.45,12.25-15.85,20.2c5.45,0.6,9.15,1.4,9.15,1.7C68.05,29.73,64.4,29.18,59.35,28.98z"/>
	<path d="M80.85,25.48c-9.05,0-19.5,16.85-16.7,18.05c2.8,1.15,9.95-6.85,13.3-11.95c-0.25-0.45-0.75-1.95-0.55-2.45
		c0.15-0.5,1.65-2,2.3-2.05c0.5-0.05,1.05,0.35,1.15,0.5c0.95,1.55,2.15,2.7,4.15,2.55c3.35-0.3,5.2-2.25,5.75-2.2
		c-0.25,0.7-2.25,2.35-4.7,3.15c-1.1,0.35-2.15,0.45-2.95,0.45c-0.75,0-1.25-0.1-1.5-0.2c-1.35,6.65-11.7,13.85-17,13.55
		c-2.3-0.15-3.8-2.05-3.8-3.95c0-8.15,10.95-16.3,18.85-16.3c1.9,0,2.7,0.55,3.05,0.85c0.25,0.15,0.1,0.15-0.1,0.15
		C81.6,25.58,81.2,25.48,80.85,25.48z"/>
	<path d="M87.05,33.53c-0.2,0.85,1,1.65,1.5,2.1c8-4.5,14.4-5.6,15.05-5.6c0.1,0,0.3,0.1,0.3,0.25c0.45,0.15-9.45,2.75-14.9,6
		c0.65,0.5,1.9,1.95,1.75,3c-0.7,3.25-7.3,5.9-10.55,5.9c-1.1,0-1.65-0.9-1.9-2c0.15-2.15,7.5-6.35,9.25-7.05
		c-0.55-0.7-3.5-2.5-3.05-4.7c0.8-3.8,8-7.55,12.4-7.55c1.4,0,2.05,2.3,1.9,3.75c-0.05,0.7-3.2,3.7-4.55,3.7
		c-0.05,0-0.15-0.2-0.1-0.2c0.15,0,3.5-3.5,3.6-4.5C95.45,26.43,87.7,31.18,87.05,33.53z M79.6,42.63c1.95-0.55,8.15-3.75,8.15-5.65
		C84.75,38.68,81.05,41.18,79.6,42.63z"/>
	<path d="M115.65,8.63c0.75-0.6,1.4-1,1.85-1c2.8-0.15,4.8,2.75,3.85,2.2c-1.6-0.75-4.55,3.25-6.75,6.1c8.05-0.4,18.6,0,25.75,1.5
		c0.4,0.1,0.6,0.2,0,0.15c-9.9-0.85-19.05-0.8-27.4,0.45c-1.85,2.3-3.5,4.8-5.5,7.75c-4.35,6.6-8.1,12.95-9.3,16.15
		c2.15,0.25,10.45-7.9,13.4-10.6c0.3-0.25,0.5,0.15,0.35,0.3c-2.45,2.8-11.15,11.9-14.15,13c-0.65,0.25-1.15,0.05-1.6-0.2
		c-0.4-0.2-1.5-1.25-1.8-2c-0.05-0.1-0.15-0.2-0.15-0.75c0-1.5,2.25-6.4,8.4-15.9c1.35-2.05,2.8-4.25,4.65-6.7
		c-4.75,0.95-7.7,3.35-6.4,4.1c-0.8,0-2.5-0.95-2.65-2.55c-0.2-2.25,5.3-3.65,10.9-4.3C113,11.23,114.4,9.63,115.65,8.63z"/>
</g>
</svg>
