<?xml version="1.0" encoding="utf-8"?>
<!-- Generator: Adobe Illustrator 24.3.0, SVG Export Plug-In . SVG Version: 6.00 Build 0)  -->
<svg version="1.1" id="레이어_1" xmlns="http://www.w3.org/2000/svg" xmlns:xlink="http://www.w3.org/1999/xlink" x="0px"
	 y="0px" viewBox="0 0 213 113" style="enable-background:new 0 0 213 113;" xml:space="preserve">
<g>
	<path d="M57.46,76.26c-4.32,0-8.64,0.24-12.96,0.72C18.42,80.1,4.42,90.74,8.1,93.38c-1.68,0-5.68-2.8-6.08-6.32
		c-0.4-4.24,8.88-8.4,19.36-11.12c6.88-4.8,15.36-14.56,22.16-22.48c-3.2,0.4-6.32,0.64-9.44,0.64c-13.76,0-24.96-5.6-25.84-12.88
		c-0.16-1.04,0.8-3.04,1.92-4.4c2.32-2.72,6.08-2.88,6.64-2.56c-1.44,0.48-3.12,1.84-3.2,3.28C13.38,42.98,22.9,50.5,37.7,50.5
		c1.44,0,2.96-0.08,4.56-0.24c1.44-0.16,2.8-0.32,4.24-0.56C62.18,30.02,79.06,4.34,93.38,4.02c4.56-0.08,8.16,2.72,7.52,7.84
		c-1.44,13.76-22.96,32.56-47.84,39.52c-7.6,9.04-16.56,18.4-23.04,22.72c4-0.72,8-1.2,11.44-1.36c1.84-0.08,3.68-0.16,5.68-0.16
		c17.36,0,39.76,3.76,47.52,10C85.7,78.9,71.94,76.26,57.46,76.26z M56.58,47.14c25.76-8.64,40.72-31.2,40-38
		c-0.24-2.08-1.44-3.52-3.52-2.88C86.5,8.26,71.94,28.66,56.58,47.14z"/>
	<path d="M108.1,40.5c-14.48,0-31.2,26.96-26.72,28.88c4.48,1.84,15.92-10.96,21.28-19.12c-0.4-0.72-1.2-3.12-0.88-3.92
		c0.24-0.8,2.64-3.2,3.68-3.28c0.8-0.08,1.68,0.56,1.84,0.8c1.52,2.48,3.44,4.32,6.64,4.08c5.36-0.48,8.32-3.6,9.2-3.52
		c-0.4,1.12-3.6,3.76-7.52,5.04c-1.76,0.56-3.44,0.72-4.72,0.72c-1.2,0-2-0.16-2.4-0.32c-2.16,10.64-18.72,22.16-27.2,21.68
		c-3.68-0.24-6.08-3.28-6.08-6.32c0-13.04,17.52-26.08,30.16-26.08c3.04,0,4.32,0.88,4.88,1.36c0.4,0.24,0.16,0.24-0.16,0.24
		C109.3,40.66,108.66,40.5,108.1,40.5z"/>
	<path d="M135.3,64.02c1.76-0.64,3.52-1.28,5.28-1.84c1.28-0.4,2.56-0.16,1.44,0.24c-2.56,1.04-5.12,2.16-7.6,3.2
		c-10.24,17.84-23.44,37.92-38.8,42c-0.88,0.24-1.76,0.32-2.64,0.32c-2.96,0-5.44-1.36-5.44-4.72c0-0.88,0.16-1.92,0.56-3.12
		c3.2-10.16,18.96-23.12,37.36-31.92c1.76-3.04,8.48-15.12,8.48-15.12c0.08-0.08-1.92,1.36-3.44,2.72c-1.2,1.12-5.6,5.04-10.08,8.56
		c-4.56,3.52-9.28,6.96-10.96,6.96c-0.16,0-0.56-0.08-0.8-0.24c-1.44-0.88-3.44-3.76-3.44-5.36c0-8.72,18.4-26.56,33.04-26.56
		c3.12,0,7.12,1.28,7.12,5.04c0,1.36-0.8,2.72-1.52,3.76c-0.16,0.08-0.24,0-0.16-0.08c0.32-0.72,0.8-1.68,0.8-2.88
		c0-2.4-1.52-3.6-3.92-3.44c-4.64,0.24-10.4,3.6-15.68,8c-7.6,6.48-13.44,16.32-12.64,16.96c0.32,0.32,3.52-1.76,7.04-4.08
		c3.84-2.56,7.6-5.52,10.24-7.76c5.52-4.64,6.72-5.84,8.08-6.48c1.52-0.72,4.88,3.6,4.56,4.56c-0.24-0.24-0.64-0.48-2,2.24
		L135.3,64.02z M124.02,70.66c-14.56,7.68-25.68,16.8-31.28,27.2c-0.88,1.6-1.28,2.72-1.28,3.52c0,1.12,0.72,1.52,1.76,1.52
		c1.12,0,2.48-0.48,3.76-1.12C106.34,96.74,115.86,83.86,124.02,70.66z"/>
	<path d="M143.7,71.22c-1.28-0.4-3.28-2.4-3.28-3.84c0-4.64,11.6-22.08,16.72-26.16c0.4-0.4,0.88-0.48,1.2-0.48
		c1.84,0,5.04,3.2,5.04,5.2c0,0.32-0.4-0.08-1.04-0.16c-3.28-0.32-14.24,17.92-15.2,21.2c4.88-1.28,16.56-12.4,21.44-17.12
		c0.56-0.4,0.96,0.24,0.72,0.48c-6.96,7.52-19.68,20.56-24.64,20.96C144.34,71.3,144.1,71.3,143.7,71.22z M170.42,31.06
		c0.72,0.8,1.2,2,0.88,2c-0.16,0-0.8-0.32-1.68,0.08c-1.36,0.56-5.04,3.84-6,5.2c-1.12,1.44-2.8-0.24-2.88-1.68
		c-0.08-2.32,2.96-7.52,5.04-8.16C167.62,28.26,169.38,29.86,170.42,31.06z"/>
	<path d="M185.54,66.98c5.04-1.36,16.48-12.32,21.6-17.12c0.48-0.4,0.88,0.24,0.64,0.48c-6.96,7.6-20,20.8-24.8,20.8
		c-0.8,0-1.68-0.72-2.48-1.68c-0.88-1.04-1.44-2.24-1.44-3.12c0-4.56,9.28-17.92,13.44-21.68c-6.56,2.96-18.32,12.64-24.24,19.04
		c-1.04,1.04-2,2.24-2.88,3.36c-2.16,2.56-2.72,4.72-1.52,5.28c-2.4,0.56-4.32-2-4.96-4.32c-0.16-0.56,0.24-2.72,2.24-6.4
		c1.92-3.76,4.96-8.48,7.6-12.16c2.88-4.08,6.4-8.32,8.48-9.92c0.32-0.32,0.8-0.4,1.04-0.4c2,0,5.04,3.12,5.04,5.12
		c0,0.32-0.32-0.08-0.96-0.16c-1.04-0.08-4,3.28-6.4,6.4c-3.76,4.96-7.92,10.88-9.12,13.12c0.88-1.28,2.4-2.88,4.08-4.48
		c8.96-8.8,23.04-19.6,25.76-19.6c1.92,0,4.48,4.32,3.44,5.2C198.1,46.34,185.7,63.22,185.54,66.98z"/>
</g>
</svg>
