<?xml version="1.0" encoding="utf-8"?>
<!-- Generator: Adobe Illustrator 24.3.0, SVG Export Plug-In . SVG Version: 6.00 Build 0)  -->
<svg version="1.1" id="레이어_1" xmlns="http://www.w3.org/2000/svg" xmlns:xlink="http://www.w3.org/1999/xlink" x="0px"
	 y="0px" viewBox="0 0 310.81 71.49" style="enable-background:new 0 0 310.81 71.49;" xml:space="preserve">
<style type="text/css">
	.st0{opacity:0.99;}
	.st1{fill:#B1B2FF;stroke:#B1B2FF;stroke-miterlimit:10;}
	.st2{fill:#000000;}
	.st3{fill:#FFFFFF; opacity:0}
</style>
<g class="st0">
	<path class="st1" d="M41.39,15.7l-0.67-0.8l-0.21,0.12c-1.16,0.69-3.23,3.06-3.23,5.29c0,1.52,1.83,2.07,3.07,2.07
		c5.84,0,14.56-6.83,14.67-12.96c0.02-1.51-0.41-2.73-1.28-3.61c-1.18-1.2-3.16-1.78-6.06-1.78c-0.26,0-0.53,0.01-0.8,0.01
		c-6.92,0.24-24,6.84-24,15.92c0,4.16,5.06,5.43,10.42,6.77c0.93,0.23,1.87,0.47,2.8,0.72c5.89,1.62,8.63,3.45,8.63,5.75
		c0,7.28-24.15,19.03-35.89,19.03c-2.58,0-3.63-0.42-3.63-1.43c0-3.38,12.22-14.11,25.33-17.75c0.06-0.4,0.16-0.79,0.31-1.17
		l-0.38,0c-6.88,0-29.5,12.01-29.5,19.77c0,5.07,6.63,5.47,8.67,5.47c14.37,0,39.12-10.98,39.12-22.22c0-6.23-6.89-8.12-11.92-9.5
		l-0.4-0.11c-4.65-1.29-9.04-2.5-9.04-4.89C27.42,15.8,41.88,7.54,48,6.88c0.62-0.05,1.27-0.1,1.81-0.1c1.2,0,1.97,0.19,2.28,0.56
		c0.17,0.2,0.22,0.46,0.16,0.85c-0.6,4.22-10.07,9.66-11.89,9.66c-0.01,0-0.01,0-0.02,0c0.06-0.55,0.32-1.31,0.89-1.96L41.39,15.7z"
		/>
	<path class="st1" d="M40.66,15.27c-1.11,0.67-3.09,2.92-3.09,5.04c0,1.31,1.67,1.78,2.78,1.78c5.72,0,14.28-6.68,14.38-12.68
		c0.02-1.43-0.38-2.58-1.2-3.4c-1.13-1.14-3.04-1.7-5.86-1.7c-0.26,0-0.52,0-0.79,0.01c-6.84,0.23-23.73,6.72-23.73,15.63
		c0,3.94,4.96,5.18,10.21,6.5c0.94,0.23,1.88,0.47,2.8,0.73c6.03,1.66,8.84,3.58,8.84,6.03c0,7.38-24.34,19.32-36.17,19.32
		c-2.03,0-3.92-0.21-3.92-1.72c0-3.46,12.4-14.43,25.67-18.06c0.01-0.07,0.03-0.14,0.04-0.21l-0.04-0.36l-0.13,0
		c-6.81,0-29.21,11.84-29.21,19.49c0,4.81,6.42,5.18,8.38,5.18c14.26,0,38.84-10.84,38.84-21.94c0-6.01-6.77-7.87-11.71-9.22
		l-0.4-0.11c-4.75-1.32-9.24-2.56-9.24-5.17c0-4.83,14.47-13.12,20.84-13.82c0.63-0.05,1.28-0.1,1.83-0.1c1.3,0,2.12,0.21,2.5,0.65
		c0.22,0.26,0.29,0.61,0.22,1.07c-0.64,4.46-10.27,9.91-12.17,9.91c-0.11,0-0.29,0-0.32-0.02c0-0.6,0.26-1.59,0.98-2.41L40.66,15.27
		z"/>
	<path class="st1" d="M40.66,15.27c-1.11,0.67-3.09,2.92-3.09,5.04c0,1.31,1.67,1.78,2.78,1.78c5.72,0,14.28-6.68,14.38-12.68
		c0.02-1.43-0.38-2.58-1.2-3.4c-1.13-1.14-3.04-1.7-5.86-1.7c-0.26,0-0.52,0-0.79,0.01c-6.84,0.23-23.73,6.72-23.73,15.63
		c0,3.94,4.96,5.18,10.21,6.5c0.94,0.23,1.88,0.47,2.8,0.73c6.03,1.66,8.84,3.58,8.84,6.03c0,7.38-24.34,19.32-36.17,19.32
		c-2.03,0-3.92-0.21-3.92-1.72c0-3.46,12.4-14.43,25.67-18.06c0.01-0.07,0.03-0.14,0.04-0.21l-0.04-0.36l-0.13,0
		c-6.81,0-29.21,11.84-29.21,19.49c0,4.81,6.42,5.18,8.38,5.18c14.26,0,38.84-10.84,38.84-21.94c0-6.01-6.77-7.87-11.71-9.22
		l-0.4-0.11c-4.75-1.32-9.24-2.56-9.24-5.17c0-4.83,14.47-13.12,20.84-13.82c0.63-0.05,1.28-0.1,1.83-0.1c1.3,0,2.12,0.21,2.5,0.65
		c0.22,0.26,0.29,0.61,0.22,1.07c-0.64,4.46-10.27,9.91-12.17,9.91c-0.11,0-0.29,0-0.32-0.02c0-0.6,0.26-1.59,0.98-2.41L40.66,15.27
		z"/>
	<path class="st1" d="M8.85,52.81c12.05,0,36.45-12.05,36.45-19.6c0-3.1-4.15-4.95-9.05-6.3c-6-1.65-12.8-2.55-12.8-6.95
		c0-8.4,16.15-15.1,23.45-15.35c4.55-0.15,7.6,0.95,7.55,4.8c-0.1,5.95-8.8,12.4-14.1,12.4c-1,0-2.5-0.4-2.5-1.5
		c0-2.05,1.95-4.2,2.95-4.8c-0.75,0.85-1.05,1.9-1.05,2.6c0,0.3,0.3,0.3,0.6,0.3c2.05,0,11.8-5.6,12.45-10.15
		c0.25-1.6-1.1-2.05-3-2.05c-0.55,0-1.2,0.05-1.85,0.1c-6.4,0.7-21.1,8.95-21.1,14.1c0,2.9,4.8,4.15,9.85,5.55
		c5.65,1.55,11.5,3.4,11.5,8.95c0,10.95-24.9,21.65-38.55,21.65c-3.3,0-8.1-0.95-8.1-4.9c0-7.4,22.6-19.35,29.05-19.2
		C17.36,36.06,4.65,47.11,4.65,50.81C4.65,52.76,7.25,52.81,8.85,52.81z"/>
	<path class="st1" d="M49.6,46.88c-0.71,0-1.97-0.32-2.45-2.44c0.16-2.57,6.72-6.28,8.81-7.34c-1.17-1.02-3.02-2.63-2.61-4.65
		c0.84-3.97,8.24-8,12.96-8c0.54,0,1.04,0.24,1.45,0.69c0.82,0.9,1.13,2.58,1.02,3.69c-0.07,0.99-3.48,4.21-5.11,4.21
		c-0.45,0-0.68-0.48-0.68-0.75v-0.55l0.38-0.02c0.48-0.42,2.05-2.13,2.83-3.25c-2.82,0.77-8.68,4.53-9.18,6.35
		c-0.08,0.35,0.65,0.96,1.02,1.26c7.93-4.39,14.35-5.48,14.98-5.48c0.26,0,0.54,0.14,0.7,0.35l0.09,0.03l0.07,0.21l0.01,0.22
		c0,0.5,0,0.5-2.55,1.34c-2.92,0.96-8.28,2.73-11.98,4.77c0.67,0.72,1.51,1.93,1.36,2.97C59.92,44.19,52.94,46.88,49.6,46.88z"/>
	<path class="st1" d="M49.6,46.6c-0.76,0-1.76-0.39-2.18-2.22c0.15-2.32,6.89-6.2,9.04-7.21c-0.11-0.1-0.24-0.21-0.37-0.33
		c-1.06-0.92-2.85-2.47-2.47-4.33c0.81-3.86,8.06-7.78,12.68-7.78c0.46,0,0.89,0.21,1.24,0.59c0.76,0.84,1.06,2.42,0.95,3.47
		c-0.06,0.85-3.37,3.95-4.83,3.95c-0.26,0-0.4-0.33-0.4-0.46V32l0.21-0.01c0.46-0.36,2.75-2.85,3.3-3.93
		c-2.53,0.29-9.45,4.58-10.03,6.68c-0.13,0.53,0.63,1.15,1.12,1.56c0.05,0.04,0.09,0.08,0.14,0.12c7.95-4.44,14.38-5.54,15.02-5.54
		c0.18,0,0.42,0.12,0.52,0.31l0.06,0.02l0.01,0.22c0,0.28,0,0.28-2.36,1.06c-3.04,1-8.62,2.84-12.36,4.98
		c0.73,0.69,1.69,1.98,1.54,3C59.68,43.95,52.78,46.6,49.6,46.6z M56.65,38.73c-2.13,1.25-4.64,2.9-6.29,4.22
		C52.59,41.97,55.79,40.08,56.65,38.73z"/>
	<path class="st1" d="M49.6,46.6c-0.76,0-1.76-0.39-2.18-2.22c0.15-2.32,6.89-6.2,9.04-7.21c-0.11-0.1-0.24-0.21-0.37-0.33
		c-1.06-0.92-2.85-2.47-2.47-4.33c0.81-3.86,8.06-7.78,12.68-7.78c0.46,0,0.89,0.21,1.24,0.59c0.76,0.84,1.06,2.42,0.95,3.47
		c-0.06,0.85-3.37,3.95-4.83,3.95c-0.26,0-0.4-0.33-0.4-0.46V32l0.21-0.01c0.46-0.36,2.75-2.85,3.3-3.93
		c-2.53,0.29-9.45,4.58-10.03,6.68c-0.13,0.53,0.63,1.15,1.12,1.56c0.05,0.04,0.09,0.08,0.14,0.12c7.95-4.44,14.38-5.54,15.02-5.54
		c0.18,0,0.42,0.12,0.52,0.31l0.06,0.02l0.01,0.22c0,0.28,0,0.28-2.36,1.06c-3.04,1-8.62,2.84-12.36,4.98
		c0.73,0.69,1.69,1.98,1.54,3C59.68,43.95,52.78,46.6,49.6,46.6z M56.65,38.73c-2.13,1.25-4.64,2.9-6.29,4.22
		C52.59,41.97,55.79,40.08,56.65,38.73z"/>
	<path class="st1" d="M56.45,34.66c-0.2,0.85,1,1.65,1.5,2.1c8-4.5,14.4-5.6,15.05-5.6c0.1,0,0.3,0.1,0.3,0.25
		c0.45,0.15-9.45,2.75-14.9,6c0.65,0.5,1.9,1.95,1.75,3c-0.7,3.25-7.3,5.9-10.55,5.9c-1.1,0-1.65-0.9-1.9-2
		c0.15-2.15,7.5-6.35,9.25-7.05c-0.55-0.7-3.5-2.5-3.05-4.7c0.8-3.8,8-7.55,12.4-7.55c1.4,0,2.05,2.3,1.9,3.75
		c-0.05,0.7-3.2,3.7-4.55,3.7c-0.05,0-0.15-0.2-0.1-0.2c0.15,0,3.5-3.5,3.6-4.5C64.85,27.56,57.1,32.31,56.45,34.66z M49,43.76
		c1.95-0.55,8.15-3.75,8.15-5.65C54.15,39.81,50.45,42.31,49,43.76z"/>
	<path class="st1" d="M77.75,46.43c-0.39,0-0.74-0.15-1.13-0.38c-0.8-0.46-1.94-1.64-1.94-2.84c0-0.48,0.14-0.99,0.31-1.58
		l0.11-0.42c0.22-0.69,0.56-1.47,0.97-2.29c-2.85,2.43-9,7.5-10.87,7.5c-0.23,0-0.53-0.13-0.69-0.21c-1.05-0.52-2.52-2.61-2.52-3.86
		c0-5.67,11.67-17.17,21.22-17.17c2.47,0,4.97,1.15,4.97,3.72c0,1.08-0.58,2.06-1.07,2.7l-0.04,0.05l-0.1,0.08l-0.12,0.06
		c0,0-0.25,0.05-0.25,0.05c-0.08,0-0.15-0.01-0.22-0.03c0.28,0.5,0.56,1.16,0.41,1.62l-0.43,1.3L86,34.03
		c-1.09,1.06-4.23,4.94-5.49,7.62c-0.08,0.18-0.15,0.35-0.21,0.51c3.17-1.63,8.78-6.9,11.57-9.52l0.64-0.6
		c0.15-0.15,0.35-0.23,0.55-0.23c0.32,0,0.6,0.2,0.73,0.51c0.12,0.3,0.07,0.62-0.15,0.84C89.12,38.11,81.02,46.43,77.75,46.43z
		 M84.64,27.83c-2.52,0.13-5.97,1.9-9.47,4.87c-3.66,3.12-6.61,7.46-7.57,9.31c2.3-1.24,7.99-5.35,10.38-7.38
		c0.19-0.17,0.49-0.45,0.87-0.8c1.43-1.33,3.59-3.34,4.62-3.91c0.18-0.09,0.35-0.13,0.54-0.13c0.74,0,1.42,0.67,1.88,1.28l0.2-0.23
		c0.19-0.38,0.4-0.85,0.4-1.42c0-1.06-0.55-1.59-1.62-1.59C84.79,27.82,84.72,27.82,84.64,27.83z"/>
	<path class="st1" d="M77.75,46.15c-0.33,0-0.64-0.14-0.99-0.34c-0.72-0.41-1.79-1.52-1.79-2.6c0-0.44,0.14-0.94,0.3-1.51l0.11-0.42
		c0.37-1.14,1.02-2.45,1.7-3.6c-3.25,2.85-10.02,8.46-11.87,8.46c-0.21,0-0.57-0.18-0.58-0.18c-0.95-0.48-2.36-2.46-2.36-3.6
		c0-5.58,11.51-16.88,20.93-16.88c2.33,0,4.68,1.06,4.68,3.43c0,1-0.55,1.92-1.01,2.52l-0.04,0.05l-0.12,0.06l-0.15,0.02
		c-0.16,0-0.29-0.08-0.34-0.21l-0.07-0.17l0.15-0.17c0.22-0.42,0.47-0.95,0.47-1.6c0-1.21-0.68-1.88-1.91-1.88
		c-0.08,0-0.16,0-0.24,0.01c-2.58,0.13-6.09,1.93-9.64,4.93c-4.23,3.61-7.56,8.9-7.95,10.11c1.6-0.56,8.42-5.44,11.13-7.74
		c0.19-0.17,0.5-0.46,0.88-0.81c1.42-1.32,3.56-3.31,4.57-3.87c0.13-0.07,0.26-0.1,0.4-0.1c0.71,0,1.39,0.8,1.73,1.28
		c0.37,0.51,0.94,1.5,0.77,2L86.31,34l-0.21-0.43c-0.83,0.6-4.47,5.04-5.83,7.96c-0.2,0.48-0.34,0.86-0.41,1.16
		c3.06-1.24,9.21-7,12.23-9.84l0.63-0.6c0.13-0.13,0.27-0.16,0.36-0.16c0.2,0,0.39,0.13,0.47,0.34c0.08,0.19,0.05,0.4-0.09,0.53
		C89.83,36.92,81.03,46.15,77.75,46.15z"/>
	<path class="st1" d="M77.75,46.15c-0.33,0-0.64-0.14-0.99-0.34c-0.72-0.41-1.79-1.52-1.79-2.6c0-0.44,0.14-0.94,0.3-1.51l0.11-0.42
		c0.37-1.14,1.02-2.45,1.7-3.6c-3.25,2.85-10.02,8.46-11.87,8.46c-0.21,0-0.57-0.18-0.58-0.18c-0.95-0.48-2.36-2.46-2.36-3.6
		c0-5.58,11.51-16.88,20.93-16.88c2.33,0,4.68,1.06,4.68,3.43c0,1-0.55,1.92-1.01,2.52l-0.04,0.05l-0.12,0.06l-0.15,0.02
		c-0.16,0-0.29-0.08-0.34-0.21l-0.07-0.17l0.15-0.17c0.22-0.42,0.47-0.95,0.47-1.6c0-1.21-0.68-1.88-1.91-1.88
		c-0.08,0-0.16,0-0.24,0.01c-2.58,0.13-6.09,1.93-9.64,4.93c-4.23,3.61-7.56,8.9-7.95,10.11c1.6-0.56,8.42-5.44,11.13-7.74
		c0.19-0.17,0.5-0.46,0.88-0.81c1.42-1.32,3.56-3.31,4.57-3.87c0.13-0.07,0.26-0.1,0.4-0.1c0.71,0,1.39,0.8,1.73,1.28
		c0.37,0.51,0.94,1.5,0.77,2L86.31,34l-0.21-0.43c-0.83,0.6-4.47,5.04-5.83,7.96c-0.2,0.48-0.34,0.86-0.41,1.16
		c3.06-1.24,9.21-7,12.23-9.84l0.63-0.6c0.13-0.13,0.27-0.16,0.36-0.16c0.2,0,0.39,0.13,0.47,0.34c0.08,0.19,0.05,0.4-0.09,0.53
		C89.83,36.92,81.03,46.15,77.75,46.15z"/>
	<path class="st1" d="M78.55,35.96c-1.5,1.5-11.25,9.9-13.35,9.9c-0.1,0-0.35-0.1-0.45-0.15c-0.9-0.45-2.2-2.35-2.2-3.35
		c0-5.45,11.45-16.6,20.65-16.6c1.9,0,4.4,0.8,4.4,3.15c0,0.85-0.45,1.7-0.95,2.35c-0.1,0.05-0.2,0-0.15-0.05
		c0.25-0.45,0.55-1.05,0.55-1.8c0-1.5-0.95-2.25-2.45-2.15c-2.9,0.15-6.55,2.25-9.8,5c-4.75,4.05-8.5,10.35-8.05,10.6
		c0.1,0.05,0.2,0.05,0.35,0c1.65-0.55,8.65-5.6,11.25-7.8c0.9-0.8,4.15-3.95,5.4-4.65c1-0.5,2.7,2.25,2.5,2.85
		C86,32.76,81.5,38.21,80,41.41c-0.3,0.7-0.5,1.3-0.5,1.7c3.15-0.9,10.3-7.75,13.4-10.65c0.25-0.25,0.5,0.15,0.35,0.3
		c-4.35,4.75-12.5,13.1-15.5,13.1c-0.25,0-0.5-0.1-0.85-0.3c-0.7-0.4-1.65-1.45-1.65-2.35c0-0.5,0.2-1.1,0.4-1.85
		C76.25,39.51,77.6,37.21,78.55,35.96z"/>
	<path class="st1" d="M77.26,70.63c-1.31,0-2.71-1.92-2.77-3.03c-0.15-2.8,5.42-15.65,13.67-29.66c-0.36-0.52-0.42-1.19-0.16-1.93
		c0.38-1.07,1.45-2.24,2.63-2.43c4.45-7.11,9.51-14.43,13.54-19.61c1.5-1.95,2.98-3.59,4.18-4.63c1.08-0.81,1.72-1.14,2.22-1.14
		c0.05,0,0.13-0.01,0.21-0.01c2.32,0,4.49,1.92,4.49,2.78v0.52l-0.58,0.1c-0.01,0-0.02,0-0.02,0c-0.18,0-0.33-0.05-0.49-0.14l0,0
		c0,0-0.06-0.01-0.13-0.01c-1.28,0-3.91,3.44-5.49,5.5c-0.3,0.39-0.53,0.69-0.75,0.98c-3.77,4.71-7.41,10.26-12.06,17.5
		c3.73-1.47,9.5-4.46,11.71-6.29c0.08-0.18,0.32-0.32,0.61-0.32c0.49,0,0.82,0.42,0.82,0.82v0.34l-0.17,0.17
		c-1.52,1.47-6.29,4.54-10.63,6.84c-0.73,0.39-2.03,1.05-2.96,1.38c0.28,1.05,0.56,2.74,0.56,4.62c0,0.92-0.09,1.93-0.26,2.94
		c-2.78,14.43-15.65,24.62-17.93,24.72L77.26,70.63L77.26,70.63z M93.25,39.22c-5.35,8.71-11.59,21.1-13.92,26.56
		c4.94-3.85,12.52-11.31,14.22-21.76c0.09-0.47,0.14-1.04,0.14-1.66C93.69,41.19,93.52,40.03,93.25,39.22z"/>
	<path class="st1" d="M77.26,70.35c-1.15,0-2.43-1.78-2.49-2.77c-0.15-2.78,5.45-15.62,13.73-29.67c-0.4-0.45-0.49-1.1-0.23-1.81
		c0.37-1.04,1.46-2.16,2.53-2.26c4.47-7.14,9.54-14.5,13.59-19.7c1.49-1.93,2.96-3.56,4.14-4.59c1-0.75,1.61-1.07,2.04-1.07
		c0.06,0,0.14-0.01,0.21-0.01c2.31,0,4.21,1.89,4.21,2.5v0.28l-0.34,0.06c-0.09,0-0.2-0.03-0.32-0.11
		c-0.07-0.03-0.17-0.05-0.28-0.05c-1.42,0-4,3.38-5.71,5.61c-0.26,0.34-0.51,0.67-0.75,0.97c-3.85,4.81-7.49,10.37-12.54,18.24
		c3.68-1.34,10.19-4.65,12.59-6.65c0.06-0.1,0.18-0.25,0.42-0.25c0.31,0,0.53,0.28,0.53,0.53v0.22l-0.09,0.08
		c-1.51,1.46-6.25,4.51-10.57,6.8c-0.68,0.36-2.24,1.16-3.17,1.45c0.32,1.08,0.62,2.88,0.62,4.8c0,0.9-0.09,1.9-0.25,2.9
		c-2.76,14.29-15.42,24.38-17.67,24.49L77.26,70.35z M93.3,38.6c-5.72,9.23-12.53,22.84-14.59,27.92c-0.02,0.05-0.05,0.1-0.06,0.14
		c0.02-0.01,0.03-0.02,0.04-0.03c4.87-3.63,13.32-11.4,15.13-22.56c0.1-0.48,0.15-1.07,0.15-1.71C93.97,41.08,93.76,39.52,93.3,38.6
		z"/>
	<path class="st1" d="M77.26,70.35c-1.15,0-2.43-1.78-2.49-2.77c-0.15-2.78,5.45-15.62,13.73-29.67c-0.4-0.45-0.49-1.1-0.23-1.81
		c0.37-1.04,1.46-2.16,2.53-2.26c4.47-7.14,9.54-14.5,13.59-19.7c1.49-1.93,2.96-3.56,4.14-4.59c1-0.75,1.61-1.07,2.04-1.07
		c0.06,0,0.14-0.01,0.21-0.01c2.31,0,4.21,1.89,4.21,2.5v0.28l-0.34,0.06c-0.09,0-0.2-0.03-0.32-0.11
		c-0.07-0.03-0.17-0.05-0.28-0.05c-1.42,0-4,3.38-5.71,5.61c-0.26,0.34-0.51,0.67-0.75,0.97c-3.85,4.81-7.49,10.37-12.54,18.24
		c3.68-1.34,10.19-4.65,12.59-6.65c0.06-0.1,0.18-0.25,0.42-0.25c0.31,0,0.53,0.28,0.53,0.53v0.22l-0.09,0.08
		c-1.51,1.46-6.25,4.51-10.57,6.8c-0.68,0.36-2.24,1.16-3.17,1.45c0.32,1.08,0.62,2.88,0.62,4.8c0,0.9-0.09,1.9-0.25,2.9
		c-2.76,14.29-15.42,24.38-17.67,24.49L77.26,70.35z M93.3,38.6c-5.72,9.23-12.53,22.84-14.59,27.92c-0.02,0.05-0.05,0.1-0.06,0.14
		c0.02-0.01,0.03-0.02,0.04-0.03c4.87-3.63,13.32-11.4,15.13-22.56c0.1-0.48,0.15-1.07,0.15-1.71C93.97,41.08,93.76,39.52,93.3,38.6
		z"/>
	<path class="st1" d="M108.7,9.76c0.8-0.6,1.45-1,1.85-1c2.85-0.15,4.85,2.75,3.9,2.2c-1.7-0.8-5,3.9-7.1,6.6
		c-3.8,4.75-7.35,10.15-12.9,18.8l0.05,0.1c3.65-1.2,10.85-4.85,13.35-6.95c0.05-0.1,0.1-0.15,0.2-0.15c0.15,0,0.25,0.15,0.25,0.25
		c0,0.05,0,0.1,0,0.1c-1.55,1.5-6.35,4.55-10.5,6.75c-0.95,0.5-2.65,1.35-3.4,1.5c0.35,1,0.7,2.95,0.7,5c0,0.95-0.1,1.95-0.25,2.85
		C92.1,60.06,79.6,69.96,77.45,70.06H77.3c-1,0.05-2.2-1.65-2.25-2.5c-0.15-2.8,5.65-15.9,13.8-29.7c-1.35-1.1,0.6-3.75,2.1-3.75
		c4.75-7.6,9.8-14.85,13.65-19.8C106.1,12.36,107.55,10.76,108.7,9.76z M78.85,66.86c5.9-4.4,13.55-12.25,15.25-22.75
		c0.1-0.5,0.15-1.1,0.15-1.75c0-1.6-0.3-3.45-0.95-4.3c-5.75,9.2-12.75,23.15-14.85,28.35c-0.2,0.4-0.2,0.65-0.1,0.65
		C78.45,67.11,78.55,67.06,78.85,66.86z"/>
	<path class="st1" d="M112.55,46.43c-0.39,0-0.74-0.15-1.13-0.38c-0.78-0.45-1.94-1.66-1.94-2.84c0-0.48,0.14-0.99,0.31-1.58
		l0.11-0.42c0.22-0.69,0.56-1.47,0.97-2.29c-2.85,2.43-9,7.5-10.87,7.5c-0.23,0-0.53-0.13-0.69-0.21c-1.05-0.52-2.52-2.61-2.52-3.86
		c0-5.67,11.67-17.17,21.22-17.17c2.47,0,4.97,1.15,4.97,3.72c0,1.08-0.58,2.06-1.07,2.7l-0.04,0.05l-0.1,0.08l-0.12,0.06
		c0,0-0.25,0.05-0.25,0.05c-0.08,0-0.15-0.01-0.22-0.03c0.28,0.5,0.56,1.16,0.41,1.62l-0.43,1.3l-0.35-0.71
		c-1.09,1.06-4.23,4.94-5.49,7.62c-0.08,0.18-0.15,0.35-0.21,0.51c3.17-1.63,8.78-6.9,11.57-9.52l0.64-0.6
		c0.15-0.15,0.35-0.23,0.55-0.23c0.32,0,0.6,0.2,0.73,0.51c0.12,0.3,0.07,0.62-0.15,0.84C123.92,38.11,115.82,46.43,112.55,46.43z
		 M119.44,27.83c-2.52,0.13-5.97,1.9-9.47,4.87c-3.66,3.12-6.61,7.46-7.57,9.31c2.3-1.24,7.99-5.35,10.38-7.38
		c0.19-0.17,0.49-0.45,0.87-0.8c1.43-1.33,3.59-3.34,4.62-3.91c0.18-0.09,0.35-0.13,0.54-0.13c0.74,0,1.42,0.67,1.88,1.28l0.2-0.23
		c0.19-0.38,0.4-0.85,0.4-1.42c0-1.06-0.55-1.59-1.62-1.59C119.59,27.82,119.52,27.82,119.44,27.83z"/>
	<path class="st1" d="M112.55,46.15c-0.33,0-0.64-0.14-0.99-0.34c-0.75-0.43-1.79-1.57-1.79-2.6c0-0.44,0.14-0.94,0.3-1.51
		l0.11-0.42c0.37-1.14,1.02-2.45,1.7-3.6c-3.25,2.85-10.02,8.46-11.87,8.46c-0.21,0-0.57-0.18-0.58-0.18
		c-0.95-0.48-2.36-2.46-2.36-3.6c0-5.58,11.51-16.88,20.93-16.88c2.33,0,4.68,1.06,4.68,3.43c0,1-0.55,1.92-1.01,2.52l-0.04,0.05
		l-0.12,0.06l-0.15,0.02c-0.16,0-0.29-0.08-0.34-0.21l-0.07-0.17l0.15-0.17c0.22-0.42,0.47-0.95,0.47-1.6
		c0-1.21-0.68-1.88-1.91-1.88c-0.08,0-0.16,0-0.24,0.01c-2.58,0.13-6.09,1.93-9.64,4.93c-4.23,3.61-7.56,8.9-7.95,10.11
		c1.6-0.56,8.42-5.44,11.13-7.74c0.19-0.17,0.5-0.46,0.88-0.81c1.42-1.32,3.56-3.31,4.57-3.87c0.13-0.07,0.26-0.1,0.4-0.1
		c0.71,0,1.39,0.8,1.73,1.28c0.37,0.51,0.94,1.5,0.77,2L121.11,34l-0.21-0.43c-0.83,0.6-4.47,5.04-5.83,7.96
		c-0.2,0.48-0.34,0.86-0.41,1.16c3.06-1.24,9.21-7,12.23-9.84l0.63-0.6c0.13-0.13,0.27-0.16,0.36-0.16c0.2,0,0.39,0.13,0.47,0.34
		c0.08,0.19,0.05,0.4-0.09,0.53C124.63,36.92,115.83,46.15,112.55,46.15z"/>
	<path class="st1" d="M112.55,46.15c-0.33,0-0.64-0.14-0.99-0.34c-0.75-0.43-1.79-1.57-1.79-2.6c0-0.44,0.14-0.94,0.3-1.51
		l0.11-0.42c0.37-1.14,1.02-2.45,1.7-3.6c-3.25,2.85-10.02,8.46-11.87,8.46c-0.21,0-0.57-0.18-0.58-0.18
		c-0.95-0.48-2.36-2.46-2.36-3.6c0-5.58,11.51-16.88,20.93-16.88c2.33,0,4.68,1.06,4.68,3.43c0,1-0.55,1.92-1.01,2.52l-0.04,0.05
		l-0.12,0.06l-0.15,0.02c-0.16,0-0.29-0.08-0.34-0.21l-0.07-0.17l0.15-0.17c0.22-0.42,0.47-0.95,0.47-1.6
		c0-1.21-0.68-1.88-1.91-1.88c-0.08,0-0.16,0-0.24,0.01c-2.58,0.13-6.09,1.93-9.64,4.93c-4.23,3.61-7.56,8.9-7.95,10.11
		c1.6-0.56,8.42-5.44,11.13-7.74c0.19-0.17,0.5-0.46,0.88-0.81c1.42-1.32,3.56-3.31,4.57-3.87c0.13-0.07,0.26-0.1,0.4-0.1
		c0.71,0,1.39,0.8,1.73,1.28c0.37,0.51,0.94,1.5,0.77,2L121.11,34l-0.21-0.43c-0.83,0.6-4.47,5.04-5.83,7.96
		c-0.2,0.48-0.34,0.86-0.41,1.16c3.06-1.24,9.21-7,12.23-9.84l0.63-0.6c0.13-0.13,0.27-0.16,0.36-0.16c0.2,0,0.39,0.13,0.47,0.34
		c0.08,0.19,0.05,0.4-0.09,0.53C124.63,36.92,115.83,46.15,112.55,46.15z"/>
	<path class="st1" d="M113.35,35.96c-1.5,1.5-11.25,9.9-13.35,9.9c-0.1,0-0.35-0.1-0.45-0.15c-0.9-0.45-2.2-2.35-2.2-3.35
		c0-5.45,11.45-16.6,20.65-16.6c1.9,0,4.4,0.8,4.4,3.15c0,0.85-0.45,1.7-0.95,2.35c-0.1,0.05-0.2,0-0.15-0.05
		c0.25-0.45,0.55-1.05,0.55-1.8c0-1.5-0.95-2.25-2.45-2.15c-2.9,0.15-6.55,2.25-9.8,5c-4.75,4.05-8.5,10.35-8.05,10.6
		c0.1,0.05,0.2,0.05,0.35,0c1.65-0.55,8.65-5.6,11.25-7.8c0.9-0.8,4.15-3.95,5.4-4.65c1-0.5,2.7,2.25,2.5,2.85
		c-0.25-0.5-4.75,4.95-6.25,8.15c-0.3,0.7-0.5,1.3-0.5,1.7c3.15-0.9,10.3-7.75,13.4-10.65c0.25-0.25,0.5,0.15,0.35,0.3
		c-4.35,4.75-12.5,13.1-15.5,13.1c-0.25,0-0.5-0.1-0.85-0.3c-0.7-0.4-1.65-1.45-1.65-2.35c0-0.5,0.2-1.1,0.4-1.85
		C111.05,39.51,112.4,37.21,113.35,35.96z"/>
	<path class="st1" d="M123.59,47.13c-1.54,0-2.76-1.59-3.13-3.08c-0.14-0.64,0.15-1.71,0.8-2.95c1.03-2.36,2.85-5.38,5.54-9.21
		c1.8-2.62,3.96-5.18,5.26-6.22c0.4-0.27,0.71-0.38,1.05-0.38c1.51,0,3.67,2.22,3.67,3.77v0.34c0.77-0.59,1.55-1.18,2.35-1.75
		c2.22-1.6,3.7-2.35,4.78-2.45c0,0,0,0,0,0c0.9,0,2.43,1.66,2.79,2.44c0.23,0.51,0.09,0.82-0.06,1c-0.19,0.2-0.43,0.43-0.72,0.72
		c-1.35,1.32-4.08,3.99-5.6,6.83c2-0.58,4.72-2.32,7.58-4.85c0.18-0.18,0.49-0.2,0.62-0.2c0.43,0,0.61,0.26,0.67,0.37l0.16,0.31
		l-0.21,0.28c-0.72,0.96-6.94,7.03-10.8,7.03c-1.24,0-2.97-2.03-2.97-2.92c0-0.99,0.67-2.54,1.45-3.9
		c-2.96,1.92-5.07,3.79-7.92,6.93c-2.74,2.95-4.56,6.02-4.54,6.8l1.4,0.64l-1.6,0.39C123.95,47.11,123.77,47.13,123.59,47.13z
		 M135.58,29.52c-0.22,0.02-1.42,0.93-3.48,3.68c-0.05,0.06-0.1,0.13-0.15,0.19c1.37-1.23,2.89-2.5,4.5-3.75l-0.23,0.06
		c-0.01,0-0.03,0-0.04,0c-0.2,0-0.31-0.05-0.39-0.1C135.74,29.57,135.67,29.53,135.58,29.52z"/>
	<path class="st1" d="M123.59,46.85c-1.39,0-2.51-1.48-2.86-2.86c-0.12-0.56,0.17-1.58,0.77-2.75c1.03-2.35,2.84-5.36,5.52-9.18
		c1.79-2.6,3.93-5.14,5.21-6.16c0.33-0.22,0.59-0.31,0.88-0.31c1.36,0,3.38,2.08,3.38,3.48v0.28l-0.32,0.08
		c-0.09,0-0.16-0.04-0.23-0.07c-0.08-0.04-0.18-0.09-0.31-0.11c-0.44,0-1.78,1.17-3.74,3.79c-0.69,0.92-1.39,1.86-2.04,2.77
		c2.45-2.48,5.77-5.27,9.45-7.92c2.18-1.56,3.61-2.3,4.64-2.4c0,0,0,0,0,0c0.69,0,2.16,1.52,2.5,2.28c0.13,0.3,0.13,0.53-0.01,0.69
		c-0.18,0.19-0.42,0.42-0.71,0.71c-1.47,1.44-4.47,4.37-5.94,7.46c2.1-0.4,5.08-2.21,8.29-5.06c0.12-0.12,0.38-0.13,0.43-0.13
		c0.27,0,0.37,0.13,0.41,0.21l0.08,0.16l-0.11,0.14c-0.88,1.17-7,6.91-10.58,6.91c-1.07,0-2.68-1.87-2.68-2.63
		c0-1.13,0.98-3.2,2.07-4.8c-3.61,2.22-5.87,4.16-9.03,7.64c-2.55,2.75-4.78,6.2-4.6,7.11c0.02,0.07,0.04,0.09,0.06,0.09l0.75,0.34
		l-0.8,0.19C123.91,46.83,123.75,46.85,123.59,46.85z"/>
	<path class="st1" d="M123.59,46.85c-1.39,0-2.51-1.48-2.86-2.86c-0.12-0.56,0.17-1.58,0.77-2.75c1.03-2.35,2.84-5.36,5.52-9.18
		c1.79-2.6,3.93-5.14,5.21-6.16c0.33-0.22,0.59-0.31,0.88-0.31c1.36,0,3.38,2.08,3.38,3.48v0.28l-0.32,0.08
		c-0.09,0-0.16-0.04-0.23-0.07c-0.08-0.04-0.18-0.09-0.31-0.11c-0.44,0-1.78,1.17-3.74,3.79c-0.69,0.92-1.39,1.86-2.04,2.77
		c2.45-2.48,5.77-5.27,9.45-7.92c2.18-1.56,3.61-2.3,4.64-2.4c0,0,0,0,0,0c0.69,0,2.16,1.52,2.5,2.28c0.13,0.3,0.13,0.53-0.01,0.69
		c-0.18,0.19-0.42,0.42-0.71,0.71c-1.47,1.44-4.47,4.37-5.94,7.46c2.1-0.4,5.08-2.21,8.29-5.06c0.12-0.12,0.38-0.13,0.43-0.13
		c0.27,0,0.37,0.13,0.41,0.21l0.08,0.16l-0.11,0.14c-0.88,1.17-7,6.91-10.58,6.91c-1.07,0-2.68-1.87-2.68-2.63
		c0-1.13,0.98-3.2,2.07-4.8c-3.61,2.22-5.87,4.16-9.03,7.64c-2.55,2.75-4.78,6.2-4.6,7.11c0.02,0.07,0.04,0.09,0.06,0.09l0.75,0.34
		l-0.8,0.19C123.91,46.83,123.75,46.85,123.59,46.85z"/>
	<path class="st1" d="M132.4,26.11c0.3-0.2,0.5-0.25,0.7-0.25c1.2,0,3.1,1.95,3.1,3.2c0,0.2-0.15-0.05-0.55-0.1
		c-0.75-0.05-2.5,1.9-4,3.9c-1.35,1.8-3.1,4.15-4.15,6c2.65-3.45,7.65-7.65,11.95-10.75c1.95-1.4,3.45-2.25,4.5-2.35
		c0.55-0.05,2.6,2.1,2.25,2.5c-1.1,1.15-5.25,4.8-6.9,8.7c2.4-0.2,5.85-2.45,8.95-5.2c0.05-0.05,0.35-0.1,0.4,0
		c-0.9,1.2-6.9,6.8-10.35,6.8c-0.9,0-2.4-1.75-2.4-2.35c0-1.4,1.6-4.3,2.9-5.8c-4.6,2.7-6.95,4.7-10.35,8.45
		c-2.55,2.75-5.55,7.15-4.45,7.65c-1.45,0.35-2.65-1.2-3-2.6c-0.1-0.45,0.15-1.4,0.75-2.55c1.25-2.85,3.5-6.3,5.5-9.15
		C129,29.66,131.15,27.11,132.4,26.11z"/>
	<path class="st1" d="M144,46.43c-0.22,0-0.41,0-0.71-0.06c-1-0.31-2.51-1.71-2.51-2.96c0-3,7.36-14.16,10.66-16.79
		c0.36-0.37,0.85-0.42,1.1-0.42c1.49,0,3.72,2.28,3.72,3.82v0.51l-0.56,0.13c-0.01,0-0.03,0-0.04,0c-0.19,0-0.31-0.05-0.41-0.09
		c-0.09-0.03-0.18-0.07-0.28-0.09c-1.25,0-6.52,7.79-8.37,11.63c2.37-1.28,6.38-4.66,11.95-10.05c0.23-0.17,0.41-0.24,0.62-0.24
		c0.34,0,0.65,0.21,0.78,0.52c0.12,0.3,0.06,0.61-0.15,0.82c-7.96,8.6-13.26,13.06-15.76,13.27l-0.03,0H144z M155.24,26.17
		c-0.94,0-1.7-1.02-1.75-1.93c-0.06-1.65,1.99-5.19,3.55-5.67c0.2-0.03,0.3-0.04,0.4-0.04c1.26,0,2.38,0.98,3.09,1.81
		c0.01,0.01,0.99,1.15,0.69,1.82l-0.14,0.31c0,0-0.41,0.06-0.42,0.06c-0.12,0-0.19-0.02-0.25-0.03c-0.08-0.02-0.16-0.04-0.26-0.04
		c-0.11,0-0.21,0.02-0.32,0.07c-0.76,0.31-2.98,2.3-3.52,3.06C155.94,26.07,155.52,26.17,155.24,26.17z"/>
	<path class="st1" d="M144,46.15c-0.22,0-0.38,0-0.66-0.06c-0.9-0.28-2.28-1.61-2.28-2.68c0-2.95,7.29-13.97,10.56-16.57
		c0.29-0.3,0.67-0.36,0.93-0.36c1.35,0,3.43,2.15,3.43,3.53v0.28l-0.34,0.08c-0.09,0-0.18-0.03-0.28-0.07
		c-0.1-0.04-0.22-0.09-0.35-0.1c-1.68,0-7.67,9.37-8.99,12.51c2.26-0.95,6.54-4.45,12.73-10.44c0.16-0.12,0.29-0.16,0.42-0.16
		c0.23,0,0.43,0.14,0.52,0.35c0.08,0.19,0.04,0.38-0.09,0.52c-5.44,5.88-12.56,12.94-15.58,13.18l-0.01,0H144z M155.24,25.89
		c-0.77,0-1.42-0.89-1.47-1.66c-0.05-1.53,1.91-4.94,3.35-5.39c0.14-0.02,0.23-0.03,0.32-0.03c1.15,0,2.2,0.93,2.88,1.71
		c0.3,0.33,0.81,1.15,0.65,1.52l-0.07,0.17l-0.24,0.03c-0.06,0-0.11-0.01-0.17-0.03c-0.08-0.02-0.19-0.05-0.32-0.05
		c-0.15,0-0.29,0.03-0.44,0.1c-0.8,0.33-3.07,2.35-3.64,3.16C155.79,25.81,155.46,25.89,155.24,25.89z"/>
	<path class="st1" d="M144,46.15c-0.22,0-0.38,0-0.66-0.06c-0.9-0.28-2.28-1.61-2.28-2.68c0-2.95,7.29-13.97,10.56-16.57
		c0.29-0.3,0.67-0.36,0.93-0.36c1.35,0,3.43,2.15,3.43,3.53v0.28l-0.34,0.08c-0.09,0-0.18-0.03-0.28-0.07
		c-0.1-0.04-0.22-0.09-0.35-0.1c-1.68,0-7.67,9.37-8.99,12.51c2.26-0.95,6.54-4.45,12.73-10.44c0.16-0.12,0.29-0.16,0.42-0.16
		c0.23,0,0.43,0.14,0.52,0.35c0.08,0.19,0.04,0.38-0.09,0.52c-5.44,5.88-12.56,12.94-15.58,13.18l-0.01,0H144z M155.24,25.89
		c-0.77,0-1.42-0.89-1.47-1.66c-0.05-1.53,1.91-4.94,3.35-5.39c0.14-0.02,0.23-0.03,0.32-0.03c1.15,0,2.2,0.93,2.88,1.71
		c0.3,0.33,0.81,1.15,0.65,1.52l-0.07,0.17l-0.24,0.03c-0.06,0-0.11-0.01-0.17-0.03c-0.08-0.02-0.19-0.05-0.32-0.05
		c-0.15,0-0.29,0.03-0.44,0.1c-0.8,0.33-3.07,2.35-3.64,3.16C155.79,25.81,155.46,25.89,155.24,25.89z"/>
	<path class="st1" d="M143.4,45.81c-0.8-0.25-2.05-1.5-2.05-2.4c0-2.9,7.25-13.8,10.45-16.35c0.25-0.25,0.55-0.3,0.75-0.3
		c1.15,0,3.15,2,3.15,3.25c0,0.2-0.25-0.05-0.65-0.1c-2.05-0.2-8.9,11.2-9.5,13.25c3.05-0.8,10.35-7.75,13.4-10.7
		c0.35-0.25,0.6,0.15,0.45,0.3c-4.35,4.7-12.3,12.85-15.4,13.1C143.8,45.86,143.65,45.86,143.4,45.81z M160.1,20.71
		c0.45,0.5,0.75,1.25,0.55,1.25c-0.1,0-0.5-0.2-1.05,0.05c-0.85,0.35-3.15,2.4-3.75,3.25c-0.7,0.9-1.75-0.15-1.8-1.05
		c-0.05-1.45,1.85-4.7,3.15-5.1C158.35,18.96,159.45,19.96,160.1,20.71z"/>
	<path class="st1" d="M169.6,46.43c-1.88,0-3.92-1.74-4.21-3.58c-0.07-0.58-0.04-1.14,0.11-1.73c0.38-2.02,2.11-5.63,5.71-9.12
		c4.19-4.14,9.33-6.81,13.1-6.81c1.44,0,3.42,1.92,3.42,3.02c0,2.18-2.59,4.14-4.31,5.44c-0.1,0.1-0.28,0.17-0.47,0.17
		c-0.27,0-0.53-0.15-0.65-0.38c-0.12-0.22-0.1-0.48,0.04-0.69c0.66-0.67,1.92-3.05,2.3-4.15c-5.12,0.94-13.96,11.17-13.96,14.27
		c0,0.29,0.61,0.29,0.68,0.29c0.05,0,0.1,0,0.14-0.01c4.57-0.5,13.34-7.64,17.56-11.08c0.16-0.11,0.3-0.15,0.46-0.15
		c0.29,0,0.66,0.17,0.8,0.51c0.1,0.25,0.05,0.54-0.15,0.74C185.93,37.14,176.07,46.43,169.6,46.43z"/>
	<path class="st1" d="M169.6,46.15c-1.75,0-3.66-1.62-3.93-3.34c-0.07-0.54-0.03-1.06,0.11-1.61c0.38-1.99,2.08-5.54,5.63-8.98
		c4.14-4.09,9.2-6.73,12.9-6.73c1.26,0,3.13,1.79,3.13,2.73c0,2.04-2.53,3.95-4.2,5.21c-0.07,0.07-0.18,0.11-0.3,0.11
		c-0.17,0-0.33-0.09-0.4-0.23c-0.07-0.13-0.06-0.28,0.03-0.4c0.74-0.75,2.32-3.8,2.45-4.65c-5.11,0.43-14.63,11.27-14.63,14.6
		c0,0.54,0.73,0.58,0.96,0.58c0.06,0,0.12,0,0.18-0.01c4.65-0.5,13.47-7.69,17.7-11.14c0.1-0.06,0.18-0.09,0.28-0.09
		c0.19,0,0.45,0.12,0.54,0.33c0.06,0.15,0.03,0.31-0.09,0.43C185.76,36.91,175.96,46.15,169.6,46.15z"/>
	<path class="st1" d="M169.6,46.15c-1.75,0-3.66-1.62-3.93-3.34c-0.07-0.54-0.03-1.06,0.11-1.61c0.38-1.99,2.08-5.54,5.63-8.98
		c4.14-4.09,9.2-6.73,12.9-6.73c1.26,0,3.13,1.79,3.13,2.73c0,2.04-2.53,3.95-4.2,5.21c-0.07,0.07-0.18,0.11-0.3,0.11
		c-0.17,0-0.33-0.09-0.4-0.23c-0.07-0.13-0.06-0.28,0.03-0.4c0.74-0.75,2.32-3.8,2.45-4.65c-5.11,0.43-14.63,11.27-14.63,14.6
		c0,0.54,0.73,0.58,0.96,0.58c0.06,0,0.12,0,0.18-0.01c4.65-0.5,13.47-7.69,17.7-11.14c0.1-0.06,0.18-0.09,0.28-0.09
		c0.19,0,0.45,0.12,0.54,0.33c0.06,0.15,0.03,0.31-0.09,0.43C185.76,36.91,175.96,46.15,169.6,46.15z"/>
	<path class="st1" d="M171.55,43.71c4.6-0.5,13-7.25,17.85-11.2c0.15-0.1,0.5,0.1,0.35,0.25c-4.3,4.05-13.95,13.1-20.15,13.1
		c-1.6,0-3.4-1.5-3.65-3.1c-0.05-0.4-0.05-0.9,0.1-1.5c0.4-2.1,2.2-5.6,5.55-8.85c4.1-4.05,9.15-6.65,12.7-6.65
		c1.15,0,2.85,1.7,2.85,2.45c0,1.9-2.45,3.75-4.1,5c-0.1,0.1-0.35,0-0.25-0.15c0.8-0.8,2.85-4.75,2.45-5.1
		c-5.35,0.1-15.15,11.4-15.15,14.9C170.1,43.66,171.1,43.76,171.55,43.71z"/>
	<path class="st1" d="M197.5,46.43c-0.39,0-0.74-0.15-1.13-0.38c-0.8-0.46-1.94-1.64-1.94-2.84c0-0.48,0.14-0.99,0.31-1.58
		l0.11-0.42c0.22-0.69,0.56-1.47,0.97-2.29c-2.85,2.43-9,7.5-10.87,7.5c-0.23,0-0.53-0.13-0.69-0.21c-1.05-0.52-2.52-2.61-2.52-3.86
		c0-5.67,11.67-17.17,21.22-17.17c2.47,0,4.97,1.15,4.97,3.72c0,1.08-0.58,2.06-1.07,2.7l-0.04,0.05l-0.1,0.08l-0.12,0.06
		c0,0-0.25,0.05-0.25,0.05c-0.08,0-0.15-0.01-0.22-0.03c0.28,0.5,0.56,1.16,0.41,1.62l-0.43,1.3l-0.35-0.71
		c-1.09,1.06-4.23,4.94-5.49,7.62c-0.08,0.18-0.15,0.35-0.21,0.51c3.17-1.63,8.78-6.9,11.57-9.52l0.64-0.6
		c0.15-0.15,0.35-0.23,0.55-0.23c0.32,0,0.6,0.2,0.73,0.51c0.12,0.3,0.07,0.62-0.15,0.84C208.87,38.11,200.77,46.43,197.5,46.43z
		 M204.39,27.83c-2.52,0.13-5.97,1.9-9.47,4.87c-3.66,3.12-6.61,7.46-7.57,9.31c2.3-1.24,7.99-5.35,10.38-7.38
		c0.19-0.17,0.49-0.45,0.87-0.8c1.43-1.33,3.59-3.34,4.62-3.91c0.18-0.09,0.35-0.13,0.54-0.13c0.74,0,1.42,0.67,1.88,1.28l0.2-0.23
		c0.19-0.38,0.4-0.85,0.4-1.42c0-1.06-0.55-1.59-1.62-1.59C204.54,27.82,204.46,27.82,204.39,27.83z"/>
	<path class="st1" d="M197.5,46.15c-0.33,0-0.64-0.14-0.99-0.34c-0.72-0.41-1.79-1.52-1.79-2.6c0-0.44,0.14-0.94,0.3-1.51l0.11-0.42
		c0.37-1.14,1.02-2.45,1.7-3.6c-3.25,2.85-10.02,8.46-11.87,8.46c-0.21,0-0.57-0.18-0.58-0.18c-0.95-0.48-2.36-2.46-2.36-3.6
		c0-5.58,11.51-16.88,20.93-16.88c2.33,0,4.68,1.06,4.68,3.43c0,1-0.55,1.92-1.01,2.52l-0.04,0.05l-0.12,0.06l-0.15,0.02
		c-0.16,0-0.29-0.08-0.34-0.21l-0.07-0.17l0.15-0.17c0.22-0.42,0.47-0.95,0.47-1.6c0-1.21-0.68-1.88-1.91-1.88
		c-0.08,0-0.16,0-0.24,0.01c-2.58,0.13-6.09,1.93-9.64,4.93c-4.23,3.61-7.56,8.9-7.95,10.11c1.6-0.56,8.42-5.44,11.13-7.74
		c0.19-0.17,0.5-0.46,0.88-0.81c1.42-1.32,3.56-3.31,4.57-3.87c0.13-0.07,0.26-0.1,0.4-0.1c0.71,0,1.39,0.8,1.73,1.28
		c0.37,0.51,0.94,1.5,0.77,2L206.05,34l-0.21-0.43c-0.83,0.6-4.47,5.04-5.83,7.96c-0.2,0.48-0.34,0.86-0.41,1.16
		c3.06-1.24,9.21-7,12.23-9.84l0.63-0.6c0.13-0.13,0.27-0.16,0.36-0.16c0.2,0,0.39,0.13,0.47,0.34c0.08,0.19,0.05,0.4-0.09,0.53
		C209.58,36.92,200.78,46.15,197.5,46.15z"/>
	<path class="st1" d="M197.5,46.15c-0.33,0-0.64-0.14-0.99-0.34c-0.72-0.41-1.79-1.52-1.79-2.6c0-0.44,0.14-0.94,0.3-1.51l0.11-0.42
		c0.37-1.14,1.02-2.45,1.7-3.6c-3.25,2.85-10.02,8.46-11.87,8.46c-0.21,0-0.57-0.18-0.58-0.18c-0.95-0.48-2.36-2.46-2.36-3.6
		c0-5.58,11.51-16.88,20.93-16.88c2.33,0,4.68,1.06,4.68,3.43c0,1-0.55,1.92-1.01,2.52l-0.04,0.05l-0.12,0.06l-0.15,0.02
		c-0.16,0-0.29-0.08-0.34-0.21l-0.07-0.17l0.15-0.17c0.22-0.42,0.47-0.95,0.47-1.6c0-1.21-0.68-1.88-1.91-1.88
		c-0.08,0-0.16,0-0.24,0.01c-2.58,0.13-6.09,1.93-9.64,4.93c-4.23,3.61-7.56,8.9-7.95,10.11c1.6-0.56,8.42-5.44,11.13-7.74
		c0.19-0.17,0.5-0.46,0.88-0.81c1.42-1.32,3.56-3.31,4.57-3.87c0.13-0.07,0.26-0.1,0.4-0.1c0.71,0,1.39,0.8,1.73,1.28
		c0.37,0.51,0.94,1.5,0.77,2L206.05,34l-0.21-0.43c-0.83,0.6-4.47,5.04-5.83,7.96c-0.2,0.48-0.34,0.86-0.41,1.16
		c3.06-1.24,9.21-7,12.23-9.84l0.63-0.6c0.13-0.13,0.27-0.16,0.36-0.16c0.2,0,0.39,0.13,0.47,0.34c0.08,0.19,0.05,0.4-0.09,0.53
		C209.58,36.92,200.78,46.15,197.5,46.15z"/>
	<path class="st1" d="M198.3,35.96c-1.5,1.5-11.25,9.9-13.35,9.9c-0.1,0-0.35-0.1-0.45-0.15c-0.9-0.45-2.2-2.35-2.2-3.35
		c0-5.45,11.45-16.6,20.65-16.6c1.9,0,4.4,0.8,4.4,3.15c0,0.85-0.45,1.7-0.95,2.35c-0.1,0.05-0.2,0-0.15-0.05
		c0.25-0.45,0.55-1.05,0.55-1.8c0-1.5-0.95-2.25-2.45-2.15c-2.9,0.15-6.55,2.25-9.8,5c-4.75,4.05-8.5,10.35-8.05,10.6
		c0.1,0.05,0.2,0.05,0.35,0c1.65-0.55,8.65-5.6,11.25-7.8c0.9-0.8,4.15-3.95,5.4-4.65c1-0.5,2.7,2.25,2.5,2.85
		c-0.25-0.5-4.75,4.95-6.25,8.15c-0.3,0.7-0.5,1.3-0.5,1.7c3.15-0.9,10.3-7.75,13.4-10.65c0.25-0.25,0.5,0.15,0.35,0.3
		c-4.35,4.75-12.5,13.1-15.5,13.1c-0.25,0-0.5-0.1-0.85-0.3c-0.7-0.4-1.65-1.45-1.65-2.35c0-0.5,0.2-1.1,0.4-1.85
		C196,39.51,197.35,37.21,198.3,35.96z"/>
	<path class="st1" d="M209.02,47.13c-1.58,0-2.89-1.58-3.31-3.06c-0.21-0.74,0.37-2.53,1.45-4.44c2.26-4.26,5.32-8.86,7.96-11.99
		c0.68-0.82,1.4-1.56,2.02-2.07c0.35-0.36,0.9-0.38,1.01-0.38c1.56,0,3.72,2.18,3.72,3.77v0.51l-0.55,0.13c-0.01,0-0.03,0-0.04,0
		c-0.19,0-0.3-0.05-0.39-0.09c-0.08-0.04-0.16-0.07-0.25-0.08c-0.07,0.01-0.57,0.28-1.19,1.04c-0.97,1.11-2.4,3.06-3.78,5.02
		c4.25-4.17,9.93-9.07,11.62-9.44c0.07-0.06,0.27-0.06,0.42-0.06c1.04,0,2.19,1.44,2.62,2.48c0.28,0.66,0.25,1.16-0.07,1.48
		c-1.76,1.86-4.15,5.48-5.6,8.16c4.94-5.63,12.36-12.68,14.45-12.68c1.09,0,2.26,1.54,2.65,2.61c0.34,0.94,0.09,1.41-0.18,1.64
		c-1.18,0.94-7.25,9.42-8.59,12.72c3.33-1.57,9.25-7.23,12.19-10.03l0.35-0.33c0.23-0.17,0.41-0.24,0.61-0.24
		c0.34,0,0.65,0.21,0.78,0.52c0.12,0.3,0.07,0.61-0.15,0.82c-3.65,3.98-12.52,13.27-15.95,13.27c-1.49,0-3.17-2.23-3.17-3.42
		c0-2.19,2.63-6.74,5-10.08c-3.6,3.1-6.42,6.36-8.37,8.62c-2.16,2.51-2.95,3.38-3.71,3.38c-1.01,0-2.87-1.86-2.87-3.17
		c0-1.61,2.15-5.91,4.52-9.22c-3.01,2.32-6.19,5.38-9.68,9.3c-0.79,0.89-1.36,1.55-1.73,2.02c-1.24,1.47-1.21,1.98-1.19,2.06
		c0,0.02,0.01,0.04,0.08,0.07l1.48,0.69l-1.6,0.37C209.39,47.11,209.2,47.13,209.02,47.13z"/>
	<path class="st1" d="M209.02,46.85c-1.44,0-2.65-1.47-3.04-2.86c-0.15-0.54,0.23-2.09,1.43-4.22c2.26-4.25,5.3-8.83,7.93-11.94
		c0.67-0.81,1.38-1.54,1.99-2.04c0.29-0.3,0.74-0.31,0.83-0.31c1.41,0,3.43,2.05,3.43,3.48v0.28l-0.33,0.08
		c-0.09,0-0.17-0.03-0.25-0.07c-0.09-0.04-0.2-0.09-0.33-0.11c0,0,0,0,0,0c-0.22,0-0.8,0.36-1.44,1.15
		c-1.41,1.6-3.79,4.98-5.58,7.65c4.43-4.67,11.85-11.21,13.7-11.61c0.09-0.06,0.24-0.06,0.36-0.06c0.87,0,1.96,1.35,2.36,2.31
		c0.23,0.55,0.22,0.94-0.01,1.17c-2.21,2.34-5.55,7.61-6.62,10.23c4.81-5.8,13.52-14.26,15.67-14.26c0.93,0,2.01,1.41,2.38,2.42
		c0.29,0.79,0.11,1.16-0.1,1.33c-1.32,1.06-8.15,10.7-8.89,13.44c3.23-1.14,9.69-7.3,12.86-10.33l0.35-0.33
		c0.15-0.11,0.28-0.16,0.42-0.16c0.23,0,0.43,0.14,0.52,0.35c0.08,0.19,0.04,0.38-0.09,0.52c-2.83,3.09-12.34,13.18-15.75,13.18
		c-1.33,0-2.88-2.07-2.88-3.13c0-2.45,3.61-8.33,6.33-11.77c-4.5,3.51-7.87,7.42-10.21,10.13c-1.96,2.27-2.85,3.27-3.49,3.27
		c-0.87,0-2.58-1.75-2.58-2.88c0-1.68,2.75-7.1,5.67-10.63c-3.49,2.44-7.21,5.9-11.32,10.52c-0.8,0.89-1.37,1.56-1.74,2.04
		c-1.21,1.42-1.3,2.05-1.24,2.3c0.02,0.08,0.06,0.19,0.24,0.27l0.74,0.35l-0.8,0.19C209.35,46.83,209.18,46.85,209.02,46.85z"/>
	<path class="st1" d="M209.02,46.85c-1.44,0-2.65-1.47-3.04-2.86c-0.15-0.54,0.23-2.09,1.43-4.22c2.26-4.25,5.3-8.83,7.93-11.94
		c0.67-0.81,1.38-1.54,1.99-2.04c0.29-0.3,0.74-0.31,0.83-0.31c1.41,0,3.43,2.05,3.43,3.48v0.28l-0.33,0.08
		c-0.09,0-0.17-0.03-0.25-0.07c-0.09-0.04-0.2-0.09-0.33-0.11c0,0,0,0,0,0c-0.22,0-0.8,0.36-1.44,1.15
		c-1.41,1.6-3.79,4.98-5.58,7.65c4.43-4.67,11.85-11.21,13.7-11.61c0.09-0.06,0.24-0.06,0.36-0.06c0.87,0,1.96,1.35,2.36,2.31
		c0.23,0.55,0.22,0.94-0.01,1.17c-2.21,2.34-5.55,7.61-6.62,10.23c4.81-5.8,13.52-14.26,15.67-14.26c0.93,0,2.01,1.41,2.38,2.42
		c0.29,0.79,0.11,1.16-0.1,1.33c-1.32,1.06-8.15,10.7-8.89,13.44c3.23-1.14,9.69-7.3,12.86-10.33l0.35-0.33
		c0.15-0.11,0.28-0.16,0.42-0.16c0.23,0,0.43,0.14,0.52,0.35c0.08,0.19,0.04,0.38-0.09,0.52c-2.83,3.09-12.34,13.18-15.75,13.18
		c-1.33,0-2.88-2.07-2.88-3.13c0-2.45,3.61-8.33,6.33-11.77c-4.5,3.51-7.87,7.42-10.21,10.13c-1.96,2.27-2.85,3.27-3.49,3.27
		c-0.87,0-2.58-1.75-2.58-2.88c0-1.68,2.75-7.1,5.67-10.63c-3.49,2.44-7.21,5.9-11.32,10.52c-0.8,0.89-1.37,1.56-1.74,2.04
		c-1.21,1.42-1.3,2.05-1.24,2.3c0.02,0.08,0.06,0.19,0.24,0.27l0.74,0.35l-0.8,0.19C209.35,46.83,209.18,46.85,209.02,46.85z"/>
	<path class="st1" d="M228.2,43.01c0-2.85,5.45-11.2,8.05-13.6c-9.1,6.3-14.3,14.95-15.7,14.95c-0.7,0-2.3-1.6-2.3-2.6
		c0-1.9,3.85-9.1,7.2-12.15c-5.05,3.05-9.7,7.75-13.35,11.85c-0.85,0.95-1.4,1.6-1.75,2.05c-1.4,1.65-1.65,2.65-0.9,3
		c-1.5,0.35-2.8-1.2-3.2-2.6c-0.1-0.35,0.1-1.7,1.4-4c2.15-4.05,5.15-8.65,7.9-11.9c0.7-0.85,1.4-1.55,1.95-2
		c0.2-0.2,0.5-0.25,0.65-0.25c1.25,0,3.15,1.95,3.15,3.2c0,0.2-0.2-0.05-0.6-0.1c-0.35-0.05-1.05,0.45-1.7,1.25
		c-2.15,2.45-6.55,9-7.7,10.95c3.2-4.25,14-14,16.1-14.45c0.1-0.05,0.2-0.05,0.3-0.05c1,0,2.65,2.5,2.15,3
		c-2.55,2.7-7.05,9.9-7.05,11.65c4.7-5.95,14.2-15.2,16.3-15.2c1.1,0,2.75,2.7,2.1,3.25c-1.25,1-9.05,11.85-9.05,14.05
		c3.25-0.75,10.55-7.8,13.75-10.85c0.35-0.25,0.6,0.15,0.45,0.3c-4.35,4.75-12.6,13.1-15.55,13.1
		C229.65,45.86,228.2,43.96,228.2,43.01z"/>
	<path class="st1" d="M230.78,69.41c-1,0-1.91-0.42-2.58-1.18c-0.81-0.93-1.16-2.24-0.97-3.69c1.02-8.19,10.45-23.4,18.77-34.08
		c1.45-1.83,3.44-4.09,4.44-4.89c0.46-0.38,0.93-0.43,1.11-0.43c1.49,0,3.62,2.25,3.62,3.82v0.24c2.99-2.11,6-3.78,7.73-3.78
		c0.25,0,0.48,0.03,0.68,0.1c0.79,0.31,2.78,2.36,2.78,3.44c0,4.45-9.96,17.07-17.22,17.07c-2.27,0-4.82-1.48-4.82-3.47
		c0-0.52,0.39-0.84,0.76-0.84h0.52l0.1,0.59c0.02,0.22,0.58,0.93,1.34,0.93c4.14,0,11.74-10.19,13.68-14.22
		c-2.55,1.22-9.06,5.15-16.12,12.58c-4.99,7.16-11.79,17.55-13,24.71c-0.06,0.31-0.24,1.22-0.01,1.55c0.07,0.1,0.21,0.17,0.42,0.19
		l0.22,0.03l0.12,0.98l-0.21,0.08C231.7,69.32,231.24,69.41,230.78,69.41z M254.02,29.42c-0.06,0-0.63,0.15-2.78,2.79
		c1.07-0.89,2.23-1.79,3.41-2.64c0,0-0.04,0.01-0.05,0.01c-0.18,0-0.29-0.05-0.37-0.09C254.16,29.46,254.1,29.43,254.02,29.42z"/>
	<path class="st1" d="M230.78,69.13c-0.91,0-1.75-0.38-2.37-1.08c-0.76-0.86-1.08-2.1-0.9-3.47c1.02-8.13,10.41-23.29,18.71-33.94
		c1.44-1.81,3.41-4.06,4.4-4.85c0.39-0.33,0.78-0.36,0.93-0.36c1.34,0,3.33,2.11,3.33,3.53v0.28l-0.32,0.06
		c-0.09,0-0.15-0.03-0.22-0.06c-0.07-0.03-0.16-0.08-0.28-0.09h0c-0.37,0-1.32,0.68-3.84,3.89c-0.2,0.25-0.55,0.72-0.93,1.25
		c4.36-4.01,10.87-8.58,13.61-8.58c0.22,0,0.42,0.03,0.59,0.09c0.7,0.27,2.59,2.23,2.59,3.17c0,4.38-9.79,16.78-16.93,16.78
		c-2.14,0-4.53-1.36-4.53-3.18c0-0.33,0.24-0.55,0.47-0.55h0.28l0.06,0.35c0,0.33,0.72,1.17,1.62,1.17
		c4.58,0,12.92-11.61,14.23-15.06c-1.88,0.74-9.07,4.73-16.87,12.94c-5.01,7.19-11.86,17.63-13.08,24.85
		c-0.12,0.62-0.23,1.38,0.04,1.76c0.12,0.17,0.32,0.27,0.62,0.31l0.07,0.55C231.63,69.04,231.2,69.13,230.78,69.13z"/>
	<path class="st1" d="M230.78,69.13c-0.91,0-1.75-0.38-2.37-1.08c-0.76-0.86-1.08-2.1-0.9-3.47c1.02-8.13,10.41-23.29,18.71-33.94
		c1.44-1.81,3.41-4.06,4.4-4.85c0.39-0.33,0.78-0.36,0.93-0.36c1.34,0,3.33,2.11,3.33,3.53v0.28l-0.32,0.06
		c-0.09,0-0.15-0.03-0.22-0.06c-0.07-0.03-0.16-0.08-0.28-0.09h0c-0.37,0-1.32,0.68-3.84,3.89c-0.2,0.25-0.55,0.72-0.93,1.25
		c4.36-4.01,10.87-8.58,13.61-8.58c0.22,0,0.42,0.03,0.59,0.09c0.7,0.27,2.59,2.23,2.59,3.17c0,4.38-9.79,16.78-16.93,16.78
		c-2.14,0-4.53-1.36-4.53-3.18c0-0.33,0.24-0.55,0.47-0.55h0.28l0.06,0.35c0,0.33,0.72,1.17,1.62,1.17
		c4.58,0,12.92-11.61,14.23-15.06c-1.88,0.74-9.07,4.73-16.87,12.94c-5.01,7.19-11.86,17.63-13.08,24.85
		c-0.12,0.62-0.23,1.38,0.04,1.76c0.12,0.17,0.32,0.27,0.62,0.31l0.07,0.55C231.63,69.04,231.2,69.13,230.78,69.13z"/>
	<path class="st1" d="M250.8,26.01c0.3-0.25,0.6-0.3,0.75-0.3c1.15,0,3.05,1.95,3.05,3.25c0,0.15-0.15-0.05-0.5-0.1
		c-0.75-0.1-2.5,1.95-4.1,4c-0.65,0.8-2.8,3.9-2.8,3.9c4.35-4.75,13.7-11.55,16.2-10.7c0.65,0.25,2.4,2.15,2.4,2.9
		c0,4.5-9.8,16.5-16.65,16.5c-1.95,0-4.25-1.25-4.25-2.9c0-0.25,0.25-0.35,0.25-0.2c0,0.5,0.85,1.45,1.9,1.45
		c5.05,0,14.05-12.95,14.65-15.75c-0.75,0-8.8,4-17.5,13.15c-4.85,6.95-11.9,17.6-13.15,25c-0.25,1.25-0.25,2.25,0.9,2.4
		c-2.3,0.9-4.55-0.95-4.15-4c1.05-8.4,11.05-24.05,18.65-33.8C247.8,29.11,249.8,26.81,250.8,26.01z"/>
	<path class="st1" d="M276.8,46.43c-0.4,0-0.82-0.16-1.15-0.43c-0.81-0.39-2.01-1.71-2.01-2.89c0-0.59,0.31-1.52,0.58-2.33
		c0.38-1.04,0.97-2.31,1.65-3.59c-4.74,4.82-8.79,8.65-11.16,9.12l-0.51,0.01c-1.05,0-2.92-1.57-2.92-3.12
		c0-2.34,2.87-7.55,5.71-11.48c1.76-2.47,3.9-4.92,5.21-5.96c0.38-0.39,0.9-0.42,1.05-0.42c1.53,0,3.72,2.25,3.72,3.82v0.51
		l-0.55,0.13c-0.01,0-0.03,0-0.04,0c-0.18,0-0.28-0.04-0.38-0.08c-0.1-0.04-0.19-0.08-0.31-0.09c-0.12,0.01-0.86,0.37-4.04,4.48
		c-2.05,2.69-3.95,5.87-4.65,7.72c2.48-1.52,6.43-4.99,8.66-7.12c0.85-0.84,1.83-1.88,2.87-2.98c2.08-2.21,4.39-4.67,6.33-6.16
		c0.3-0.24,0.66-0.37,1.05-0.37c1.51,0,3.67,2.22,3.67,3.77v0.51l-0.54,0.13c-0.01,0-0.03,0-0.04,0c-0.19,0-0.29-0.05-0.37-0.09
		c-0.08-0.04-0.16-0.07-0.28-0.09c-0.03,0.02-0.49,0.24-1.17,0.97c-0.66,0.71-1.89,2.26-3.76,4.75c-1.9,2.54-3.5,5.35-4.04,7.03
		c3.3-1.71,9.3-7.41,11.94-9.92l0.21-0.2c0.19-0.16,0.39-0.24,0.58-0.24c0.33,0,0.62,0.2,0.75,0.52c0.12,0.3,0.07,0.62-0.15,0.83
		C288.17,38.11,280.07,46.43,276.8,46.43z"/>
	<path class="st1" d="M276.8,46.15c-0.33,0-0.69-0.13-0.98-0.36c-0.77-0.38-1.91-1.6-1.91-2.67c0-0.55,0.3-1.45,0.56-2.24
		c0.54-1.45,1.54-3.52,2.72-5.45c-4.72,4.85-9.91,10.09-12.55,10.62l-0.46,0.01c-0.92,0-2.63-1.46-2.63-2.83
		c0-2.28,2.84-7.42,5.65-11.32c1.75-2.45,3.87-4.88,5.15-5.91c0.33-0.33,0.76-0.36,0.88-0.36c1.38,0,3.43,2.11,3.43,3.53v0.28
		l-0.33,0.08c-0.09,0-0.16-0.03-0.25-0.07c-0.1-0.04-0.22-0.09-0.38-0.11h0c-0.5,0-1.94,1.55-4.29,4.59
		c-2.39,3.14-4.51,6.84-4.92,8.5c2.4-1.25,6.81-5.09,9.35-7.52c0.87-0.85,1.86-1.91,2.91-3.02c2.04-2.17,4.35-4.62,6.26-6.1
		c0.25-0.2,0.55-0.31,0.87-0.31c1.36,0,3.38,2.08,3.38,3.48v0.28l-0.32,0.08c-0.09,0-0.16-0.03-0.23-0.07
		c-0.08-0.04-0.2-0.09-0.36-0.11c-0.15,0-0.69,0.29-1.41,1.06c-0.67,0.71-1.91,2.28-3.78,4.78c-2.19,2.93-3.94,6.15-4.25,7.71
		c3.2-1.33,9.71-7.52,12.56-10.23l0.21-0.2c0.16-0.13,0.3-0.16,0.39-0.16c0.21,0,0.41,0.13,0.49,0.34c0.08,0.19,0.04,0.39-0.09,0.52
		C288.88,36.92,280.08,46.15,276.8,46.15z"/>
	<path class="st1" d="M276.8,46.15c-0.33,0-0.69-0.13-0.98-0.36c-0.77-0.38-1.91-1.6-1.91-2.67c0-0.55,0.3-1.45,0.56-2.24
		c0.54-1.45,1.54-3.52,2.72-5.45c-4.72,4.85-9.91,10.09-12.55,10.62l-0.46,0.01c-0.92,0-2.63-1.46-2.63-2.83
		c0-2.28,2.84-7.42,5.65-11.32c1.75-2.45,3.87-4.88,5.15-5.91c0.33-0.33,0.76-0.36,0.88-0.36c1.38,0,3.43,2.11,3.43,3.53v0.28
		l-0.33,0.08c-0.09,0-0.16-0.03-0.25-0.07c-0.1-0.04-0.22-0.09-0.38-0.11h0c-0.5,0-1.94,1.55-4.29,4.59
		c-2.39,3.14-4.51,6.84-4.92,8.5c2.4-1.25,6.81-5.09,9.35-7.52c0.87-0.85,1.86-1.91,2.91-3.02c2.04-2.17,4.35-4.62,6.26-6.1
		c0.25-0.2,0.55-0.31,0.87-0.31c1.36,0,3.38,2.08,3.38,3.48v0.28l-0.32,0.08c-0.09,0-0.16-0.03-0.23-0.07
		c-0.08-0.04-0.2-0.09-0.36-0.11c-0.15,0-0.69,0.29-1.41,1.06c-0.67,0.71-1.91,2.28-3.78,4.78c-2.19,2.93-3.94,6.15-4.25,7.71
		c3.2-1.33,9.71-7.52,12.56-10.23l0.21-0.2c0.16-0.13,0.3-0.16,0.39-0.16c0.21,0,0.41,0.13,0.49,0.34c0.08,0.19,0.04,0.39-0.09,0.52
		C288.88,36.92,280.08,46.15,276.8,46.15z"/>
	<path class="st1" d="M279.35,32.81c-5.05,5.15-11.75,12.35-14.75,12.95c-0.1,0-0.4,0-0.4,0c-0.8,0-2.35-1.35-2.35-2.55
		c0-2.15,2.75-7.2,5.6-11.15c1.75-2.45,3.85-4.85,5.1-5.85c0.25-0.25,0.55-0.3,0.7-0.3c1.2,0,3.15,1.95,3.15,3.25
		c0,0.2-0.2-0.05-0.65-0.1c-0.75-0.1-2.85,2.5-4.55,4.7c-2.55,3.35-5.05,7.7-5.05,9.15c2.4-1,7.5-5.5,9.9-7.8
		c2.6-2.55,6.3-6.9,9.15-9.1c0.25-0.2,0.5-0.25,0.7-0.25c1.2,0,3.1,1.95,3.1,3.2c0,0.2-0.15-0.05-0.6-0.1c-0.35,0-1,0.45-1.65,1.15
		c-0.75,0.8-2.15,2.6-3.8,4.8c-2.5,3.35-4.35,6.9-4.35,8.3c3.15-0.95,10.25-7.75,13.3-10.65c0.3-0.25,0.55,0.15,0.4,0.3
		c-4.35,4.75-12.5,13.1-15.5,13.1c-0.25,0-0.55-0.1-0.8-0.3c-0.8-0.4-1.8-1.55-1.8-2.45c0-0.5,0.3-1.4,0.55-2.15
		C275.6,38.66,277.5,35.11,279.35,32.81z"/>
	<path class="st1" d="M286.45,46.88c-0.71,0-1.97-0.32-2.45-2.44c0.16-2.57,6.72-6.28,8.81-7.34c0,0-0.01-0.01-0.01-0.01
		c-1.15-1-3.01-2.61-2.6-4.64c0.83-3.97,8.24-8,12.96-8c0.54,0,1.04,0.24,1.45,0.69c0.82,0.91,1.14,2.55,1.02,3.69
		c-0.07,0.99-3.48,4.21-5.12,4.21c-0.45,0-0.68-0.48-0.68-0.75v-0.55l0.38-0.03c0.48-0.42,2.05-2.13,2.83-3.25
		c-2.82,0.77-8.67,4.53-9.18,6.35c-0.08,0.35,0.66,0.96,1.02,1.26c7.93-4.39,14.34-5.48,14.98-5.48c0.27,0,0.54,0.14,0.71,0.36
		l0.09,0.03l0.07,0.21l0.01,0.22c0,0.5,0,0.5-2.55,1.34c-2.92,0.96-8.28,2.73-11.98,4.77c0.67,0.72,1.51,1.93,1.36,2.97
		C296.77,44.19,289.78,46.88,286.45,46.88z"/>
	<path class="st1" d="M286.45,46.6c-0.76,0-1.76-0.39-2.18-2.22c0.15-2.33,6.89-6.2,9.04-7.21c-0.11-0.1-0.24-0.21-0.38-0.33
		c-1.06-0.92-2.85-2.47-2.46-4.33c0.81-3.86,8.06-7.78,12.68-7.78c0.46,0,0.88,0.21,1.24,0.59c0.76,0.84,1.06,2.42,0.95,3.47
		c-0.06,0.85-3.37,3.96-4.83,3.96c-0.26,0-0.4-0.33-0.4-0.46V32l0.21-0.01c0.46-0.36,2.75-2.85,3.29-3.93
		c-2.53,0.29-9.45,4.58-10.03,6.68c-0.12,0.53,0.63,1.15,1.12,1.56c0.05,0.04,0.09,0.08,0.14,0.12c7.95-4.44,14.38-5.54,15.02-5.54
		c0.18,0,0.42,0.11,0.53,0.31l0.06,0.02l0.01,0.22c0,0.28,0,0.28-2.36,1.06c-3.04,1-8.62,2.84-12.35,4.98
		c0.73,0.69,1.69,1.98,1.54,3C296.53,43.95,289.62,46.6,286.45,46.6z M293.5,38.73c-2.13,1.25-4.64,2.9-6.29,4.22
		C289.44,41.97,292.64,40.08,293.5,38.73z"/>
	<path class="st1" d="M286.45,46.6c-0.76,0-1.76-0.39-2.18-2.22c0.15-2.33,6.89-6.2,9.04-7.21c-0.11-0.1-0.24-0.21-0.38-0.33
		c-1.06-0.92-2.85-2.47-2.46-4.33c0.81-3.86,8.06-7.78,12.68-7.78c0.46,0,0.88,0.21,1.24,0.59c0.76,0.84,1.06,2.42,0.95,3.47
		c-0.06,0.85-3.37,3.96-4.83,3.96c-0.26,0-0.4-0.33-0.4-0.46V32l0.21-0.01c0.46-0.36,2.75-2.85,3.29-3.93
		c-2.53,0.29-9.45,4.58-10.03,6.68c-0.12,0.53,0.63,1.15,1.12,1.56c0.05,0.04,0.09,0.08,0.14,0.12c7.95-4.44,14.38-5.54,15.02-5.54
		c0.18,0,0.42,0.11,0.53,0.31l0.06,0.02l0.01,0.22c0,0.28,0,0.28-2.36,1.06c-3.04,1-8.62,2.84-12.35,4.98
		c0.73,0.69,1.69,1.98,1.54,3C296.53,43.95,289.62,46.6,286.45,46.6z M293.5,38.73c-2.13,1.25-4.64,2.9-6.29,4.22
		C289.44,41.97,292.64,40.08,293.5,38.73z"/>
	<path class="st1" d="M293.3,34.66c-0.2,0.85,1,1.65,1.5,2.1c8-4.5,14.4-5.6,15.05-5.6c0.1,0,0.3,0.1,0.3,0.25
		c0.45,0.15-9.45,2.75-14.9,6c0.65,0.5,1.9,1.95,1.75,3c-0.7,3.25-7.3,5.9-10.55,5.9c-1.1,0-1.65-0.9-1.9-2
		c0.15-2.15,7.5-6.35,9.25-7.05c-0.55-0.7-3.5-2.5-3.05-4.7c0.8-3.8,8-7.55,12.4-7.55c1.4,0,2.05,2.3,1.9,3.75
		c-0.05,0.7-3.2,3.7-4.55,3.7c-0.05,0-0.15-0.2-0.1-0.2c0.15,0,3.5-3.5,3.6-4.5C301.7,27.56,293.95,32.31,293.3,34.66z
		 M285.85,43.76c1.95-0.55,8.15-3.75,8.15-5.65C291,39.81,287.3,42.31,285.85,43.76z"/>
</g>
<g>
	<path class="st2" d="M7.64,51.83c12.05,0,36.45-12.05,36.45-19.6c0-3.1-4.15-4.95-9.05-6.3c-6-1.65-12.8-2.55-12.8-6.95
		c0-8.4,16.15-15.1,23.45-15.35c4.55-0.15,7.6,0.95,7.55,4.8c-0.1,5.95-8.8,12.4-14.1,12.4c-1,0-2.5-0.4-2.5-1.5
		c0-2.05,1.95-4.2,2.95-4.8c-0.75,0.85-1.05,1.9-1.05,2.6c0,0.3,0.3,0.3,0.6,0.3c2.05,0,11.8-5.6,12.45-10.15
		c0.25-1.6-1.1-2.05-3-2.05c-0.55,0-1.2,0.05-1.85,0.1c-6.4,0.7-21.1,8.95-21.1,14.1c0,2.9,4.8,4.15,9.85,5.55
		c5.65,1.55,11.5,3.4,11.5,8.95c0,10.95-24.9,21.65-38.55,21.65c-3.3,0-8.1-0.95-8.1-4.9c0-7.4,22.6-19.35,29.05-19.2
		C16.14,35.08,3.44,46.13,3.44,49.83C3.44,51.78,6.04,51.83,7.64,51.83z"/>
	<path class="st2" d="M55.24,33.68c-0.2,0.85,1,1.65,1.5,2.1c8-4.5,14.4-5.6,15.05-5.6c0.1,0,0.3,0.1,0.3,0.25
		c0.45,0.15-9.45,2.75-14.9,6c0.65,0.5,1.9,1.95,1.75,3c-0.7,3.25-7.3,5.9-10.55,5.9c-1.1,0-1.65-0.9-1.9-2
		c0.15-2.15,7.5-6.35,9.25-7.05c-0.55-0.7-3.5-2.5-3.05-4.7c0.8-3.8,8-7.55,12.4-7.55c1.4,0,2.05,2.3,1.9,3.75
		c-0.05,0.7-3.2,3.7-4.55,3.7c-0.05,0-0.15-0.2-0.1-0.2c0.15,0,3.5-3.5,3.6-4.5C63.64,26.58,55.89,31.33,55.24,33.68z M47.79,42.78
		c1.95-0.55,8.15-3.75,8.15-5.65C52.94,38.83,49.24,41.33,47.79,42.78z"/>
	<path class="st2" d="M77.34,34.98c-1.5,1.5-11.25,9.9-13.35,9.9c-0.1,0-0.35-0.1-0.45-0.15c-0.9-0.45-2.2-2.35-2.2-3.35
		c0-5.45,11.45-16.6,20.65-16.6c1.9,0,4.4,0.8,4.4,3.15c0,0.85-0.45,1.7-0.95,2.35c-0.1,0.05-0.2,0-0.15-0.05
		c0.25-0.45,0.55-1.05,0.55-1.8c0-1.5-0.95-2.25-2.45-2.15c-2.9,0.15-6.55,2.25-9.8,5c-4.75,4.05-8.5,10.35-8.05,10.6
		c0.1,0.05,0.2,0.05,0.35,0c1.65-0.55,8.65-5.6,11.25-7.8c0.9-0.8,4.15-3.95,5.4-4.65c1-0.5,2.7,2.25,2.5,2.85
		c-0.25-0.5-4.75,4.95-6.25,8.15c-0.3,0.7-0.5,1.3-0.5,1.7c3.15-0.9,10.3-7.75,13.4-10.65c0.25-0.25,0.5,0.15,0.35,0.3
		c-4.35,4.75-12.5,13.1-15.5,13.1c-0.25,0-0.5-0.1-0.85-0.3c-0.7-0.4-1.65-1.45-1.65-2.35c0-0.5,0.2-1.1,0.4-1.85
		C75.04,38.53,76.39,36.23,77.34,34.98z"/>
	<path class="st2" d="M107.49,8.78c0.8-0.6,1.45-1,1.85-1c2.85-0.15,4.85,2.75,3.9,2.2c-1.7-0.8-5,3.9-7.1,6.6
		c-3.8,4.75-7.35,10.15-12.9,18.8l0.05,0.1c3.65-1.2,10.85-4.85,13.35-6.95c0.05-0.1,0.1-0.15,0.2-0.15c0.15,0,0.25,0.15,0.25,0.25
		c0,0.05,0,0.1,0,0.1c-1.55,1.5-6.35,4.55-10.5,6.75c-0.95,0.5-2.65,1.35-3.4,1.5c0.35,1,0.7,2.95,0.7,5c0,0.95-0.1,1.95-0.25,2.85
		c-2.75,14.25-15.25,24.15-17.4,24.25h-0.15c-1,0.05-2.2-1.65-2.25-2.5c-0.15-2.8,5.65-15.9,13.8-29.7c-1.35-1.1,0.6-3.75,2.1-3.75
		c4.75-7.6,9.8-14.85,13.65-19.8C104.89,11.38,106.34,9.78,107.49,8.78z M77.64,65.88c5.9-4.4,13.55-12.25,15.25-22.75
		c0.1-0.5,0.15-1.1,0.15-1.75c0-1.6-0.3-3.45-0.95-4.3c-5.75,9.2-12.75,23.15-14.85,28.35c-0.2,0.4-0.2,0.65-0.1,0.65
		C77.24,66.13,77.34,66.08,77.64,65.88z"/>
	<path class="st2" d="M112.14,34.98c-1.5,1.5-11.25,9.9-13.35,9.9c-0.1,0-0.35-0.1-0.45-0.15c-0.9-0.45-2.2-2.35-2.2-3.35
		c0-5.45,11.45-16.6,20.65-16.6c1.9,0,4.4,0.8,4.4,3.15c0,0.85-0.45,1.7-0.95,2.35c-0.1,0.05-0.2,0-0.15-0.05
		c0.25-0.45,0.55-1.05,0.55-1.8c0-1.5-0.95-2.25-2.45-2.15c-2.9,0.15-6.55,2.25-9.8,5c-4.75,4.05-8.5,10.35-8.05,10.6
		c0.1,0.05,0.2,0.05,0.35,0c1.65-0.55,8.65-5.6,11.25-7.8c0.9-0.8,4.15-3.95,5.4-4.65c1-0.5,2.7,2.25,2.5,2.85
		c-0.25-0.5-4.75,4.95-6.25,8.15c-0.3,0.7-0.5,1.3-0.5,1.7c3.15-0.9,10.3-7.75,13.4-10.65c0.25-0.25,0.5,0.15,0.35,0.3
		c-4.35,4.75-12.5,13.1-15.5,13.1c-0.25,0-0.5-0.1-0.85-0.3c-0.7-0.4-1.65-1.45-1.65-2.35c0-0.5,0.2-1.1,0.4-1.85
		C109.84,38.53,111.19,36.23,112.14,34.98z"/>
	<path class="st2" d="M131.19,25.13c0.3-0.2,0.5-0.25,0.7-0.25c1.2,0,3.1,1.95,3.1,3.2c0,0.2-0.15-0.05-0.55-0.1
		c-0.75-0.05-2.5,1.9-4,3.9c-1.35,1.8-3.1,4.15-4.15,6c2.65-3.45,7.65-7.65,11.95-10.75c1.95-1.4,3.45-2.25,4.5-2.35
		c0.55-0.05,2.6,2.1,2.25,2.5c-1.1,1.15-5.25,4.8-6.9,8.7c2.4-0.2,5.85-2.45,8.95-5.2c0.05-0.05,0.35-0.1,0.4,0
		c-0.9,1.2-6.9,6.8-10.35,6.8c-0.9,0-2.4-1.75-2.4-2.35c0-1.4,1.6-4.3,2.9-5.8c-4.6,2.7-6.95,4.7-10.35,8.45
		c-2.55,2.75-5.55,7.15-4.45,7.65c-1.45,0.35-2.65-1.2-3-2.6c-0.1-0.45,0.15-1.4,0.75-2.55c1.25-2.85,3.5-6.3,5.5-9.15
		C127.79,28.68,129.94,26.13,131.19,25.13z"/>
	<path class="st2" d="M142.19,44.83c-0.8-0.25-2.05-1.5-2.05-2.4c0-2.9,7.25-13.8,10.45-16.35c0.25-0.25,0.55-0.3,0.75-0.3
		c1.15,0,3.15,2,3.15,3.25c0,0.2-0.25-0.05-0.65-0.1c-2.05-0.2-8.9,11.2-9.5,13.25c3.05-0.8,10.35-7.75,13.4-10.7
		c0.35-0.25,0.6,0.15,0.45,0.3c-4.35,4.7-12.3,12.85-15.4,13.1C142.59,44.88,142.44,44.88,142.19,44.83z M158.89,19.73
		c0.45,0.5,0.75,1.25,0.55,1.25c-0.1,0-0.5-0.2-1.05,0.05c-0.85,0.35-3.15,2.4-3.75,3.25c-0.7,0.9-1.75-0.15-1.8-1.05
		c-0.05-1.45,1.85-4.7,3.15-5.1C157.14,17.98,158.24,18.98,158.89,19.73z"/>
	<path class="st2" d="M170.34,42.73c4.6-0.5,13-7.25,17.85-11.2c0.15-0.1,0.5,0.1,0.35,0.25c-4.3,4.05-13.95,13.1-20.15,13.1
		c-1.6,0-3.4-1.5-3.65-3.1c-0.05-0.4-0.05-0.9,0.1-1.5c0.4-2.1,2.2-5.6,5.55-8.85c4.1-4.05,9.15-6.65,12.7-6.65
		c1.15,0,2.85,1.7,2.85,2.45c0,1.9-2.45,3.75-4.1,5c-0.1,0.1-0.35,0-0.25-0.15c0.8-0.8,2.85-4.75,2.45-5.1
		c-5.35,0.1-15.15,11.4-15.15,14.9C168.89,42.68,169.89,42.78,170.34,42.73z"/>
	<path class="st2" d="M197.09,34.98c-1.5,1.5-11.25,9.9-13.35,9.9c-0.1,0-0.35-0.1-0.45-0.15c-0.9-0.45-2.2-2.35-2.2-3.35
		c0-5.45,11.45-16.6,20.65-16.6c1.9,0,4.4,0.8,4.4,3.15c0,0.85-0.45,1.7-0.95,2.35c-0.1,0.05-0.2,0-0.15-0.05
		c0.25-0.45,0.55-1.05,0.55-1.8c0-1.5-0.95-2.25-2.45-2.15c-2.9,0.15-6.55,2.25-9.8,5c-4.75,4.05-8.5,10.35-8.05,10.6
		c0.1,0.05,0.2,0.05,0.35,0c1.65-0.55,8.65-5.6,11.25-7.8c0.9-0.8,4.15-3.95,5.4-4.65c1-0.5,2.7,2.25,2.5,2.85
		c-0.25-0.5-4.75,4.95-6.25,8.15c-0.3,0.7-0.5,1.3-0.5,1.7c3.15-0.9,10.3-7.75,13.4-10.65c0.25-0.25,0.5,0.15,0.35,0.3
		c-4.35,4.75-12.5,13.1-15.5,13.1c-0.25,0-0.5-0.1-0.85-0.3c-0.7-0.4-1.65-1.45-1.65-2.35c0-0.5,0.2-1.1,0.4-1.85
		C194.79,38.53,196.14,36.23,197.09,34.98z"/>
	<path class="st2" d="M226.99,42.03c0-2.85,5.45-11.2,8.05-13.6c-9.1,6.3-14.3,14.95-15.7,14.95c-0.7,0-2.3-1.6-2.3-2.6
		c0-1.9,3.85-9.1,7.2-12.15c-5.05,3.05-9.7,7.75-13.35,11.85c-0.85,0.95-1.4,1.6-1.75,2.05c-1.4,1.65-1.65,2.65-0.9,3
		c-1.5,0.35-2.8-1.2-3.2-2.6c-0.1-0.35,0.1-1.7,1.4-4c2.15-4.05,5.15-8.65,7.9-11.9c0.7-0.85,1.4-1.55,1.95-2
		c0.2-0.2,0.5-0.25,0.65-0.25c1.25,0,3.15,1.95,3.15,3.2c0,0.2-0.2-0.05-0.6-0.1c-0.35-0.05-1.05,0.45-1.7,1.25
		c-2.15,2.45-6.55,9-7.7,10.95c3.2-4.25,14-14,16.1-14.45c0.1-0.05,0.2-0.05,0.3-0.05c1,0,2.65,2.5,2.15,3
		c-2.55,2.7-7.05,9.9-7.05,11.65c4.7-5.95,14.2-15.2,16.3-15.2c1.1,0,2.75,2.7,2.1,3.25c-1.25,1-9.05,11.85-9.05,14.05
		c3.25-0.75,10.55-7.8,13.75-10.85c0.35-0.25,0.6,0.15,0.45,0.3c-4.35,4.75-12.6,13.1-15.55,13.1
		C228.44,44.88,226.99,42.98,226.99,42.03z"/>
	<path class="st2" d="M249.59,25.03c0.3-0.25,0.6-0.3,0.75-0.3c1.15,0,3.05,1.95,3.05,3.25c0,0.15-0.15-0.05-0.5-0.1
		c-0.75-0.1-2.5,1.95-4.1,4c-0.65,0.8-2.8,3.9-2.8,3.9c4.35-4.75,13.7-11.55,16.2-10.7c0.65,0.25,2.4,2.15,2.4,2.9
		c0,4.5-9.8,16.5-16.65,16.5c-1.95,0-4.25-1.25-4.25-2.9c0-0.25,0.25-0.35,0.25-0.2c0,0.5,0.85,1.45,1.9,1.45
		c5.05,0,14.05-12.95,14.65-15.75c-0.75,0-8.8,4-17.5,13.15c-4.85,6.95-11.9,17.6-13.15,25c-0.25,1.25-0.25,2.25,0.9,2.4
		c-2.3,0.9-4.55-0.95-4.15-4c1.05-8.4,11.05-24.05,18.65-33.8C246.59,28.13,248.59,25.83,249.59,25.03z"/>
	<path class="st2" d="M278.14,31.83c-5.05,5.15-11.75,12.35-14.75,12.95c-0.1,0-0.4,0-0.4,0c-0.8,0-2.35-1.35-2.35-2.55
		c0-2.15,2.75-7.2,5.6-11.15c1.75-2.45,3.85-4.85,5.1-5.85c0.25-0.25,0.55-0.3,0.7-0.3c1.2,0,3.15,1.95,3.15,3.25
		c0,0.2-0.2-0.05-0.65-0.1c-0.75-0.1-2.85,2.5-4.55,4.7c-2.55,3.35-5.05,7.7-5.05,9.15c2.4-1,7.5-5.5,9.9-7.8
		c2.6-2.55,6.3-6.9,9.15-9.1c0.25-0.2,0.5-0.25,0.7-0.25c1.2,0,3.1,1.95,3.1,3.2c0,0.2-0.15-0.05-0.6-0.1c-0.35,0-1,0.45-1.65,1.15
		c-0.75,0.8-2.15,2.6-3.8,4.8c-2.5,3.35-4.35,6.9-4.35,8.3c3.15-0.95,10.25-7.75,13.3-10.65c0.3-0.25,0.55,0.15,0.4,0.3
		c-4.35,4.75-12.5,13.1-15.5,13.1c-0.25,0-0.55-0.1-0.8-0.3c-0.8-0.4-1.8-1.55-1.8-2.45c0-0.5,0.3-1.4,0.55-2.15
		C274.39,37.68,276.29,34.13,278.14,31.83z"/>
	<path class="st2" d="M292.09,33.68c-0.2,0.85,1,1.65,1.5,2.1c8-4.5,14.4-5.6,15.05-5.6c0.1,0,0.3,0.1,0.3,0.25
		c0.45,0.15-9.45,2.75-14.9,6c0.65,0.5,1.9,1.95,1.75,3c-0.7,3.25-7.3,5.9-10.55,5.9c-1.1,0-1.65-0.9-1.9-2
		c0.15-2.15,7.5-6.35,9.25-7.05c-0.55-0.7-3.5-2.5-3.05-4.7c0.8-3.8,8-7.55,12.4-7.55c1.4,0,2.05,2.3,1.9,3.75
		c-0.05,0.7-3.2,3.7-4.55,3.7c-0.05,0-0.15-0.2-0.1-0.2c0.15,0,3.5-3.5,3.6-4.5C300.49,26.58,292.74,31.33,292.09,33.68z
		 M284.64,42.78c1.95-0.55,8.15-3.75,8.15-5.65C289.79,38.83,286.09,41.33,284.64,42.78z"/>
</g>
<g>
	<g>
		<path class="st3" d="M34.13,35.44c3.22,0,3.22-5,0-5C30.91,30.44,30.91,35.44,34.13,35.44L34.13,35.44z"/>
	</g>
</g>
<g>
	<g>
		<path class="st3" d="M33.96,35.78c3.22,0,3.22-5,0-5C30.74,30.78,30.73,35.78,33.96,35.78L33.96,35.78z"/>
	</g>
</g>
<g>
	<g>
		<path class="st3" d="M33.62,35.78c3.22,0,3.22-5,0-5C30.4,30.78,30.39,35.78,33.62,35.78L33.62,35.78z"/>
	</g>
</g>
<g>
	<g>
		<path class="st3" d="M42.3,12.88c-0.17,0.07-0.35,0.15-0.52,0.22c-0.02,0.01-0.03,0.02-0.05,0.03c-0.18,0.12-0.2,0.14-0.31,0.28
			c-0.12,0.16-0.11,0.15-0.2,0.37c-0.01,0.02-0.01,0.04-0.02,0.06c-0.01,0.02-0.01,0.04-0.02,0.06c0,0.01,0,0.02-0.01,0.03
			c-0.02,0.09-0.03,0.19-0.04,0.28c-0.01,0.1,0.03,0.28,0.04,0.31c0.02,0.1,0.08,0.2,0.12,0.29c0.06,0.12,0.15,0.21,0.26,0.28
			c0.1,0.09,0.21,0.15,0.34,0.18c0.13,0.04,0.27,0.05,0.4,0.02c0.13-0.01,0.26-0.05,0.37-0.12c0.07-0.05,0.13-0.1,0.2-0.16
			c0.12-0.12,0.21-0.27,0.26-0.44c0.01-0.09,0.02-0.18,0.04-0.27c0-0.18-0.05-0.35-0.14-0.5c0,0,0-0.01,0-0.01
			c0.03,0.08,0.07,0.16,0.1,0.24c0-0.01-0.01-0.03-0.01-0.04c0.01,0.09,0.02,0.18,0.04,0.27c0-0.02,0-0.04,0-0.07
			c-0.01,0.09-0.02,0.18-0.04,0.27c0.01-0.05,0.03-0.1,0.05-0.15c-0.03,0.08-0.07,0.16-0.1,0.24c0.01-0.01,0.01-0.02,0.02-0.03
			c-0.05,0.07-0.1,0.13-0.16,0.2c0.01-0.01,0.01-0.01,0.02-0.02c-0.07,0.05-0.13,0.1-0.2,0.16c0.04-0.03,0.09-0.04,0.13-0.06
			c0.05-0.02,0.1-0.04,0.15-0.06c0.1-0.04,0.2-0.08,0.3-0.13c0.12-0.06,0.21-0.15,0.28-0.26c0.09-0.1,0.15-0.21,0.18-0.34
			c0.04-0.13,0.05-0.27,0.02-0.4c-0.01-0.13-0.05-0.26-0.12-0.37c-0.05-0.07-0.1-0.13-0.16-0.2c-0.12-0.12-0.27-0.21-0.44-0.26
			c-0.09-0.01-0.18-0.02-0.27-0.04C42.63,12.74,42.46,12.79,42.3,12.88L42.3,12.88z"/>
	</g>
</g>
<g>
	<g>
		<path class="st3" d="M32.14,33.68c1.29,0,1.29-2,0-2C30.85,31.68,30.85,33.68,32.14,33.68L32.14,33.68z"/>
	</g>
</g>
<g>
	<g>
		<path class="st3" d="M32.12,33.9c1.29,0,1.29-2,0-2C30.84,31.9,30.83,33.9,32.12,33.9L32.12,33.9z"/>
	</g>
</g>
<g>
	<g>
		<path class="st3" d="M32.12,34.08c1.29,0,1.29-2,0-2C30.84,32.08,30.83,34.08,32.12,34.08L32.12,34.08z"/>
	</g>
</g>
<g>
	<g>
		<path class="st3" d="M32.63,34.07c0.01-0.01,0.02-0.01,0.03-0.02c0.12-0.06,0.21-0.15,0.28-0.26c0.09-0.1,0.15-0.21,0.18-0.34
			c0.04-0.13,0.05-0.27,0.02-0.4c-0.01-0.13-0.05-0.26-0.12-0.37c-0.05-0.07-0.1-0.13-0.16-0.2c-0.12-0.12-0.27-0.21-0.44-0.26
			c-0.09-0.01-0.18-0.02-0.27-0.04c-0.18,0-0.35,0.05-0.5,0.14c-0.01,0.01-0.02,0.01-0.03,0.02c-0.12,0.06-0.21,0.15-0.28,0.26
			c-0.09,0.1-0.15,0.21-0.18,0.34c-0.04,0.13-0.05,0.27-0.02,0.4c0.01,0.13,0.05,0.26,0.12,0.37c0.05,0.07,0.1,0.13,0.16,0.2
			c0.12,0.12,0.27,0.21,0.44,0.26c0.09,0.01,0.18,0.02,0.27,0.04C32.3,34.21,32.47,34.16,32.63,34.07L32.63,34.07z"/>
	</g>
</g>
<g>
	<g>
		<path class="st3" d="M32.54,31.11c-0.96,0.36-1.8,0.96-2.7,1.45c-0.9,0.49-1.83,0.91-2.76,1.34c-1.87,0.89-3.43,2.07-4.97,3.45
			c-0.72,0.64,0.04,2.02,0.97,1.67c0.8-0.3,1.58-0.64,2.34-1.03c1.15-0.59,0.14-2.31-1.01-1.73c-0.61,0.31-1.23,0.59-1.86,0.83
			c0.32,0.56,0.65,1.11,0.97,1.67c0.69-0.62,1.39-1.25,2.15-1.78c0.76-0.53,1.58-0.96,2.42-1.35c0.84-0.4,1.69-0.78,2.52-1.21
			c0.81-0.43,1.6-1.05,2.46-1.37c0.51-0.19,0.85-0.68,0.7-1.23C33.64,31.32,33.05,30.92,32.54,31.11L32.54,31.11z"/>
	</g>
</g>
<g>
	<g>
		<path class="st3" d="M25.36,35.06c-0.8,0.35-1.53,0.84-2.26,1.33c-0.75,0.5-1.55,0.94-2.31,1.43c0.34,0.58,0.67,1.15,1.01,1.73
			c0.15-0.1,0.3-0.21,0.46-0.31c0.43-0.29,0.67-0.89,0.36-1.37c-0.28-0.43-0.91-0.67-1.37-0.36c-0.15,0.1-0.3,0.21-0.46,0.31
			c-0.43,0.29-0.67,0.89-0.36,1.37c0.28,0.44,0.9,0.66,1.37,0.36c0.76-0.49,1.56-0.93,2.31-1.43c0.73-0.49,1.45-0.98,2.26-1.33
			c0.48-0.21,0.63-0.95,0.36-1.37C26.4,34.92,25.87,34.84,25.36,35.06L25.36,35.06z"/>
	</g>
</g>
<g>
	<g>
		<path class="st3" d="M25.66,34.68c-1.62,0.83-3.14,1.83-4.57,2.96c-0.19,0.15-0.29,0.48-0.29,0.71c0,0.25,0.11,0.54,0.29,0.71
			c0.44,0.4,0.97,0.35,1.41,0c0.03-0.03,0.31-0.25,0.11-0.09c0.08-0.07,0.17-0.13,0.25-0.19c0.17-0.13,0.34-0.25,0.52-0.38
			c0.35-0.25,0.7-0.49,1.06-0.71c0.72-0.46,1.46-0.88,2.22-1.27c0.47-0.24,0.64-0.93,0.36-1.37C26.72,34.56,26.16,34.42,25.66,34.68
			L25.66,34.68z"/>
	</g>
</g>
<g>
	<g>
		<path class="st3" d="M23.87,36.2c-1.42,0.64-2.77,1.43-4.01,2.37c-0.22,0.16-0.38,0.33-0.46,0.6c-0.07,0.24-0.04,0.56,0.1,0.77
			c0.27,0.41,0.92,0.7,1.37,0.36c1.24-0.94,2.59-1.74,4.01-2.37c0.48-0.21,0.63-0.95,0.36-1.37C24.92,36.06,24.39,35.97,23.87,36.2
			L23.87,36.2z"/>
	</g>
</g>
<g>
	<g>
		<path class="st3" d="M24.25,35.71c-2.38,1.22-4.21,3.28-6.66,4.38c-0.25,0.11-0.3,0.47-0.18,0.68c0.14,0.25,0.44,0.29,0.68,0.18
			c2.44-1.11,4.28-3.16,6.66-4.38C25.33,36.28,24.83,35.42,24.25,35.71L24.25,35.71z"/>
	</g>
</g>
<g>
	<g>
		<path class="st3" d="M20.04,40.12c0.71-0.49,1.41-0.98,2.12-1.47c0.21-0.15,0.33-0.44,0.18-0.68c-0.14-0.21-0.45-0.34-0.68-0.18
			c-0.71,0.49-1.41,0.98-2.12,1.47c-0.21,0.15-0.33,0.44-0.18,0.68C19.49,40.15,19.81,40.28,20.04,40.12L20.04,40.12z"/>
	</g>
</g>
<g>
	<g>
		<path class="st3" d="M21.05,38.97C21.01,39.02,21.01,39.02,21.05,38.97c0.02-0.01,0.03-0.03,0.05-0.05
			c0.04-0.04,0.08-0.07,0.12-0.11c0.02-0.02,0.04-0.03,0.05-0.05c0.01,0,0.09-0.07,0.03-0.03c-0.06,0.04,0.01,0,0.02-0.01
			c0.02-0.02,0.05-0.03,0.07-0.05c0.17-0.12,0.34-0.23,0.52-0.34c0.38-0.23,0.75-0.47,1.08-0.77c0.18-0.17,0.18-0.47,0.04-0.66
			c-0.16-0.2-0.42-0.24-0.65-0.13c-0.67,0.34-1.3,0.77-1.86,1.26c-0.2,0.17-0.19,0.53,0,0.71c0.21,0.19,0.5,0.18,0.71,0
			c0.07-0.06,0.14-0.12,0.21-0.18c0.03-0.03,0.07-0.05,0.1-0.08c0.02-0.01,0.04-0.03,0.06-0.04c-0.05,0.04-0.06,0.05-0.02,0.01
			c0.13-0.1,0.27-0.2,0.41-0.29c0.29-0.19,0.59-0.37,0.9-0.53c-0.2-0.26-0.4-0.52-0.61-0.79c-0.04,0.03-0.08,0.07-0.12,0.1
			c-0.02,0.02-0.04,0.04-0.07,0.05c-0.05,0.04-0.01,0,0.02-0.02c-0.05,0.02-0.1,0.07-0.14,0.1c-0.04,0.03-0.08,0.06-0.13,0.09
			c-0.18,0.12-0.36,0.23-0.54,0.34c-0.42,0.26-0.83,0.54-1.13,0.94c-0.07,0.1-0.08,0.27-0.05,0.39c0.03,0.12,0.12,0.24,0.23,0.3
			C20.63,39.29,20.88,39.2,21.05,38.97L21.05,38.97z"/>
	</g>
</g>
<g>
	<g>
		<path class="st3" d="M20.44,39.85c1.44-0.72,2.88-1.44,4.32-2.15c0.24-0.12,0.31-0.46,0.18-0.68c-0.14-0.25-0.44-0.3-0.68-0.18
			c-1.44,0.72-2.88,1.44-4.32,2.15c-0.24,0.12-0.31,0.46-0.18,0.68C19.9,39.92,20.2,39.97,20.44,39.85L20.44,39.85z"/>
	</g>
</g>
<g>
	<g>
		<path class="st3" d="M24.43,36.42c-0.21,0.19-0.41,0.33-0.68,0.5c-0.27,0.17-0.54,0.33-0.8,0.5c-0.55,0.36-1.06,0.76-1.54,1.2
			c-0.19,0.18-0.19,0.53,0,0.71c0.21,0.19,0.5,0.19,0.71,0c0.47-0.44,0.89-0.76,1.43-1.11c0.55-0.35,1.11-0.67,1.6-1.1
			c0.2-0.17,0.19-0.53,0-0.71C24.93,36.23,24.64,36.23,24.43,36.42L24.43,36.42z"/>
	</g>
</g>
<g>
	<g>
		<path class="st3" d="M23.4,36.09c-1.44,0.84-2.79,1.8-4.15,2.76c-0.22,0.16-0.32,0.44-0.18,0.68c0.13,0.22,0.46,0.34,0.68,0.18
			c1.35-0.96,2.71-1.93,4.15-2.76C24.46,36.63,23.96,35.76,23.4,36.09L23.4,36.09z"/>
	</g>
</g>
<g>
	<g>
		<path class="st3" d="M20.63,38.89c0.86-0.36,1.58-0.99,2.43-1.38c-0.17-0.29-0.34-0.58-0.5-0.86c-0.63,0.34-1.25,0.67-1.85,1.07
			c-0.54,0.36-0.07,1.15,0.5,0.86c0.78-0.39,1.53-0.81,2.27-1.26c0.47-0.29,0.17-1.07-0.39-0.91c-0.3,0.09-0.59,0.21-0.86,0.38
			c0.2,0.26,0.4,0.52,0.61,0.79c0.11-0.11,0.23-0.22,0.34-0.33c0.41-0.39-0.12-1.08-0.61-0.79c-1.02,0.62-2.04,1.26-2.9,2.1
			c-0.18,0.17-0.19,0.47-0.04,0.66c0.14,0.18,0.44,0.28,0.65,0.13c0.38-0.28,0.74-0.57,1.09-0.88c0.43-0.38-0.12-1.07-0.61-0.79
			c-0.08,0.05-0.16,0.09-0.24,0.14c-0.56,0.32-0.07,1.16,0.5,0.86c1.34-0.69,2.48-1.82,3.95-2.26c0.62-0.18,0.35-1.15-0.27-0.96
			c-1.57,0.46-2.76,1.62-4.19,2.36c0.17,0.29,0.34,0.58,0.5,0.86c0.08-0.05,0.16-0.09,0.24-0.14c-0.2-0.26-0.4-0.52-0.61-0.79
			c-0.29,0.25-0.58,0.5-0.89,0.73c0.2,0.26,0.4,0.52,0.61,0.79c0.8-0.78,1.75-1.36,2.7-1.94c-0.2-0.26-0.4-0.52-0.61-0.79
			c-0.11,0.11-0.23,0.22-0.34,0.33c-0.41,0.39,0.12,1.08,0.61,0.79c0.2-0.12,0.4-0.21,0.62-0.28c-0.13-0.3-0.26-0.61-0.39-0.91
			c-0.74,0.46-1.5,0.88-2.27,1.26c0.17,0.29,0.34,0.58,0.5,0.86c0.59-0.39,1.22-0.73,1.85-1.07c0.24-0.13,0.31-0.46,0.18-0.68
			c-0.15-0.25-0.44-0.29-0.68-0.18c-0.85,0.39-1.57,1.01-2.43,1.38c-0.25,0.11-0.3,0.47-0.18,0.68
			C20.09,38.96,20.38,38.99,20.63,38.89L20.63,38.89z"/>
	</g>
</g>
<g>
	<g>
		<path class="st3" d="M40.52,14.22c-0.08,0.06-0.15,0.11-0.23,0.17c-0.21,0.15-0.34,0.44-0.18,0.68c0.16,0.25,0.43,0.29,0.68,0.18
			c-0.09,0.04,0.06-0.02,0.08-0.02c0.02-0.01,0.05-0.01,0.07-0.02c-0.06,0.01-0.05,0.01,0.01,0c-0.14-0.25-0.29-0.5-0.43-0.75
			c-0.02,0.03-0.04,0.05-0.05,0.08c0.03-0.04,0.03-0.04-0.01,0.01c-0.04,0.04-0.08,0.09-0.13,0.13c-0.15,0.15-0.2,0.42-0.08,0.61
			c0.13,0.2,0.34,0.27,0.56,0.23c0.11-0.02,0.22-0.04,0.34-0.05c-0.16-0.28-0.32-0.56-0.49-0.84c-0.02,0.03-0.05,0.05-0.07,0.08
			c-0.04,0.05,0.08-0.05-0.01,0.01c-0.41,0.27-0.26,0.92,0.25,0.93c0.14,0,0.28,0.01,0.42,0.01c-0.14-0.25-0.29-0.5-0.43-0.75
			c0.06-0.09-0.02,0.01-0.03,0.03c0.01-0.01,0.02-0.02,0.04-0.02c-0.02,0.02-0.05,0.03-0.07,0.05c-0.18,0.11-0.3,0.35-0.23,0.56
			c0.06,0.2,0.26,0.39,0.48,0.37c0.27-0.02,0.54-0.04,0.81-0.04c-0.08-0.31-0.17-0.62-0.25-0.93c-0.07,0.05-0.15,0.09-0.22,0.14
			c-0.48,0.29-0.17,1.06,0.39,0.91c0.06-0.01,0.06-0.02,0-0.01c0.03,0,0.06,0,0.09,0c-0.08-0.31-0.17-0.62-0.25-0.93
			c-0.1,0.07-0.2,0.13-0.31,0.19c-0.19,0.09-0.29,0.37-0.23,0.56c0.07,0.22,0.25,0.35,0.48,0.37c0.08,0.01,0.16-0.01,0.25-0.02
			c-0.13-0.3-0.26-0.61-0.39-0.91c-0.2,0.14-0.39,0.3-0.57,0.46c-0.38,0.33,0.02,0.98,0.49,0.84c0.05-0.01,0.09-0.03,0.14-0.04
			c-0.16-0.28-0.32-0.56-0.49-0.84c0.06-0.04,0.06-0.04,0.01-0.01c0.02-0.01,0.03-0.02,0.05-0.02c-0.01,0.02-0.11,0.03-0.13,0.03
			c-0.05,0.01-0.1,0.02-0.14,0.02c-0.02,0-0.05,0.01-0.07,0.01c-0.1,0.01-0.07,0.02,0.11,0.01c0.1,0.08,0.2,0.15,0.3,0.23
			c0-0.01-0.01-0.02-0.01-0.03c0.02,0.08,0.05,0.17,0.07,0.25c0,0.11,0,0.01,0.01-0.03c0.01-0.04,0.02-0.08,0.03-0.13
			c0.03-0.19,0.02-0.32-0.06-0.5c-0.07-0.16-0.27-0.24-0.43-0.25c-0.16,0-0.31,0.07-0.47,0.09c0.09,0,0.18,0,0.27,0
			c-0.01,0-0.02-0.01-0.02-0.01c0.1,0.08,0.2,0.15,0.3,0.23c0.04,0.19,0.06,0.23,0.06,0.12c0-0.03,0.01-0.06,0.01-0.09
			c0.01-0.09,0-0.18-0.02-0.27c-0.01-0.06-0.03-0.11-0.05-0.16c-0.01-0.03-0.02-0.05-0.03-0.08c0.01,0.07,0.01,0.07,0.01,0.01
			c0.04-0.37-0.46-0.64-0.75-0.43c-0.29,0.21-0.51,0.46-0.74,0.73c-0.14,0.17-0.31,0.33-0.37,0.55c-0.09,0.29,0.02,0.59,0.28,0.75
			c0.36,0.22,0.8,0.1,1.18,0.04c0.09-0.01,0.19-0.03,0.28-0.04c0.04-0.01,0.09-0.01,0.13-0.02c0.04-0.01,0.03-0.01,0,0
			c0.02,0,0.03,0,0.05-0.01c0.02,0,0.14,0,0.16-0.01c-0.08-0.03-0.17-0.07-0.25-0.1c0.03,0.03,0.07,0.05,0.1,0.08
			c0.14,0.09,0.3,0.11,0.46,0.07c-0.13-0.3-0.26-0.61-0.39-0.91c-0.06,0.04-0.13,0.08-0.2,0.12c-0.01,0-0.14,0.06-0.05,0.02
			c-0.03,0.01-0.06,0.02-0.09,0.03c-0.15,0.05-0.31,0.09-0.47,0.13c-0.35,0.08-0.7,0.17-1.05,0.25c0.21,0.16,0.42,0.32,0.63,0.48
			c0-0.06,0-0.12,0-0.18c0-0.05,0-0.05,0,0c0.01-0.04,0.01-0.07,0.02-0.11c0.01-0.03,0.02-0.06,0.02-0.09c0-0.01,0.03-0.1,0.01-0.05
			c-0.02,0.05,0.02-0.04,0.02-0.04c0.02-0.03,0.04-0.07,0.06-0.1c0.13-0.22,0.06-0.56-0.18-0.68c-0.24-0.13-0.54-0.06-0.68,0.18
			c-0.19,0.32-0.29,0.7-0.27,1.08c0.02,0.33,0.3,0.56,0.63,0.48c0.36-0.09,0.73-0.17,1.09-0.26c0.35-0.09,0.69-0.2,0.99-0.39
			c0.21-0.14,0.3-0.39,0.2-0.62c-0.1-0.23-0.34-0.35-0.59-0.29c-0.01,0-0.02,0-0.02,0.01c0.09,0,0.18,0,0.27,0
			c0.18,0.11,0.2,0.11,0.05,0.01c-0.05-0.03-0.09-0.05-0.15-0.07c-0.08-0.02-0.16-0.03-0.24-0.02c-0.17,0-0.33,0.04-0.49,0.06
			c-0.14,0.02-0.27,0.04-0.41,0.06c-0.07,0.01-0.14,0.02-0.2,0.03c-0.06,0.01-0.06,0.01,0,0c-0.02,0-0.05,0-0.07,0.01
			c-0.03,0-0.18,0.02-0.07,0c-0.19-0.07-0.13,0.07,0.19,0.41c0,0.03-0.02,0.06-0.04,0.07c-0.01-0.02,0.23-0.28,0.26-0.31
			c0.08-0.09,0.15-0.19,0.24-0.27c0.04-0.04,0.08-0.09,0.13-0.13c0.02-0.02,0.04-0.04,0.07-0.06c-0.04,0.03-0.04,0.03,0.01,0
			c-0.25-0.14-0.5-0.29-0.75-0.43c-0.02,0.14,0.03,0.29,0.08,0.42c0.02,0.05,0.01,0.04,0.01-0.01c0,0.03,0,0.06,0,0.09
			c-0.01,0.09-0.01,0.16,0,0.25c0.03,0.25,0.21,0.44,0.46,0.47c0.1,0.01,0.2-0.01,0.3-0.03c0.03-0.01,0.06-0.02,0.09-0.02
			c0.04-0.01,0.12-0.01,0.01-0.01c-0.14-0.08-0.29-0.17-0.43-0.25c0,0.01,0.01,0.02,0.01,0.03c-0.02-0.08-0.05-0.17-0.07-0.25
			c0,0.05,0,0.04,0.01,0c-0.01,0.04-0.02,0.07-0.03,0.11c-0.02,0.09-0.04,0.18-0.04,0.27c0.02,0.3,0.26,0.55,0.57,0.53
			c0.33-0.02,0.71-0.09,0.96-0.32c0.36-0.34-0.01-0.99-0.49-0.84c-0.05,0.01-0.09,0.03-0.14,0.04c0.16,0.28,0.32,0.56,0.49,0.84
			c0.07-0.06,0.14-0.12,0.2-0.18c0.04-0.03,0.07-0.06,0.11-0.09c-0.06,0.05,0.04-0.03,0.05-0.04c0.21-0.14,0.31-0.39,0.2-0.62
			c-0.1-0.24-0.34-0.34-0.59-0.29c0.07-0.01,0.08-0.01,0.02-0.01c0.08,0.31,0.17,0.62,0.25,0.93c0.11-0.05,0.21-0.11,0.31-0.19
			c0.17-0.13,0.3-0.34,0.23-0.56c-0.07-0.21-0.25-0.36-0.48-0.37c-0.12,0-0.24,0.01-0.35,0.04c0.13,0.3,0.26,0.61,0.39,0.91
			c0.07-0.05,0.15-0.09,0.22-0.14c0.42-0.25,0.25-0.94-0.25-0.93c-0.27,0-0.54,0.02-0.81,0.04c0.08,0.31,0.17,0.62,0.25,0.93
			c0.18-0.11,0.31-0.24,0.43-0.41c0.23-0.32-0.08-0.74-0.43-0.75c-0.14,0-0.28-0.01-0.42-0.01c0.08,0.31,0.17,0.62,0.25,0.93
			c0.11-0.07,0.21-0.15,0.29-0.25c0.14-0.17,0.21-0.41,0.08-0.61c-0.13-0.2-0.34-0.27-0.56-0.23c-0.11,0.02-0.22,0.04-0.34,0.05
			c0.16,0.28,0.32,0.56,0.49,0.84c0.13-0.13,0.24-0.27,0.35-0.42c0.21-0.3-0.07-0.78-0.43-0.75c-0.24,0.02-0.44,0.07-0.66,0.17
			c0.17,0.29,0.34,0.58,0.5,0.86c0.08-0.06,0.15-0.11,0.23-0.17c0.21-0.15,0.34-0.44,0.18-0.68C41.06,14.19,40.74,14.06,40.52,14.22
			L40.52,14.22z"/>
	</g>
</g>
<g>
	<g>
		<path class="st3" d="M40.52,16.02c0,0.01,0,0.01-0.01,0.02c0.02-0.04,0.03-0.08,0.05-0.12c-0.01,0.02-0.02,0.04-0.03,0.05
			c0.03-0.03,0.05-0.07,0.08-0.1c-0.01,0.01-0.02,0.03-0.04,0.04c0.03-0.03,0.07-0.05,0.1-0.08c0,0-0.01,0.01-0.02,0.01
			c-0.06,0.03-0.11,0.07-0.14,0.13c-0.04,0.05-0.07,0.1-0.09,0.17c-0.02,0.07-0.02,0.13-0.01,0.2c0,0.07,0.02,0.13,0.06,0.19
			c0.03,0.03,0.05,0.07,0.08,0.1c0.06,0.06,0.14,0.1,0.22,0.13c0.04,0.01,0.09,0.01,0.13,0.02c0.09,0,0.17-0.02,0.25-0.07
			c0.05-0.03,0.09-0.06,0.13-0.1c0.04-0.04,0.08-0.09,0.1-0.13c0.01-0.01,0.02-0.02,0.02-0.03c0.03-0.05,0.05-0.1,0.07-0.16
			c0.02-0.07,0.02-0.13,0.01-0.2c0-0.07-0.02-0.13-0.06-0.19c-0.03-0.06-0.07-0.11-0.13-0.14c-0.05-0.04-0.1-0.07-0.17-0.09
			c-0.04-0.01-0.09-0.01-0.13-0.02c-0.09,0-0.17,0.02-0.25,0.07c-0.03,0.03-0.07,0.05-0.1,0.08C40.59,15.86,40.55,15.93,40.52,16.02
			L40.52,16.02z"/>
	</g>
</g>
<g>
	<g>
		<path class="st3" d="M40.74,15.87c-0.07,0.04-0.15,0.08-0.23,0.11c-0.04,0.02-0.08,0.03-0.12,0.05c-0.12,0.05,0.06-0.03-0.03,0.01
			c-0.15,0.06-0.3,0.12-0.46,0.18c-0.15,0.05-0.31,0.1-0.47,0.13c-0.08,0.02-0.17,0.03-0.25,0.05c-0.11,0.02,0.11,0-0.01,0
			c-0.04,0-0.08,0-0.13,0.01c-0.14,0.02-0.25,0.04-0.35,0.15c-0.09,0.09-0.15,0.23-0.15,0.35c0.01,0.24,0.22,0.53,0.5,0.5
			c0.21-0.03,0.41-0.04,0.61-0.09c0.17-0.04,0.34-0.08,0.51-0.14c0.17-0.06,0.33-0.12,0.49-0.19c0.19-0.08,0.39-0.16,0.58-0.26
			c0.23-0.13,0.32-0.46,0.18-0.68C41.27,15.82,40.98,15.74,40.74,15.87L40.74,15.87z"/>
	</g>
</g>
<g>
	<g>
		<path class="st3" d="M39.07,17.3c0.64,0,0.64-1,0-1C38.43,16.3,38.43,17.3,39.07,17.3L39.07,17.3z"/>
	</g>
</g>
<g>
	<g>
		<path class="st3" d="M39.1,17.18c0.64,0,0.64-1,0-1C38.46,16.18,38.46,17.18,39.1,17.18L39.1,17.18z"/>
	</g>
</g>
<g>
	<g>
		<path class="st3" d="M39.09,17.15c0.64,0,0.64-1,0-1C38.44,16.15,38.44,17.15,39.09,17.15L39.09,17.15z"/>
	</g>
</g>
<g>
	<g>
		<path class="st3" d="M39.09,17.16c0.64,0,0.64-1,0-1C38.44,16.16,38.44,17.16,39.09,17.16L39.09,17.16z"/>
	</g>
</g>
<g>
	<g>
		<path class="st3" d="M39.07,17.28c0.64,0,0.64-1,0-1C38.43,16.28,38.43,17.28,39.07,17.28L39.07,17.28z"/>
	</g>
</g>
<g>
	<g>
		<path class="st3" d="M39.07,17.28c0.64,0,0.64-1,0-1C38.43,16.28,38.43,17.28,39.07,17.28L39.07,17.28z"/>
	</g>
</g>
</svg>
