<?xml version="1.0" encoding="utf-8"?>
<!-- Generator: Adobe Illustrator 24.3.0, SVG Export Plug-In . SVG Version: 6.00 Build 0)  -->
<svg version="1.1" id="레이어_1" xmlns="http://www.w3.org/2000/svg" xmlns:xlink="http://www.w3.org/1999/xlink" x="0px"
	 y="0px" viewBox="0 0 271 107" style="enable-background:new 0 0 271 107;" xml:space="preserve">
<g>
	<path d="M13.94,78.42c19.28,0,58.32-19.28,58.32-31.36c0-4.96-6.64-7.92-14.48-10.08c-9.6-2.64-20.48-4.08-20.48-11.12
		C37.3,12.42,63.14,1.7,74.82,1.3C82.1,1.06,86.98,2.82,86.9,8.98c-0.16,9.52-14.08,19.84-22.56,19.84c-1.6,0-4-0.64-4-2.4
		c0-3.28,3.12-6.72,4.72-7.68c-1.2,1.36-1.68,3.04-1.68,4.16c0,0.48,0.48,0.48,0.96,0.48c3.28,0,18.88-8.96,19.92-16.24
		c0.4-2.56-1.76-3.28-4.8-3.28c-0.88,0-1.92,0.08-2.96,0.16C66.26,5.14,42.74,18.34,42.74,26.58c0,4.64,7.68,6.64,15.76,8.88
		c9.04,2.48,18.4,5.44,18.4,14.32c0,17.52-39.84,34.64-61.68,34.64c-5.28,0-12.96-1.52-12.96-7.84c0-11.84,36.16-30.96,46.48-30.72
		C27.54,51.62,7.22,69.3,7.22,75.22C7.22,78.34,11.38,78.42,13.94,78.42z"/>
	<path d="M80.98,67.22c-1.28-0.4-3.28-2.4-3.28-3.84c0-4.64,11.6-22.08,16.72-26.16c0.4-0.4,0.88-0.48,1.2-0.48
		c1.84,0,5.04,3.2,5.04,5.2c0,0.32-0.4-0.08-1.04-0.16c-3.28-0.32-14.24,17.92-15.2,21.2c4.88-1.28,16.56-12.4,21.44-17.12
		c0.56-0.4,0.96,0.24,0.72,0.48C99.62,53.86,86.9,66.9,81.94,67.3C81.62,67.3,81.38,67.3,80.98,67.22z M107.7,27.06
		c0.72,0.8,1.2,2,0.88,2c-0.16,0-0.8-0.32-1.68,0.08c-1.36,0.56-5.04,3.84-6,5.2c-1.12,1.44-2.8-0.24-2.88-1.68
		c-0.08-2.32,2.96-7.52,5.04-8.16C104.9,24.26,106.66,25.86,107.7,27.06z"/>
	<path d="M125.38,60.02c1.76-0.64,3.52-1.28,5.28-1.84c1.28-0.4,2.56-0.16,1.44,0.24c-2.56,1.04-5.12,2.16-7.6,3.2
		c-10.24,17.84-23.44,37.92-38.8,42c-0.88,0.24-1.76,0.32-2.64,0.32c-2.96,0-5.44-1.36-5.44-4.72c0-0.88,0.16-1.92,0.56-3.12
		c3.2-10.16,18.96-23.12,37.36-31.92c1.76-3.04,8.48-15.12,8.48-15.12c0.08-0.08-1.92,1.36-3.44,2.72c-1.2,1.12-5.6,5.04-10.08,8.56
		c-4.56,3.52-9.28,6.96-10.96,6.96c-0.16,0-0.56-0.08-0.8-0.24c-1.44-0.88-3.44-3.76-3.44-5.36c0-8.72,18.4-26.56,33.04-26.56
		c3.12,0,7.12,1.28,7.12,5.04c0,1.36-0.8,2.72-1.52,3.76c-0.16,0.08-0.24,0-0.16-0.08c0.32-0.72,0.8-1.68,0.8-2.88
		c0-2.4-1.52-3.6-3.92-3.44c-4.64,0.24-10.4,3.6-15.68,8c-7.6,6.48-13.44,16.32-12.64,16.96c0.32,0.32,3.52-1.76,7.04-4.08
		c3.84-2.56,7.6-5.52,10.24-7.76c5.52-4.64,6.72-5.84,8.08-6.48c1.52-0.72,4.88,3.6,4.56,4.56c-0.24-0.24-0.64-0.48-2,2.24
		L125.38,60.02z M114.1,66.66c-14.56,7.68-25.68,16.8-31.28,27.2c-0.88,1.6-1.28,2.72-1.28,3.52c0,1.12,0.72,1.52,1.76,1.52
		c1.12,0,2.48-0.48,3.76-1.12C96.42,92.74,105.94,79.86,114.1,66.66z"/>
	<path d="M157.06,62.98c5.04-1.36,16.48-12.32,21.6-17.12c0.48-0.4,0.88,0.24,0.64,0.48c-6.96,7.6-20,20.8-24.8,20.8
		c-0.8,0-1.68-0.72-2.48-1.68c-0.88-1.04-1.44-2.24-1.44-3.12c0-4.56,9.28-17.92,13.44-21.68c-6.56,2.96-18.32,12.64-24.24,19.04
		c-1.04,1.04-2,2.24-2.88,3.36c-2.16,2.56-2.72,4.72-1.52,5.28c-2.4,0.56-4.32-2-4.96-4.32c-0.16-0.56,0.24-2.72,2.24-6.4
		c1.92-3.76,4.96-8.48,7.6-12.16c2.88-4.08,6.4-8.32,8.48-9.92c0.32-0.32,0.8-0.4,1.04-0.4c2,0,5.04,3.12,5.04,5.12
		c0,0.32-0.32-0.08-0.96-0.16c-1.04-0.08-4,3.28-6.4,6.4c-3.76,4.96-7.92,10.88-9.12,13.12c0.88-1.28,2.4-2.88,4.08-4.48
		c8.96-8.8,23.04-19.6,25.76-19.6c1.92,0,4.48,4.32,3.44,5.2C169.62,42.34,157.22,59.22,157.06,62.98z"/>
	<path d="M215.94,46.42c-8.08,8.24-18.8,19.76-23.6,20.72c-0.16,0-0.64,0-0.64,0c-1.28,0-3.76-2.16-3.76-4.08
		c0-3.44,4.4-11.52,8.96-17.84c2.8-3.92,6.16-7.76,8.16-9.36c0.4-0.4,0.88-0.48,1.12-0.48c1.92,0,5.04,3.12,5.04,5.2
		c0,0.32-0.32-0.08-1.04-0.16c-1.2-0.16-4.56,4-7.28,7.52c-4.08,5.36-8.08,12.32-8.08,14.64c3.84-1.6,12-8.8,15.84-12.48
		c4.16-4.08,10.08-11.04,14.64-14.56c0.4-0.32,0.8-0.4,1.12-0.4c1.92,0,4.96,3.12,4.96,5.12c0,0.32-0.24-0.08-0.96-0.16
		c-0.56,0-1.6,0.72-2.64,1.84c-1.2,1.28-3.44,4.16-6.08,7.68c-4,5.36-6.96,11.04-6.96,13.28c5.04-1.52,16.4-12.4,21.28-17.04
		c0.48-0.4,0.88,0.24,0.64,0.48c-6.96,7.6-20,20.96-24.8,20.96c-0.4,0-0.88-0.16-1.28-0.48c-1.28-0.64-2.88-2.48-2.88-3.92
		c0-0.8,0.48-2.24,0.88-3.44C209.94,55.78,212.98,50.1,215.94,46.42z"/>
	<path d="M245.14,35.54c0.48-0.4,0.96-0.48,1.2-0.48c1.84,0,4.88,3.12,4.88,5.2c0,0.24-0.24-0.08-0.8-0.16
		c-1.2-0.16-4,3.12-6.56,6.4c-1.04,1.28-4.48,6.24-4.48,6.24c6.96-7.6,21.92-18.48,25.92-17.12c1.04,0.4,3.84,3.44,3.84,4.64
		c0,7.2-15.68,26.4-26.64,26.4c-3.12,0-6.8-2-6.8-4.64c0-0.4,0.4-0.56,0.4-0.32c0,0.8,1.36,2.32,3.04,2.32
		c8.08,0,22.48-20.72,23.44-25.2c-1.2,0-14.08,6.4-28,21.04c-7.76,11.12-19.04,28.16-21.04,40c-0.4,2-0.4,3.6,1.44,3.84
		c-3.68,1.44-7.28-1.52-6.64-6.4c1.68-13.44,17.68-38.48,29.84-54.08C240.34,40.5,243.54,36.82,245.14,35.54z"/>
</g>
</svg>
