<?xml version="1.0" encoding="utf-8"?>

<!-- Generator: Adobe Illustrator 24.3.0, SVG Export Plug-In . SVG Version: 6.00 Build 0)  -->
<svg version="1.1" id="레이어_2" xmlns="http://www.w3.org/2000/svg" xmlns:xlink="http://www.w3.org/1999/xlink" width="20rem" height="20rem" x="0px"
	 y="0px" viewBox="0 0 658.89 406.28" style="enable-background:new 0 0 658.89 406.28;" xml:space="preserve">
<style type="text/css">

	.st0{fill:#FFFFFF;stroke:#C8B6FF;stroke-width:6;stroke-miterlimit:10;}
	.st1{fill:none;}
	.st2{font-family:'H2gtrE';}
	.st3{font-size:51.7714px;}
	.st4{fill:#FFFFFF;stroke:#040000;stroke-width:3;stroke-miterlimit:10;}
	.st5{fill:#4C4C47;stroke:#040000;stroke-width:3;stroke-miterlimit:10;}
	.st6{fill:#C8B6FF;stroke:#060001;stroke-width:3;stroke-miterlimit:10;}
	.st7{fill:#060001;}
	.st8{fill:#FFFFFF;}
	.st9{fill:#060001;stroke:#040000;stroke-width:3;stroke-miterlimit:10;}
	.st10{fill:#E58C8B;stroke:#040000;stroke-width:3;stroke-miterlimit:10;}
	.st11{fill:#040000;}
	.st12{fill:#E58C8B;}
</style>
<g id="레이어_2_1_">
	<path class="st0" d="M620.1,383.75H337.99c-18.38,0-33.42-15.04-33.42-33.42v-52.16c0-18.38,15.04-33.42,33.42-33.42H620.1
		c18.38,0,33.42,15.04,33.42,33.42v52.16C653.52,368.71,638.48,383.75,620.1,383.75z"/>
	<rect x="365.49" y="287.07" class="st1" width="224.66" height="72.96"/>
	<text transform="matrix(1.0081 0 0 1 425.6278 345.777)" class="st2 st3" >사자</text>
</g>
<g id="레이어_1_1_">
	<path class="st4" d="M110.6,305.75c-5.12,13.53-11.28,23.17-16.01,29.52c-7.57,10.16-20.23,19.27-27.52,37.03
		c-1.29,3.13-5.03,8.87-4.5,16.51c0.18,2.6,0.62,9.01,5,12.51c8.77,7,26.29-3.26,27.52-4c9.37-5.63,9.22-10.34,17.01-14.01
		c8.97-4.23,17.64-1.99,25.52-0.5c18.04,3.41,36.7,1.29,55.05,2c51.56,2,40.67-0.88,53.54,1c10.55,1.54,23.65,4.32,37.03-1.5
		c8.69-3.78,11.45-8.56,12.51-11.01c0.73-1.68,3.17-8.05,0-13.51c-3.56-6.13-11.7-6.78-14.51-7.01c-2.55-0.2-7.81-0.24-23.02,7.01
		c-12.68,6.04-14.97,8.89-16.01,8.01c-3.96-3.37,45.99-63.57,51.04-60.05c1.46,1.01-2,6.47,0.17,8.34
		c3.42,2.96,16.5-6.81,33.53-19.68c6.08-4.6,14.34-11.04,24.35-19.68c13.03-11.25,18.16-16.94,22.02-21.52
		c12.76-15.14,12.7-20.88,12.01-24.02c-1.24-5.66-6.08-10.19-11.01-12.01c-5.45-2.01-10.5-0.52-19.52,3
		c-18.97,7.4-31.03,14.01-31.03,14.01c-20.53,10.64-31,15.99-41.03,17.51c-11.61,1.76-19.11-0.29-27.77-1.5
		c-38.29-5.35-72.49,9.52-88.57,16.51C152.54,274.74,131.8,285.74,110.6,305.75z"/>
	<path class="st5" d="M162.14,271.22c-1.25,3.87-3.8,10.42-9.01,17.01c-15.97,20.24-46.55,27.72-46.6,27.74l0,0l0,0
		c-0.99,1.99-1.98,3.98-2.97,5.97c2.41,5.1,5.9,12.15,10.54,20.33c4.66,8.22,7.93,14.48,14.01,21.77
		c9.97,11.95,16.75,16.28,19.52,17.76c1.14,0.62,2.64,1.59,4.75,2.25c4.72,1.47,8.73,0.61,11.01,0.25
		c4.16-0.66,3.45,0.16,17.51,0.75c4.35,0.18,10.57,0.21,23.02,0.25c29.13,0.1,27.5-0.36,29.02,0c2.38,0.57,6.58,1.77,11.01,0
		c3.91-1.56,6.09-4.67,7.01-6c11.34-16.58,14.31-27.94,23.27-37.53c10.77-11.52,23.04-12.83,26.27-26.27c0.2-0.81,0.3-1.47,0.5-2.75
		c1.67-10.7,2.03-25.35-6-62.8c-1.06-4.93-0.11-8-2-9.01c-4.99-2.66-18.88,11.02-27.02,23.77c-1.57,2.46-1.1,2.02-9.76,17.01
		c-4.94,8.56-7.42,12.84-7.76,13.26C244.5,299.9,229.7,303.88,162.14,271.22z"/>
	<path class="st4" d="M161.64,273.22c-1.61,2.51,0.68,7.59,5.25,17.76c5.76,12.79,9.93,15.46,12.01,16.51c2.62,1.33,5,1.71,8.51,2
		c15.95,1.31,29.1-1.36,29.77-1.5c0,0,13.19-2.77,28.52-11.51c1.8-1.02,4.73-2.79,6.26-6.26c1.45-3.31,1.65-7.72-0.25-10.76
		c-2.91-4.65-9.93-4.87-16.76-5c-20.83-0.4-29.85,0.14-37.78,0C174.86,274.07,164.8,268.32,161.64,273.22z"/>
	<path class="st6" d="M163.81,272.55c-10.29,12.62-14.8,23.18-30.69,33.19c-4.57,2.88-24.64,14.31-50.04,10.51
		c-9.05-1.36-18.13-2.71-25.52-10.01c-15.28-15.08-8.31-40.71-5.5-51.04c1.1-4.05,2.89-10.63,8.01-13.01
		c1.27-0.59,2.65-0.88,2.67-1.5c0.05-1.58-8.81-2.57-14.51-4c-21.58-5.44-33.72-26.45-35.7-29.86c-2.74-4.74-6.6-11.59-7.51-21.43
		c-0.2-2.13-1.03-12.81,4.5-24.77c0,0,8.17-17.63,27.52-26.4c8.12-3.68,18.35-5.55,20.52-5.88c3.33-0.5,4.91-0.64,4.91-0.64
		c4.08,0,4.62-0.07,4.97-0.48c1.74-2.1-11.3-11.86-17.76-25.9c-0.91-1.97-6.49-14.51-3.75-29.65c3.5-19.4,18.37-30.42,22.89-33.78
		c3.63-2.69,27.5-19.78,55.92-10.51c21.18,6.91,34.13,24.96,37.91,37.16c0.4,1.29,2.11,7.07,2.34,7.01
		c0.3-0.08-3.76-10.57-3.67-19.68c0.17-16.66,14.23-31.5,26.1-38.74c20.48-12.49,49.02-11.26,67.18,3.38
		c16.37,13.2,22.77,36.06,22.89,45.41c0,0,0,5.93,0.75,6c0.82,0.08,0.82-6.99,4.5-13.39c4.13-7.16,11.16-10.34,14.15-11.67
		c14.55-6.48,33.12-1.93,45.4,8.17c10.39,8.54,14.2,19.34,15.51,24.02c3.81,13.62,0.17,25.25-1.5,31.53
		c-3.43,12.9-11.69,23.15-10.76,23.77c0.53,0.35,2.22-3.17,6.26-5.25c9.55-4.94,22.81,4.05,23.72,4.68
		c9.2,6.38,12.39,15.71,14.31,21.34c1.77,5.17,4.79,16.58,1.88,29.43c-7,30.82-43.03,47.15-62.93,46.88c-5.32-0.07-11.5-1-11.5-1
		c-8.84-1.83-14.04-5.72-26.29-8.01C247.53,210.3,192.92,236.87,163.81,272.55z"/>
	<path class="st4" d="M140.82,106.1c-3.25-0.35-3.83-3.74-7.45-7.03c-7.07-6.42-17.78-5.26-20.33-4.99
		c-8.4,0.9-13.95,5.07-16.45,6.99c-5.57,4.28-8.37,9.08-9.76,11.51c-1.84,3.21-6.63,11.85-5.5,23.52c0.94,9.7,5.53,16.99,7.51,19.02
		c0.27,0.28,2.84,2.8,6.25,6l0,0c-2.23,3.25-5.09,7.96-7.51,14.01c-5.81,14.52-6.68,30.63-3.75,42.54
		c9.5,38.59,63.52,51.44,71.31,53.29c15.22,3.62,26.54,3.16,48.54,2.25c21.14-0.87,44.17-2.03,70.31-13.51
		c12.38-5.44,27.66-12.38,39.53-28.52c4.04-5.49,10.79-14.91,12.26-28.52c1.8-16.65-5.27-30.46-8.51-36.78
		c-3.7-7.23-17.06-27.66-12.76-20.77c2-2.21,4.61-5.45,7.01-9.76c1.24-1.91,6.47-10.36,6.26-20.02
		c-0.28-12.56-9.81-23.04-19.27-28.02c-2.82-1.48-10.08-4.82-19.52-4c-7.38,0.64-20.36,4.18-23.77,12.01c-0.57,1.3-1.68,4.58-4,5
		c-1.63,0.3-3.11-0.94-3.5-1.25c-6.02-4.71-33.13-6.06-48.29-6c0,0-13.74,0.05-29.02,2.25c-2.57,0.37-5.38,0.85-8.76,1.75
		c-4.53,1.21-8.16,2.18-12.26,4.5C144.11,104.56,143.33,106.37,140.82,106.1z"/>
	<path class="st7" d="M128.87,192.35c-6.41-0.12-12.75,0.97-18.73,3.28c-2.91,1.13-1.65,5.87,1.3,4.72
		c5.61-2.17,11.41-3.22,17.43-3.11C132.02,197.31,132.02,192.41,128.87,192.35z"/>
	<path class="st7" d="M135.62,213.66c-7.2,0.28-14.33,1.28-21.33,3.01c-3.06,0.76-1.76,5.48,1.3,4.72
		c6.58-1.63,13.25-2.58,20.02-2.83C138.76,218.44,138.78,213.54,135.62,213.66z"/>
	<path class="st7" d="M316,173.4c-1.57,0.72-3.42,0.47-5.09,0.48c-1.81,0.01-3.61,0.21-5.39,0.55c-3.76,0.73-7.34,2.18-10.87,3.62
		c-2.88,1.17-1.62,5.92,1.3,4.72c3.79-1.54,7.67-3.16,11.74-3.78c3.7-0.56,7.28,0.24,10.79-1.37
		C321.33,176.32,318.84,172.09,316,173.4z"/>
	<path class="st7" d="M323.33,195.9c-8.84,0.15-17.86,0.55-26.13,3.97c-2.87,1.19-1.61,5.93,1.3,4.72
		c7.91-3.27,16.38-3.65,24.83-3.79C326.48,200.75,326.49,195.85,323.33,195.9z"/>
	<path class="st7" d="M189,172.64c-3.38,2.16-4.76,5.21-5.25,6.34c-2.25,5.17-0.82,9.98-0.42,11.26c0.4,1.26,2.79,8.85,10.09,10.84
		c6.25,1.7,12.84-1.57,16.01-6.59c3.97-6.27,1.31-13.25,0.67-14.93c-0.53-1.4-1.45-3.73-3.75-5.75c-3.48-3.06-7.62-3.22-9.17-3.25
		C195.7,170.52,192.37,170.48,189,172.64z"/>
	<path class="st8" d="M187.86,180.22c-0.62,0.38-1.57,1.08-2.25,2.25c-1.75,2.99-0.24,6.35,0,6.88c0.19,0.42,2.44,5.24,6.63,5
		c2.51-0.14,4.55-2.02,5.38-4c1.61-3.82-0.98-8.73-4.75-10.13C190.75,179.43,188.77,179.92,187.86,180.22z"/>
	<path class="st8" d="M200.37,175.46c-0.47,0.13-1.7,0.56-2.5,1.75c-1.14,1.7-0.7,3.91,0.25,5.25c1.61,2.28,5.4,3.02,7.51,1.13
		c1.26-1.14,1.72-3.05,1.25-4.63C206.18,176.61,203.44,174.96,200.37,175.46z"/>
	<path class="st8" d="M202.99,190.22c-0.31,0.06-1.49,0.31-2.25,1.38c-0.88,1.25-0.86,3.15,0.25,4.25c1.41,1.4,4.03,0.97,5.13-0.63
		c0.73-1.06,0.83-2.71-0.13-3.88C204.89,190,203.11,190.21,202.99,190.22z"/>
	<path class="st7" d="M244.9,168.69c-3.38,2.16-4.76,5.21-5.25,6.34c-2.25,5.17-0.82,9.98-0.42,11.26
		c0.4,1.26,2.79,8.85,10.09,10.84c6.25,1.7,12.84-1.57,16.01-6.59c3.97-6.27,1.31-13.25,0.67-14.93c-0.53-1.4-1.45-3.73-3.75-5.75
		c-3.48-3.06-7.62-3.22-9.17-3.25C251.6,166.57,248.27,166.53,244.9,168.69z"/>
	<path class="st8" d="M243.76,176.27c-0.62,0.38-1.57,1.08-2.25,2.25c-1.75,2.99-0.24,6.35,0,6.88c0.19,0.42,2.44,5.24,6.63,5
		c2.51-0.14,4.55-2.02,5.38-4c1.61-3.82-0.98-8.73-4.75-10.13C246.65,175.48,244.67,175.97,243.76,176.27z"/>
	<path class="st8" d="M256.27,171.51c-0.47,0.13-1.7,0.56-2.5,1.75c-1.14,1.7-0.7,3.91,0.25,5.25c1.61,2.28,5.4,3.02,7.51,1.13
		c1.26-1.14,1.72-3.05,1.25-4.63C262.08,172.66,259.34,171.01,256.27,171.51z"/>
	<path class="st8" d="M258.89,186.28c-0.31,0.06-1.49,0.31-2.25,1.38c-0.88,1.25-0.86,3.15,0.25,4.25c1.41,1.4,4.03,0.97,5.13-0.63
		c0.73-1.06,0.83-2.71-0.13-3.88C260.79,186.05,259.01,186.26,258.89,186.28z"/>
	<path class="st9" d="M219.82,191.03c0.61-0.34,1.25-0.51,3.46-0.6c0.51-0.02,1.05-0.04,3.34-0.03c2.61,0.01,3.33,0.04,4.05,0.58
		c0.2,0.15,0.66,0.51,0.88,1.13c0.42,1.19-0.38,2.4-0.67,2.84c-0.23,0.35-0.41,0.52-1.83,1.71c-2.18,1.82-2.47,2-2.96,2.17
		c-0.38,0.13-1.36,0.44-2.5,0.17c-0.93-0.23-1.51-0.76-2.67-1.83c-0.82-0.76-1.44-1.35-1.96-2.34c-0.4-0.76-0.81-1.55-0.54-2.38
		C218.65,191.67,219.36,191.28,219.82,191.03z"/>
	<path class="st10" d="M215.52,203.83c-1.78,0.87-1.75,4.49-1.51,9.17c0.39,7.35,0.59,11.02,1.22,13.42
		c0.35,1.33,3.5,13.21,7.46,13.1c2.03-0.06,3.39-3.22,5.67-8.53c0.73-1.7,1.89-4.6,4.46-16.61c1.31-6.12,1.98-9.9,0.38-10.9
		c-1.13-0.7-2.52,0.53-4.34-0.5c-1.67-0.94-1.53-2.52-2.84-2.84c-1.27-0.31-2.02,1.04-6.32,2.96
		C217.36,204.16,216.38,203.41,215.52,203.83z"/>
	<path class="st11" d="M238.83,198.82c0.03,2.47-4.18,2.77-5.91,2.82c-2.08,0.06-5.66-1.37-5.86-3.89
		c-0.17-2.16-3.12-2.46-3.79-0.88c-0.54,0.17-1,0.58-1.2,1.28c-0.77,2.76-3.06,3.6-5.66,3.96c-2.87,0.4-5.21,0.43-7.24-1.87
		c-1.67-1.9-4.43,0.88-2.77,2.77c3.08,3.5,6.89,3.54,11.26,2.85c2.99-0.48,5.53-1.8,7.06-4.15c1.9,2.45,5.17,3.97,8.2,3.85
		c4.17-0.16,9.89-1.57,9.82-6.74C242.72,196.3,238.8,196.29,238.83,198.82z"/>
	<path class="st12" d="M173.66,202.91c3.29-0.1,7.25,0.04,10.17,1.83c1.41,0.87,1.91,1.7,2.09,2.42c0.33,1.32-0.35,2.51-0.58,2.92
		c-1.93,3.39-8.05,3.84-11.43,4.09c-2.78,0.2-8.65,0.57-12.2-2.35c-0.56-0.46-1.66-1.39-1.75-2.75c-0.1-1.47,1.03-2.63,1.56-3.16
		C164.18,203.26,168.23,203.08,173.66,202.91z"/>
	<path class="st12" d="M273.15,197.32c2.59-0.11,4.68,0.2,6.09,0.5c4.39,0.93,6.28,2.63,6.84,3.17c1.32,1.27,1.41,2.14,1.42,2.5
		c0.04,1.4-1.12,2.45-1.75,3c-1.08,0.94-2.52,1.67-6.26,2.25c-1.37,0.21-3.44,0.46-7.17,0.5c-6.45,0.07-7.85-0.61-8.42-0.92
		c-0.61-0.33-3.57-1.93-3.59-4.34c-0.02-1.93,1.85-3.31,3.01-4.16C266.83,197.22,270.97,197.16,273.15,197.32z"/>
	<path class="st5" d="M330.41,232.81c-3.57,1.87-3.83,1.95-4.13,2.44c-1.54,2.56,2.15,6.51,6.69,14.26
		c3.36,5.73,5.72,10.91,7.69,15.33c4.03,8.98,5.18,13.79,7.81,13.88c0.65,0.02,1.95-1.12,4.53-3.41c4.41-3.91,6.63-5.88,7.17-6.41
		c3.39-3.29,6.63-6.82,6.63-6.82s-1.8-3.03-2.38-4c-1.49-2.54-1.75-3.68-4.13-7.88c-1.11-1.96-2.56-4.56-4.2-8
		c-0.47-0.98-2.56-5.39-4.11-8.05c-0.27-0.46-0.57-0.96-0.57-0.96c-1-1.69-1.62-2.68-2.13-3.5c-2.19-3.6-1.81-3.6-2.28-3.9
		c-0.6-0.37-1.71-0.69-10.29,3.65C333.95,230.83,335.24,230.27,330.41,232.81z"/>
	<path class="st5" d="M202.55,275.22c-1.05,0.96-0.78,2.66-0.5,5.13c0.55,4.78,0.64,9.6,1.06,14.39c0.22,2.54,0.55,5.07,0.72,7.62
		c0.31,4.63,0.19,6.3,1.4,7.14c0.6,0.41,1.1,0.34,6.07-0.44c4.78-0.74,5.03-0.78,5.67-0.85c2.46-0.27,3.11-0.18,5.71-0.52
		c3.75-0.5,4.39-0.95,4.75-1.44c0.71-0.95,0.42-2.07,0.06-4.19c-0.22-1.29-0.48-4.05-1-9.57c-0.01-0.07-0.17-2.4-0.5-7.07
		c-0.13-1.86-0.35-3.71-0.44-5.57c-0.2-4.13,0.05-5.06-0.75-5.82c-0.56-0.53-1.11-0.49-5.44-0.25c-5.13,0.29-7.69,0.43-7.88,0.44
		c-1.11,0.06-2.21,0.13-3.32,0.19C203.92,274.64,203.17,274.66,202.55,275.22z"/>
	<path class="st8" d="M209.16,275.8l2.51,31.7c0.07,0.94,1.54,0.82,1.47-0.12l-2.51-31.7C210.55,274.74,209.09,274.86,209.16,275.8z
		"/>
	<path class="st8" d="M215.75,275.51l1.77,31.02c0.05,0.93,1.52,0.85,1.47-0.08l-1.77-31.02
		C217.16,274.5,215.7,274.58,215.75,275.51z"/>
	<path class="st8" d="M355.76,271.27c-5.74-10.11-11.48-20.23-17.22-30.34c-1.62-2.86-3.24-5.71-4.86-8.57
		c-0.44-0.78-1.66-0.11-1.22,0.67c5.74,10.11,11.48,20.23,17.22,30.34c1.62,2.86,3.24,5.71,4.86,8.57
		C354.98,272.72,356.2,272.05,355.76,271.27z"/>
	<path class="st8" d="M229.28,306.07c0.23,0.24,5.52,4.94,18.03,16c-0.02-0.32-0.05-0.66-0.08-1s-0.07-0.66-0.11-0.98
		c-5.68-5.07-11.37-10.14-17.05-15.21c-0.01-0.01-0.07-0.09-0.17-0.12c-0.16-0.04-0.31,0.08-0.45,0.17c-0.48,0.31-0.9,0.2-0.92,0.36
		c-0.01,0.08,0.09,0.12,0.35,0.36C229.11,305.86,229.24,306.02,229.28,306.07z"/>
	<path class="st8" d="M234.33,302.98c3.95,3.42,7.89,6.84,11.84,10.26c-0.03-0.23-0.05-0.47-0.07-0.72
		c-0.02-0.35-0.04-0.68-0.03-0.99c-3.42-3.07-6.83-6.14-10.25-9.2c-0.25,0.11-0.5,0.22-0.75,0.33
		C234.82,302.76,234.58,302.87,234.33,302.98z"/>
	<path class="st8" d="M275.96,259.7c-9.54,15.71-19.07,31.43-28.61,47.14c0,0.31,0,0.58,0.01,0.81c0.01,0.89,0.02,1.34,0.03,1.34
		c0.37,0.22,14.27-22.65,31.01-50.48c-0.41,0.19-0.83,0.39-1.25,0.59C276.74,259.31,276.35,259.51,275.96,259.7z"/>
	<path class="st8" d="M284.64,255.57c-12.23,20.04-24.46,40.08-36.69,60.12c0.03,0.17,0.14,0.93,0.16,1.1
		c0.03,0.18,0.14,0.95,0.17,1.14c12.96-21.21,25.91-42.42,38.87-63.63c-0.41,0.2-0.83,0.41-1.25,0.63
		C285.48,255.14,285.06,255.35,284.64,255.57z"/>
	<path class="st8" d="M361.13,266.37c-5.59-9.6-11.19-19.21-16.78-28.81c-1.58-2.71-3.16-5.42-4.74-8.14
		c-0.43-0.74-1.61-0.12-1.17,0.63c5.59,9.6,11.19,19.21,16.78,28.81c1.58,2.71,3.16,5.42,4.74,8.14
		C360.39,267.74,361.57,267.11,361.13,266.37z"/>
	<path class="st8" d="M110.17,319.51c4.6,6.8,11.13,15.6,11.13,15.6c3.14,4.12,11.8,16.09,34.9,48.79c0.05,0,0.13-0.01,0.22-0.01
		c1.07-0.04,1.2,0.01,1.26-0.04c0.19-0.18-0.56-1.48-3.74-5.45c-14.33-20.08-28.66-40.16-43-60.24c-0.09-0.13-0.18-0.22-0.41-0.53
		c-0.59-0.81-0.88-1.36-1.2-1.33c-0.04,0-0.14,0.02-0.34,0.07c-0.23,0.05-0.18,0.04-0.3,0.07c-0.29,0.06-0.43,0.05-0.46,0.14
		c-0.01,0.02-0.01,0.05-0.01,0.06c0.03,0.16,0.26,0.42,0.92,1.34C109.71,318.79,110.06,319.35,110.17,319.51z"/>
	<path class="st8" d="M115.71,316.99c4.74,6.99,11.44,16.04,11.44,16.04c3.22,4.24,12.13,16.55,35.88,50.16c0.05,0,0.13,0,0.22-0.01
		c1.08-0.02,1.21,0.02,1.27-0.03c0.19-0.18-0.59-1.51-3.84-5.6c-14.74-20.65-29.47-41.29-44.21-61.94c-0.1-0.13-0.19-0.23-0.42-0.55
		c-0.61-0.83-0.9-1.4-1.23-1.37c-0.04,0-0.14,0.02-0.35,0.06c-0.23,0.05-0.18,0.04-0.3,0.06c-0.29,0.05-0.43,0.05-0.47,0.14
		c-0.01,0.02-0.01,0.05-0.01,0.06c0.03,0.16,0.27,0.43,0.94,1.38C115.24,316.26,115.6,316.82,115.71,316.99z"/>
	<path class="st8" d="M298.37,315.64c-4.29,3.05-8.57,6.1-12.86,9.14c-3.81,2.71-7.66,5.42-11.07,8.63
		c-3.59,3.37-6.3,7.38-9.06,11.41c-2.79,4.07-5.69,8.08-8.68,12.01c-3.42,4.5-6.97,8.89-10.64,13.19c-0.61,0.72,0.42,1.76,1.04,1.04
		c6.43-7.53,12.5-15.38,18.16-23.5c2.78-3.99,5.34-8.17,8.75-11.67c3.25-3.34,7.01-6.12,10.79-8.81c4.77-3.4,9.54-6.78,14.31-10.18
		C299.87,316.37,299.14,315.1,298.37,315.64z"/>
	<path class="st8" d="M300.7,307.94c-0.58-0.39-2.28,1.36-3.82,2.69c-2.22,1.92-2.64,1.7-8.26,5.13c-5.48,3.35-8.35,5.1-11.76,8.13
		c-2.26,2.01-4.06,3.97-5.13,5.13c-1.55,1.69-1.74,2.03-5.38,6.38c-4.85,5.81-5.04,5.83-6.41,7.77c-0.86,1.22-1.6,2.37-3.26,4.63
		c-1.35,1.84-2.21,2.92-2.95,3.8c-1.26,1.48-2.65,2.9-2.65,2.9l0,0c-0.02,0.02-3.48,3.52-4.82,6.87c-0.06,0.16-0.21,0.54-0.04,0.76
		c0.17,0.21,0.58,0.19,0.86,0.08c0.5-0.19,0.73-0.72,0.81-0.9c0.11-0.23,0.95-1.26,2.65-3.32c0.61-0.74,1.08-1.25,2.02-2.25
		c1.18-1.26,1.64-1.67,2.27-2.34c0.53-0.55,1.26-1.52,3.38-4.38c1.55-2.1,1.78-2.7,3.26-4.92c2.18-3.25,4.11-5.54,5.62-7.34
		c1.01-1.21,2.55-2.89,5.63-6.26c2.73-2.98,4.1-4.48,4.38-4.75c4.33-4.23,8.94-6.59,11.51-7.88c3.12-1.57,6.05-3.49,9.13-5.13
		c0.48-0.25,2.22-1.18,2.88-3C300.82,309.22,301.07,308.19,300.7,307.94z"/>
	<path class="st8" d="M213.56,346.72"/>
	<path class="st11" d="M294.2,250.03c-5.63,10.4-7.81,17.22-13.76,26.52c-6.24,9.75-12.83,19.29-19.76,28.56
		c-3.91,5.23-7.93,10.37-12.05,15.43c-0.18-1.62-0.44-3.24-0.68-4.86c-0.96-6.54-0.59-13.14-0.17-19.71c0.06-0.94-1.41-0.94-1.47,0
		c-0.37,5.83-0.74,11.7-0.12,17.52c0.31,2.86,0.92,5.69,1.11,8.56c0.1,1.46,0.06,2.93-0.03,4.39c-3.39-2.11-6.61-4.49-9.59-7.14
		c-1.56-1.39-2.98-2.9-4.4-4.43c-1.24-1.32-2.63-2.38-4.1-3.42c-1.5-1.06-2.6-2.45-3.85-3.84c-2.72-3.02-2.79-1.17-1.27,0.74
		c2.21,2.78,5.16,4.51,7.57,6.93c1.49,1.49,2.85,3.09,4.41,4.52c1.59,1.46,3.27,2.83,4.99,4.13c1.93,1.46,3.93,2.83,6,4.09
		c0.04,0.03,0.08,0.04,0.13,0.06c-0.08,0.98-0.17,1.95-0.26,2.92c-1.02,11.74-1.81,23.5-2.35,35.27
		c-0.31,6.66-0.54,13.32-0.69,19.98c-0.02,0.95,1.45,0.95,1.47,0c0.27-11.86,0.79-23.72,1.55-35.56c0.37-5.84,0.81-11.68,1.3-17.51
		c0.25-2.98,0.62-5.97,0.65-8.97c0.01-0.83-0.03-1.66-0.1-2.48c0.26,0.19,0.61,0.22,0.87-0.11c7.38-9.06,14.43-18.38,21.12-27.95
		c6.68-9.55,14.25-18.73,18.57-29.55c2.18-5.44,2.57-5.59,5.69-11.38C295.45,251.93,294.65,249.2,294.2,250.03z"/>
	<path class="st8" d="M232.45,336.27c-5.04,0-5.05,7.84,0,7.84S237.51,336.27,232.45,336.27z"/>
	<path class="st8" d="M232.37,352.45c-5.04,0-5.05,7.84,0,7.84C237.41,360.29,237.42,352.45,232.37,352.45z"/>
	<path class="st8" d="M232.54,369.97c-5.04,0-5.05,7.84,0,7.84C237.58,377.81,237.59,369.97,232.54,369.97z"/>
	<path class="st8" d="M200.02,369.2c-3.48-4.8-7.04-9.55-10.67-14.25c-1.06-1.37-2.73-2.07-4.36-1.14c-1.35,0.77-2.19,3-1.14,4.36
		c3.63,4.7,7.18,9.45,10.67,14.25C196.9,375.7,202.43,372.52,200.02,369.2z"/>
	<path class="st8" d="M188.56,321.57c1.84,2.52,6.09,0.08,4.23-2.47c-4.8-6.57-16.99-2.42-15.4,6.13c0.32,1.71,1.22,3.32,2.51,4.49
		c1.55,1.4,3.95,1.55,5.36,3.01c1.34,1.38,1.78,4.56,0.05,5.79c-1.06,0.76-2.58,0.68-3.79,0.49c-0.29-0.04-3.38-0.63-3.4-0.78
		c-0.41-3.08-5.31-3.12-4.9,0c0.62,4.68,6.12,6.02,10.25,5.78c4.45-0.25,7.77-3.35,7.82-7.89c0.05-4.59-2.5-7.4-6.47-9.15
		c-1.86-0.82-3.52-2.54-2.25-4.64C183.51,320.77,187.34,319.88,188.56,321.57z"/>
	<path class="st8" d="M585.69,365.01"/>
</g>
</svg>
