<?xml version="1.0" encoding="utf-8"?>
<!-- Generator: Adobe Illustrator 24.3.0, SVG Export Plug-In . SVG Version: 6.00 Build 0)  -->
<svg version="1.1" id="레이어_2_1_" xmlns="http://www.w3.org/2000/svg" xmlns:xlink="http://www.w3.org/1999/xlink" x="0px"
	 y="0px" viewBox="0 0 429 406.3" style="enable-background:new 0 0 429 406.3;" xml:space="preserve">
<style type="text/css">
	.st0{fill:#FFFFFF;stroke:#040000;stroke-width:3;stroke-miterlimit:10;}
	.st1{fill:#4C4C47;stroke:#040000;stroke-width:3;stroke-miterlimit:10;}
	.st2{fill:#C8B6FF;stroke:#060001;stroke-width:3;stroke-miterlimit:10;}
	.st3{fill:#060001;}
	.st4{fill:#FFFFFF;}
	.st5{fill:#060001;stroke:#040000;stroke-width:3;stroke-miterlimit:10;}
	.st6{fill:#E58C8B;stroke:#040000;stroke-width:3;stroke-miterlimit:10;}
	.st7{fill:#040000;}
	.st8{fill:#E58C8B;}
</style>
<g id="레이어_1_1_">
	<path class="st0" d="M130.9,305.9c-5.1,13.5-11.3,23.2-16,29.5c-7.6,10.2-20.2,19.3-27.5,37c-1.3,3.1-5,8.9-4.5,16.5
		c0.2,2.6,0.6,9,5,12.5c8.8,7,26.3-3.3,27.5-4c9.4-5.6,9.2-10.3,17-14c9-4.2,17.6-2,25.5-0.5c18,3.4,36.7,1.3,55.1,2
		c51.6,2,40.7-0.9,53.5,1c10.5,1.5,23.6,4.3,37-1.5c8.7-3.8,11.5-8.6,12.5-11c0.7-1.7,3.2-8,0-13.5c-3.6-6.1-11.7-6.8-14.5-7
		c-2.5-0.2-7.8-0.2-23,7c-12.7,6-15,8.9-16,8c-4-3.4,46-63.6,51-60c1.5,1-2,6.5,0.2,8.3c3.4,3,16.5-6.8,33.5-19.7
		c6.1-4.6,14.3-11,24.4-19.7c13-11.2,18.2-16.9,22-21.5c12.8-15.1,12.7-20.9,12-24c-1.2-5.7-6.1-10.2-11-12c-5.5-2-10.5-0.5-19.5,3
		c-19,7.4-31,14-31,14c-20.5,10.6-31,16-41,17.5c-11.6,1.8-19.1-0.3-27.8-1.5c-38.3-5.4-72.5,9.5-88.6,16.5
		C172.8,274.9,152.1,285.9,130.9,305.9z"/>
	<path class="st1" d="M182.4,271.4c-1.2,3.9-3.8,10.4-9,17c-16,20.2-46.6,27.7-46.6,27.7l0,0l0,0c-1,2-2,4-3,6
		c2.4,5.1,5.9,12.1,10.5,20.3c4.7,8.2,7.9,14.5,14,21.8c10,12,16.8,16.3,19.5,17.8c1.1,0.6,2.6,1.6,4.8,2.2c4.7,1.5,8.7,0.6,11,0.2
		c4.2-0.7,3.4,0.2,17.5,0.8c4.4,0.2,10.6,0.2,23,0.2c29.1,0.1,27.5-0.4,29,0c2.4,0.6,6.6,1.8,11,0c3.9-1.6,6.1-4.7,7-6
		c11.3-16.6,14.3-27.9,23.3-37.5c10.8-11.5,23-12.8,26.3-26.3c0.2-0.8,0.3-1.5,0.5-2.8c1.7-10.7,2-25.4-6-62.8c-1.1-4.9-0.1-8-2-9
		c-5-2.7-18.9,11-27,23.8c-1.6,2.5-1.1,2-9.8,17c-4.9,8.6-7.4,12.8-7.8,13.3C264.8,300,250,304,182.4,271.4z"/>
	<path class="st0" d="M181.9,273.4c-1.6,2.5,0.7,7.6,5.2,17.8c5.8,12.8,9.9,15.5,12,16.5c2.6,1.3,5,1.7,8.5,2
		c15.9,1.3,29.1-1.4,29.8-1.5c0,0,13.2-2.8,28.5-11.5c1.8-1,4.7-2.8,6.3-6.3c1.5-3.3,1.6-7.7-0.2-10.8c-2.9-4.6-9.9-4.9-16.8-5
		c-20.8-0.4-29.9,0.1-37.8,0C195.1,274.2,185.1,268.5,181.9,273.4z"/>
	<path class="st2" d="M184.1,272.7c-10.3,12.6-14.8,23.2-30.7,33.2c-4.6,2.9-24.6,14.3-50,10.5c-9.1-1.4-18.1-2.7-25.5-10
		c-15.3-15.1-8.3-40.7-5.5-51c1.1-4.1,2.9-10.6,8-13c1.3-0.6,2.7-0.9,2.7-1.5c0.1-1.6-8.8-2.6-14.5-4c-21.6-5.4-33.7-26.4-35.7-29.9
		c-2.7-4.7-6.6-11.6-7.5-21.4c-0.2-2.1-1-12.8,4.5-24.8c0,0,8.2-17.6,27.5-26.4c8.1-3.7,18.3-5.6,20.5-5.9c3.3-0.5,4.9-0.6,4.9-0.6
		c4.1,0,4.6-0.1,5-0.5c1.7-2.1-11.3-11.9-17.8-25.9c-0.9-2-6.5-14.5-3.8-29.7C69.7,52.4,84.6,41.4,89.1,38
		c3.6-2.7,27.5-19.8,55.9-10.5c21.2,6.9,34.1,25,37.9,37.2c0.4,1.3,2.1,7.1,2.3,7c0.3-0.1-3.8-10.6-3.7-19.7
		c0.2-16.7,14.2-31.5,26.1-38.7c20.5-12.5,49-11.3,67.2,3.4c16.4,13.2,22.8,36.1,22.9,45.4c0,0,0,5.9,0.8,6c0.8,0.1,0.8-7,4.5-13.4
		c4.1-7.2,11.2-10.3,14.1-11.7c14.5-6.5,33.1-1.9,45.4,8.2c10.4,8.5,14.2,19.3,15.5,24c3.8,13.6,0.2,25.2-1.5,31.5
		c-3.4,12.9-11.7,23.1-10.8,23.8c0.5,0.4,2.2-3.2,6.3-5.2c9.5-4.9,22.8,4.1,23.7,4.7c9.2,6.4,12.4,15.7,14.3,21.3
		c1.8,5.2,4.8,16.6,1.9,29.4c-7,30.8-43,47.1-62.9,46.9c-5.3-0.1-11.5-1-11.5-1c-8.8-1.8-14-5.7-26.3-8
		C267.8,210.4,213.2,237,184.1,272.7z"/>
	<path class="st0" d="M161.1,106.2c-3.2-0.3-3.8-3.7-7.4-7c-7.1-6.4-17.8-5.3-20.3-5c-8.4,0.9-13.9,5.1-16.4,7
		c-5.6,4.3-8.4,9.1-9.8,11.5c-1.8,3.2-6.6,11.8-5.5,23.5c0.9,9.7,5.5,17,7.5,19c0.3,0.3,2.8,2.8,6.2,6l0,0c-2.2,3.2-5.1,8-7.5,14
		c-5.8,14.5-6.7,30.6-3.8,42.5c9.5,38.6,63.5,51.4,71.3,53.3c15.2,3.6,26.5,3.2,48.5,2.2c21.1-0.9,44.2-2,70.3-13.5
		c12.4-5.4,27.7-12.4,39.5-28.5c4-5.5,10.8-14.9,12.3-28.5c1.8-16.6-5.3-30.5-8.5-36.8c-3.7-7.2-17.1-27.7-12.8-20.8
		c2-2.2,4.6-5.4,7-9.8c1.2-1.9,6.5-10.4,6.3-20c-0.3-12.6-9.8-23-19.3-28c-2.8-1.5-10.1-4.8-19.5-4c-7.4,0.6-20.4,4.2-23.8,12
		c-0.6,1.3-1.7,4.6-4,5c-1.6,0.3-3.1-0.9-3.5-1.2c-6-4.7-33.1-6.1-48.3-6c0,0-13.7,0.1-29,2.2c-2.6,0.4-5.4,0.8-8.8,1.8
		c-4.5,1.2-8.2,2.2-12.3,4.5C164.4,104.7,163.6,106.5,161.1,106.2z"/>
	<path class="st3" d="M149.1,192.5c-6.4-0.1-12.8,1-18.7,3.3c-2.9,1.1-1.6,5.9,1.3,4.7c5.6-2.2,11.4-3.2,17.4-3.1
		C152.3,197.4,152.3,192.5,149.1,192.5z"/>
	<path class="st3" d="M155.9,213.8c-7.2,0.3-14.3,1.3-21.3,3c-3.1,0.8-1.8,5.5,1.3,4.7c6.6-1.6,13.2-2.6,20-2.8
		C159,218.6,159,213.7,155.9,213.8z"/>
	<path class="st3" d="M336.3,173.5c-1.6,0.7-3.4,0.5-5.1,0.5c-1.8,0-3.6,0.2-5.4,0.6c-3.8,0.7-7.3,2.2-10.9,3.6
		c-2.9,1.2-1.6,5.9,1.3,4.7c3.8-1.5,7.7-3.2,11.7-3.8c3.7-0.6,7.3,0.2,10.8-1.4C341.6,176.5,339.1,172.2,336.3,173.5z"/>
	<path class="st3" d="M343.6,196c-8.8,0.1-17.9,0.6-26.1,4c-2.9,1.2-1.6,5.9,1.3,4.7c7.9-3.3,16.4-3.6,24.8-3.8
		C346.7,200.9,346.7,196,343.6,196z"/>
	<path class="st3" d="M209.3,172.8c-3.4,2.2-4.8,5.2-5.2,6.3c-2.2,5.2-0.8,10-0.4,11.3c0.4,1.3,2.8,8.9,10.1,10.8
		c6.2,1.7,12.8-1.6,16-6.6c4-6.3,1.3-13.2,0.7-14.9c-0.5-1.4-1.4-3.7-3.8-5.8c-3.5-3.1-7.6-3.2-9.2-3.2
		C216,170.7,212.6,170.6,209.3,172.8z"/>
	<path class="st4" d="M208.1,180.4c-0.6,0.4-1.6,1.1-2.2,2.2c-1.8,3-0.2,6.4,0,6.9c0.2,0.4,2.4,5.2,6.6,5c2.5-0.1,4.6-2,5.4-4
		c1.6-3.8-1-8.7-4.8-10.1C211,179.6,209,180.1,208.1,180.4z"/>
	<path class="st4" d="M220.6,175.6c-0.5,0.1-1.7,0.6-2.5,1.8c-1.1,1.7-0.7,3.9,0.2,5.2c1.6,2.3,5.4,3,7.5,1.1
		c1.3-1.1,1.7-3.1,1.2-4.6C226.4,176.7,223.7,175.1,220.6,175.6z"/>
	<path class="st4" d="M223.2,190.4c-0.3,0.1-1.5,0.3-2.2,1.4c-0.9,1.2-0.9,3.1,0.2,4.2c1.4,1.4,4,1,5.1-0.6c0.7-1.1,0.8-2.7-0.1-3.9
		C225.1,190.1,223.4,190.3,223.2,190.4z"/>
	<path class="st3" d="M265.2,168.8c-3.4,2.2-4.8,5.2-5.2,6.3c-2.2,5.2-0.8,10-0.4,11.3c0.4,1.3,2.8,8.9,10.1,10.8
		c6.2,1.7,12.8-1.6,16-6.6c4-6.3,1.3-13.2,0.7-14.9c-0.5-1.4-1.5-3.7-3.8-5.8c-3.5-3.1-7.6-3.2-9.2-3.2
		C271.9,166.7,268.5,166.7,265.2,168.8z"/>
	<path class="st4" d="M264,176.4c-0.6,0.4-1.6,1.1-2.2,2.2c-1.8,3-0.2,6.4,0,6.9c0.2,0.4,2.4,5.2,6.6,5c2.5-0.1,4.5-2,5.4-4
		c1.6-3.8-1-8.7-4.8-10.1C266.9,175.6,264.9,176.1,264,176.4z"/>
	<path class="st4" d="M276.5,171.6c-0.5,0.1-1.7,0.6-2.5,1.8c-1.1,1.7-0.7,3.9,0.2,5.2c1.6,2.3,5.4,3,7.5,1.1
		c1.3-1.1,1.7-3.1,1.2-4.6C282.3,172.8,279.6,171.1,276.5,171.6z"/>
	<path class="st4" d="M279.1,186.4c-0.3,0.1-1.5,0.3-2.2,1.4c-0.9,1.2-0.9,3.1,0.2,4.2c1.4,1.4,4,1,5.1-0.6c0.7-1.1,0.8-2.7-0.1-3.9
		C281,186.2,279.3,186.4,279.1,186.4z"/>
	<path class="st5" d="M240.1,191.2c0.6-0.3,1.2-0.5,3.5-0.6c0.5,0,1.1,0,3.3,0c2.6,0,3.3,0,4.1,0.6c0.2,0.1,0.7,0.5,0.9,1.1
		c0.4,1.2-0.4,2.4-0.7,2.8c-0.2,0.4-0.4,0.5-1.8,1.7c-2.2,1.8-2.5,2-3,2.2c-0.4,0.1-1.4,0.4-2.5,0.2c-0.9-0.2-1.5-0.8-2.7-1.8
		c-0.8-0.8-1.4-1.4-2-2.3c-0.4-0.8-0.8-1.6-0.5-2.4C238.9,191.8,239.6,191.4,240.1,191.2z"/>
	<path class="st6" d="M235.8,204c-1.8,0.9-1.8,4.5-1.5,9.2c0.4,7.4,0.6,11,1.2,13.4c0.4,1.3,3.5,13.2,7.5,13.1
		c2-0.1,3.4-3.2,5.7-8.5c0.7-1.7,1.9-4.6,4.5-16.6c1.3-6.1,2-9.9,0.4-10.9c-1.1-0.7-2.5,0.5-4.3-0.5c-1.7-0.9-1.5-2.5-2.8-2.8
		c-1.3-0.3-2,1-6.3,3C237.6,204.3,236.6,203.5,235.8,204z"/>
	<path class="st7" d="M259.1,199c0,2.5-4.2,2.8-5.9,2.8c-2.1,0.1-5.7-1.4-5.9-3.9c-0.2-2.2-3.1-2.5-3.8-0.9c-0.5,0.2-1,0.6-1.2,1.3
		c-0.8,2.8-3.1,3.6-5.7,4c-2.9,0.4-5.2,0.4-7.2-1.9c-1.7-1.9-4.4,0.9-2.8,2.8c3.1,3.5,6.9,3.5,11.3,2.9c3-0.5,5.5-1.8,7.1-4.1
		c1.9,2.4,5.2,4,8.2,3.9c4.2-0.2,9.9-1.6,9.8-6.7C263,196.4,259.1,196.4,259.1,199z"/>
	<path class="st8" d="M193.9,203c3.3-0.1,7.2,0,10.2,1.8c1.4,0.9,1.9,1.7,2.1,2.4c0.3,1.3-0.4,2.5-0.6,2.9
		c-1.9,3.4-8.1,3.8-11.4,4.1c-2.8,0.2-8.6,0.6-12.2-2.4c-0.6-0.5-1.7-1.4-1.8-2.8c-0.1-1.5,1-2.6,1.6-3.2
		C184.4,203.4,188.5,203.2,193.9,203z"/>
	<path class="st8" d="M293.4,197.5c2.6-0.1,4.7,0.2,6.1,0.5c4.4,0.9,6.3,2.6,6.8,3.2c1.3,1.3,1.4,2.1,1.4,2.5c0,1.4-1.1,2.4-1.8,3
		c-1.1,0.9-2.5,1.7-6.3,2.2c-1.4,0.2-3.4,0.5-7.2,0.5c-6.5,0.1-7.9-0.6-8.4-0.9c-0.6-0.3-3.6-1.9-3.6-4.3c0-1.9,1.9-3.3,3-4.2
		C287.1,197.4,291.2,197.3,293.4,197.5z"/>
	<path class="st1" d="M350.7,232.9c-3.6,1.9-3.8,1.9-4.1,2.4c-1.5,2.6,2.1,6.5,6.7,14.3c3.4,5.7,5.7,10.9,7.7,15.3
		c4,9,5.2,13.8,7.8,13.9c0.6,0,2-1.1,4.5-3.4c4.4-3.9,6.6-5.9,7.2-6.4c3.4-3.3,6.6-6.8,6.6-6.8s-1.8-3-2.4-4
		c-1.5-2.5-1.8-3.7-4.1-7.9c-1.1-2-2.6-4.6-4.2-8c-0.5-1-2.6-5.4-4.1-8.1c-0.3-0.5-0.6-1-0.6-1c-1-1.7-1.6-2.7-2.1-3.5
		c-2.2-3.6-1.8-3.6-2.3-3.9c-0.6-0.4-1.7-0.7-10.3,3.6C354.2,231,355.5,230.4,350.7,232.9z"/>
	<path class="st1" d="M222.8,275.4c-1.1,1-0.8,2.7-0.5,5.1c0.6,4.8,0.6,9.6,1.1,14.4c0.2,2.5,0.6,5.1,0.7,7.6
		c0.3,4.6,0.2,6.3,1.4,7.1c0.6,0.4,1.1,0.3,6.1-0.4c4.8-0.7,5-0.8,5.7-0.9c2.5-0.3,3.1-0.2,5.7-0.5c3.8-0.5,4.4-1,4.8-1.4
		c0.7-1,0.4-2.1,0.1-4.2c-0.2-1.3-0.5-4-1-9.6c0-0.1-0.2-2.4-0.5-7.1c-0.1-1.9-0.4-3.7-0.4-5.6c-0.2-4.1,0.1-5.1-0.8-5.8
		c-0.6-0.5-1.1-0.5-5.4-0.2c-5.1,0.3-7.7,0.4-7.9,0.4c-1.1,0.1-2.2,0.1-3.3,0.2C224.2,274.8,223.4,274.8,222.8,275.4z"/>
	<path class="st4" d="M229.4,275.9l2.5,31.7c0.1,0.9,1.5,0.8,1.5-0.1l-2.5-31.7C230.8,274.9,229.3,275,229.4,275.9z"/>
	<path class="st4" d="M236,275.6l1.8,31c0.1,0.9,1.5,0.9,1.5-0.1l-1.8-31C237.4,274.6,236,274.7,236,275.6z"/>
	<path class="st4" d="M376,271.4c-5.7-10.1-11.5-20.2-17.2-30.3c-1.6-2.9-3.2-5.7-4.9-8.6c-0.4-0.8-1.7-0.1-1.2,0.7
		c5.7,10.1,11.5,20.2,17.2,30.3c1.6,2.9,3.2,5.7,4.9,8.6C375.2,272.9,376.5,272.2,376,271.4z"/>
	<path class="st4" d="M249.5,306.2c0.2,0.2,5.5,4.9,18,16c0-0.3,0-0.7-0.1-1s-0.1-0.7-0.1-1c-5.7-5.1-11.4-10.1-17.1-15.2
		c0,0-0.1-0.1-0.2-0.1c-0.2,0-0.3,0.1-0.4,0.2c-0.5,0.3-0.9,0.2-0.9,0.4c0,0.1,0.1,0.1,0.4,0.4C249.4,306,249.5,306.2,249.5,306.2z"
		/>
	<path class="st4" d="M254.6,303.1c3.9,3.4,7.9,6.8,11.8,10.3c0-0.2-0.1-0.5-0.1-0.7c0-0.4,0-0.7,0-1c-3.4-3.1-6.8-6.1-10.2-9.2
		c-0.3,0.1-0.5,0.2-0.8,0.3C255.1,302.9,254.8,303,254.6,303.1z"/>
	<path class="st4" d="M296.2,259.8c-9.5,15.7-19.1,31.4-28.6,47.1c0,0.3,0,0.6,0,0.8c0,0.9,0,1.3,0,1.3c0.4,0.2,14.3-22.6,31-50.5
		c-0.4,0.2-0.8,0.4-1.2,0.6C297,259.4,296.6,259.6,296.2,259.8z"/>
	<path class="st4" d="M304.9,255.7c-12.2,20-24.5,40.1-36.7,60.1c0,0.2,0.1,0.9,0.2,1.1c0,0.2,0.1,1,0.2,1.1
		c13-21.2,25.9-42.4,38.9-63.6c-0.4,0.2-0.8,0.4-1.2,0.6C305.7,255.3,305.3,255.5,304.9,255.7z"/>
	<path class="st4" d="M381.4,266.5c-5.6-9.6-11.2-19.2-16.8-28.8c-1.6-2.7-3.2-5.4-4.7-8.1c-0.4-0.7-1.6-0.1-1.2,0.6
		c5.6,9.6,11.2,19.2,16.8,28.8c1.6,2.7,3.2,5.4,4.7,8.1C380.6,267.9,381.8,267.2,381.4,266.5z"/>
	<path class="st4" d="M130.4,319.6c4.6,6.8,11.1,15.6,11.1,15.6c3.1,4.1,11.8,16.1,34.9,48.8c0.1,0,0.1,0,0.2,0c1.1,0,1.2,0,1.3,0
		c0.2-0.2-0.6-1.5-3.7-5.5c-14.3-20.1-28.7-40.2-43-60.2c-0.1-0.1-0.2-0.2-0.4-0.5c-0.6-0.8-0.9-1.4-1.2-1.3c0,0-0.1,0-0.3,0.1
		c-0.2,0-0.2,0-0.3,0.1c-0.3,0.1-0.4,0-0.5,0.1c0,0,0,0,0,0.1c0,0.2,0.3,0.4,0.9,1.3C130,318.9,130.3,319.5,130.4,319.6z"/>
	<path class="st4" d="M136,317.1c4.7,7,11.4,16,11.4,16c3.2,4.2,12.1,16.5,35.9,50.2c0.1,0,0.1,0,0.2,0c1.1,0,1.2,0,1.3,0
		c0.2-0.2-0.6-1.5-3.8-5.6c-14.7-20.6-29.5-41.3-44.2-61.9c-0.1-0.1-0.2-0.2-0.4-0.5c-0.6-0.8-0.9-1.4-1.2-1.4c0,0-0.1,0-0.3,0.1
		c-0.2,0-0.2,0-0.3,0.1c-0.3,0-0.4,0-0.5,0.1c0,0,0,0,0,0.1c0,0.2,0.3,0.4,0.9,1.4C135.5,316.4,135.9,317,136,317.1z"/>
	<path class="st4" d="M318.6,315.8c-4.3,3-8.6,6.1-12.9,9.1c-3.8,2.7-7.7,5.4-11.1,8.6c-3.6,3.4-6.3,7.4-9.1,11.4
		c-2.8,4.1-5.7,8.1-8.7,12c-3.4,4.5-7,8.9-10.6,13.2c-0.6,0.7,0.4,1.8,1,1c6.4-7.5,12.5-15.4,18.2-23.5c2.8-4,5.3-8.2,8.8-11.7
		c3.2-3.3,7-6.1,10.8-8.8c4.8-3.4,9.5-6.8,14.3-10.2C320.1,316.5,319.4,315.2,318.6,315.8z"/>
	<path class="st4" d="M321,308.1c-0.6-0.4-2.3,1.4-3.8,2.7c-2.2,1.9-2.6,1.7-8.3,5.1c-5.5,3.4-8.4,5.1-11.8,8.1
		c-2.3,2-4.1,4-5.1,5.1c-1.5,1.7-1.7,2-5.4,6.4c-4.9,5.8-5,5.8-6.4,7.8c-0.9,1.2-1.6,2.4-3.3,4.6c-1.4,1.8-2.2,2.9-2.9,3.8
		c-1.3,1.5-2.6,2.9-2.6,2.9l0,0c0,0-3.5,3.5-4.8,6.9c-0.1,0.2-0.2,0.5,0,0.8c0.2,0.2,0.6,0.2,0.9,0.1c0.5-0.2,0.7-0.7,0.8-0.9
		c0.1-0.2,0.9-1.3,2.6-3.3c0.6-0.7,1.1-1.2,2-2.2c1.2-1.3,1.6-1.7,2.3-2.3c0.5-0.5,1.3-1.5,3.4-4.4c1.5-2.1,1.8-2.7,3.3-4.9
		c2.2-3.2,4.1-5.5,5.6-7.3c1-1.2,2.5-2.9,5.6-6.3c2.7-3,4.1-4.5,4.4-4.8c4.3-4.2,8.9-6.6,11.5-7.9c3.1-1.6,6-3.5,9.1-5.1
		c0.5-0.2,2.2-1.2,2.9-3C321.1,309.4,321.3,308.3,321,308.1z"/>
	<path class="st4" d="M233.8,346.9"/>
	<path class="st7" d="M314.5,250.2c-5.6,10.4-7.8,17.2-13.8,26.5c-6.2,9.8-12.8,19.3-19.8,28.6c-3.9,5.2-7.9,10.4-12,15.4
		c-0.2-1.6-0.4-3.2-0.7-4.9c-1-6.5-0.6-13.1-0.2-19.7c0.1-0.9-1.4-0.9-1.5,0c-0.4,5.8-0.7,11.7-0.1,17.5c0.3,2.9,0.9,5.7,1.1,8.6
		c0.1,1.5,0.1,2.9,0,4.4c-3.4-2.1-6.6-4.5-9.6-7.1c-1.6-1.4-3-2.9-4.4-4.4c-1.2-1.3-2.6-2.4-4.1-3.4c-1.5-1.1-2.6-2.5-3.9-3.8
		c-2.7-3-2.8-1.2-1.3,0.7c2.2,2.8,5.2,4.5,7.6,6.9c1.5,1.5,2.9,3.1,4.4,4.5c1.6,1.5,3.3,2.8,5,4.1c1.9,1.5,3.9,2.8,6,4.1
		c0,0,0.1,0,0.1,0.1c-0.1,1-0.2,2-0.3,2.9c-1,11.7-1.8,23.5-2.4,35.3c-0.3,6.7-0.5,13.3-0.7,20c0,1,1.5,1,1.5,0
		c0.3-11.9,0.8-23.7,1.6-35.6c0.4-5.8,0.8-11.7,1.3-17.5c0.2-3,0.6-6,0.6-9c0-0.8,0-1.7-0.1-2.5c0.3,0.2,0.6,0.2,0.9-0.1
		c7.4-9.1,14.4-18.4,21.1-28c6.7-9.5,14.2-18.7,18.6-29.5c2.2-5.4,2.6-5.6,5.7-11.4C315.7,252.1,314.9,249.3,314.5,250.2z"/>
	<path class="st4" d="M252.7,336.4c-5,0-5.1,7.8,0,7.8S257.8,336.4,252.7,336.4z"/>
	<path class="st4" d="M252.6,352.6c-5,0-5.1,7.8,0,7.8C257.7,360.4,257.7,352.6,252.6,352.6z"/>
	<path class="st4" d="M252.8,370.1c-5,0-5.1,7.8,0,7.8C257.8,377.9,257.8,370.1,252.8,370.1z"/>
	<path class="st4" d="M220.3,369.3c-3.5-4.8-7-9.5-10.7-14.2c-1.1-1.4-2.7-2.1-4.4-1.1c-1.4,0.8-2.2,3-1.1,4.4
		c3.6,4.7,7.2,9.5,10.7,14.2C217.2,375.8,222.7,372.7,220.3,369.3z"/>
	<path class="st4" d="M208.8,321.7c1.8,2.5,6.1,0.1,4.2-2.5c-4.8-6.6-17-2.4-15.4,6.1c0.3,1.7,1.2,3.3,2.5,4.5
		c1.6,1.4,3.9,1.5,5.4,3c1.3,1.4,1.8,4.6,0.1,5.8c-1.1,0.8-2.6,0.7-3.8,0.5c-0.3,0-3.4-0.6-3.4-0.8c-0.4-3.1-5.3-3.1-4.9,0
		c0.6,4.7,6.1,6,10.2,5.8c4.4-0.2,7.8-3.4,7.8-7.9c0.1-4.6-2.5-7.4-6.5-9.1c-1.9-0.8-3.5-2.5-2.2-4.6
		C203.8,320.9,207.6,320,208.8,321.7z"/>
	<path class="st4" d="M605.9,365.1"/>
</g>
</svg>
