<?xml version="1.0" encoding="utf-8"?>
<!-- Generator: Adobe Illustrator 24.3.0, SVG Export Plug-In . SVG Version: 6.00 Build 0)  -->
<svg version="1.1" id="레이어_1" xmlns="http://www.w3.org/2000/svg" xmlns:xlink="http://www.w3.org/1999/xlink" x="0px"
	 y="0px" viewBox="0 0 440.9 356" style="enable-background:new 0 0 440.9 356;" xml:space="preserve">
<style type="text/css">
	.st0{fill:#060001;stroke:#060001;stroke-miterlimit:10;}
	.st1{fill:#060001;}
	.st2{fill:#B3C5E5;stroke:#060001;stroke-width:3;stroke-miterlimit:10;}
	.st3{fill:#7B8CC5;}
	.st4{fill:#CFD0CE;}
	.st5{fill:#FFFFFF;stroke:#060001;stroke-width:3;stroke-miterlimit:10;}
	.st6{fill:#070102;}
	.st7{fill:#060001;stroke:#060001;stroke-width:2;stroke-miterlimit:10;}
	.st8{fill:#FFFFFF;}
	.st9{fill:#E48786;}
	.st10{fill:#E48786;stroke:#060001;stroke-width:3;stroke-miterlimit:10;}
	.st11{fill:#FFFFFF;stroke:#060001;stroke-miterlimit:10;}
</style>
<g id="레이어_3">
	<g id="레이어_5_1_">
		<path class="st0" d="M190.1,296.1c-3.1,0.1-19,0.6-32.6,10.8c-7.6,5.7-9.9,10.9-10.8,13.5c-2.4,6.9-2.3,16.6,3.3,22.8
			c2.6,2.9,5.9,4.4,17.7,6.6c14.3,2.6,21.4,3.8,30.5,3.6c31.7-0.7,79.2-17.1,86.9-19.8c29.8-10.4,63.5-23.9,77.9-15
			c6.7,4.1,13.2,9,13.2,9c10.1,7.6,10.5,9.4,14.8,11.5c8.6,4.3,23.2,4.6,31.7-4c12-12.3,2.5-33.2,2-34.4
			c-3.1-6.7-7.6-10.6-14.8-16.9c0,0-11.7-10.2-24.2-16.2C345,248.3,238.7,294.2,190.1,296.1z"/>
		<path class="st0" d="M342.1,235.7c3-7.9,14-10.4,15.6-10.8c2.4-0.5,11.7-2.6,19.2,3.6c8,6.6,7,17.3,6.9,19.2
			c-0.7,8.3-6,18.2-13.8,20.1C356.1,271.1,337.2,248.8,342.1,235.7z"/>
		<path class="st0" d="M166.5,192.2c-13,8.4-18.8,29.8-11.4,38.3c7,8.1,24.4,2.8,39.5-1.8c13.2-4,27.6-8.4,28.1-15.6
			C223.7,201.4,187.5,178.5,166.5,192.2z"/>
		<path class="st1" d="M102.7,178.7c-7.8-2.2-24.1-3.5-39.2-13.2c-1.4-0.9-7.3-4.7-15.9-6.9c-5.9-1.5-11.6-2.8-17.4,0
			c-7.1,3.5-9.5,11-9.9,12.3c-2.8,8.9,1,17.1,2.4,20.1c9.9,21.4,39.8,24.5,81.2,51.8c13.7,9.1,31.7,22.8,43.4,31.8
			c24.5,18.7,27.3,22.3,29.4,21C186.5,289.2,142,190,102.7,178.7z"/>
		<path class="st2" d="M134.1,209.3c-2.5,1.9-1,7.8,0.6,14.1c1.1,4.3,2.3,7.5,3.7,11.3c2.7,7.2,3.6,8.2,4.9,13
			c0.5,1.8,1.4,5.1,1.8,9.5c1.4,14.3,1.6,13.6,2.6,15.7c1.7,3.6,5.8,6.6,13.9,12.7c2.9,2.2,5,3.6,9.1,6.3c8,5.4,11.8,7.3,18.5,12.1
			c0.6,0.4,2.7,1.9,5.3,3.8c3.1,2.2,5.4,3.9,6,4.4c10.5,7.5,15.7,11.3,17,12.1c8.9,5.5,16.9,7.3,26.2,9.4c20,4.6,36.2,2.6,45.4,1.4
			c9.4-1.2,11.4-2.5,18.5-4.5c2.1-0.6,4.2-1.2,11.1-2.7c23.7-5.2,35.5-7.9,40.2-7.9c5.2,0,8,0.5,11-1.6c4.5-3.1,4.6-8.5,6.5-16.9
			c4.5-20,11.4-21.9,9-29.9c-0.4-1.2-5.3-6.2-15-16.2c-7.3-7.4-8.8-8.8-11.8-12.3c-8.1-9.4-13.1-16.6-14.7-18.7
			c-9.1-12.5-27-15.3-109.3-24.4c-4.5-0.5-21.5-2.2-24.2,4.1c-1.8,4.1,3.9,8.4,1.9,12.7c-2,4.3-8.8,3.1-23.8,5.4
			c-15.5,2.4-23.2,6.1-26.2,2.3c-1.5-1.9-1.8-5.6-2.1-9.2c-0.4-4.2,0.3-5.4-0.8-6.6c-1.8-1.9-5.1-0.4-11.8,0.1
			c-0.9,0.1-3.3,0.1-6.2,0.1C135.5,208.9,134.9,208.7,134.1,209.3z"/>
		
			<image style="display:none;overflow:visible;enable-background:new    ;" width="1442" height="1023" xlink:href="BD0B6ECC.jpeg"  transform="matrix(0.4377 0 0 0.4377 -120.2447 -34.4523)">
		</image>
		<path class="st3" d="M438.2,259.5c-10.4,3-21.2,0-31.5-1.9c-5.4-1-10.8-1.6-16.3-1.8c-5.5-0.2-11-0.2-16.3-1.3
			c-2.5-0.5-5-1.4-7.4-2.4c2.9-3.8,5.5-7.9,7.8-12c2.4-4.2,4.5-8.6,6.4-13c2-4.6,4.1-9.4,5.4-14.3c1.3-5,1.8-10.5-0.4-15.4
			c-1-2.2-3-3.6-5.4-3.5c-2.3,0.1-4.5,1.4-6.2,2.8c-7.1,5.9-11.7,14.9-13.8,23.8c-2.3,9.5-2,19.3-0.4,28.8
			c-4.8-1.9-9.6-3.5-14.8-2.9c-4.5,0.5-8.8,2.4-11.3,6.2c-2.2,3.3-2.8,7.8-1.1,11.5c2,4.2,6.8,6,11.2,5.5c5-0.6,9.2-3.7,12.9-6.9
			c1.7-1.5,3.4-3,4.9-4.7c0.2,0.9,0.4,1.8,0.7,2.7c0,0.2,0,0.5,0.1,0.8c0.2,0.7,0.5,1.5,0.8,2.2c0.3,0.9,0.6,1.7,0.9,2.5
			c1.2,3,2.5,6,3.9,8.9c2.1,4.1,5.4,7.1,9,9.8c7.6,5.7,15.6,11.3,24.6,14.7c5.1,1.9,10.4,3,15.9,3c2.3,0,2.3-3.5,0-3.5
			c-9.1,0-17.7-3.5-25.4-8.1c-3.9-2.3-7.6-5-11.3-7.7c-3.3-2.5-6.8-5-9-8.6c-1.3-2.1-2.2-4.4-3.1-6.7c-0.8-2-1.6-3.9-2.4-6
			c-0.6-2.3-1.2-4.6-1.7-6.9c2.5,1.1,5.1,2.1,7.7,2.7c9.9,2.4,20.2,1.1,30.2,2.7c9.7,1.6,19.5,4.6,29.5,3.8c2.4-0.2,4.8-0.6,7.1-1.3
			C441.3,262.2,440.3,258.8,438.2,259.5z M358.7,255.9c-3.1,3.2-6.5,6.3-10.4,8.5c-3.4,1.9-8.3,2.8-11.4-0.3c-2.3-2.4-2.1-6.3-0.6-9
			c1.9-3.4,5.7-5,9.4-5.3c5.4-0.4,10.3,1.5,15.2,3.6C360.2,254.2,359.5,255.1,358.7,255.9z M363.7,250.1
			c-2.8-16.2-2.1-33.3,8.7-46.7c0.8-1,1.7-1.9,2.6-2.8c1.4-1.3,3.2-3.1,5.4-3.3c2.2-0.2,2.7,2.5,3.1,4.1c0.3,1.5,0.5,3,0.4,4.5
			c-0.4,5.6-2.6,10.9-4.7,16.1c-1.7,4.1-3.5,8.2-5.5,12.1C370.8,239.7,367.5,245.1,363.7,250.1z"/>
		<path class="st4" d="M211,299.3c-2.1-2.6-0.7-6.5,2.6-7.2c4.8-1,10.6-2.2,17-3.6c14.7-3.4,22-5,29.8-7.7
			c24-8.2,30.8-17.6,35.7-14.3c5.8,4,3.2,22.2-5.9,34.3c-11.4,15.3-33.1,21.4-51.7,16.6C225,314,216,305.5,211,299.3z"/>
		<path class="st4" d="M254.8,258L185,276.3c-0.3,0.1-0.5-0.1-0.6-0.4l-6.4-24.2c-0.1-0.3,0.1-0.5,0.4-0.6l69.7-18.3
			c0.3-0.1,0.5,0.1,0.6,0.4l6.4,24.2C255.2,257.7,255,257.9,254.8,258z"/>
		<path class="st0" d="M236.6,214.7c-1.8,6.5-13.1,5.7-28.8,12.9c-8.2,3.8-15.5,7.1-19.2,14.7c-3.5,7.1-2.8,15.9,0,21.3
			c8.3,15.9,40.5,14.6,61.4,8.4c10-3,10.1-4.9,29-14.7c40.9-21,63.1-23.4,63.8-34.7c0.2-3.2-1.4-5.3-9-14.1
			c-5-5.8-12.8-16.4-30-33.8c-5-5.1-7.4-7.6-8.1-8.1c-18.6-12.9-64,13.3-62.6,27.2c0.2,1.9,1.5,5.9,2.7,14.4
			C236.5,212,236.8,213.9,236.6,214.7z"/>
	</g>
	<g id="레이어_2_2_">
		<path class="st5" d="M78.1,79.6c20-34,51.6-47.4,60.2-50.9c5.6-2.3,19.5-7.5,38.3-9c11.6-0.9,48.1-3.8,81.2,19.5
			c2.2,1.5,43.7,31.9,47,84.2c0.7,11.7,1.4,22.1-3.6,33.8c-18.7,44.2-91.4,48.2-135.4,50.6c-18.5,1-33,0.1-48.5-6
			c-9.9-3.9-28.9-11.2-41.9-31.1c-12.5-19.1-12.2-38.4-12-45.5C64.1,104,72.6,89.1,78.1,79.6z"/>
		<ellipse class="st6" cx="158.4" cy="127.1" rx="6.4" ry="4.1"/>
	</g>
	<g id="레이어_1_2_">
		<path class="st7" d="M63.3,54.6c-0.4-2.9-1.6-15.7,7-27.4c8-10.8,19.2-13.7,23.8-14.8c4-1,14.2-3.2,25.3,1.5
			c3.6,1.6,15,6.4,16.9,16.2c1.1,5.8-1.9,10.4-7.8,19.8c-9.8,15.5-21.1,23.4-24.7,25.9c-9,6-13.4,9.1-19,8.4
			C73,82.7,64.9,66.9,63.3,54.6z"/>
		<path class="st7" d="M241.4,30.2c2.7-2.9,9.2-8.8,19.2-11.1c13.1-3,28.2,1.2,36.8,11.7c14.5,17.5,7.2,48.2-5.4,52.7
			c-11.8,4.3-29.7-13.8-31.8-15.9c-3.3-3.4-5.5-6.6-9.9-12.9c-6.2-9-7.9-13.3-8.6-17.7C241.3,34.3,241.3,31.9,241.4,30.2z"/>
		<path class="st8" d="M226.5,151.1"/>
		<path class="st9" d="M92.5,139.3c0-0.7,0.1-2.6,1.5-4.2c1.4-1.6,3.4-1.9,6.3-2.4c4.2-0.7,4.6-0.1,12.1,0c2.9,0,3.6,0,4.6,0.4
			c0.3,0.1,3.7,1.7,4.4,5.2c0.6,3.5-1.8,6.6-4.2,7.9c-0.6,0.3-1.2,0.6-8.1,0.6c-5,0.1-7-0.2-7.6-0.3c-3.9-0.5-5.9-0.8-7.3-2.1
			C92.3,142.7,92.5,139.9,92.5,139.3z"/>
		<path class="st9" d="M199.2,139.3c0.2-1.1,0.8-2.9,2.5-4.3c1.3-1.1,2.7-1.3,5.4-1.6c5.4-0.5,9.6-0.2,13.2,0.2
			c4.4,0.5,5.5,0.9,6.6,1.8c0.5,0.4,2.8,2.2,2.8,5.2c0,2.8-2,4.6-2.7,5.2c-1,0.8-2.2,1.3-6.7,1.7c-4.9,0.4-9,0.3-13.2-0.3
			c-3.6-0.5-4.6-1-5.5-1.8C199.4,143.5,199.2,140.6,199.2,139.3z"/>
	</g>
	<g id="레이어_3_1_">
		<g id="레이어_4_1_">
			<path class="st10" d="M150.6,138.5c0.7,6.6,1.4,12.5,2.2,17.8c0.9,6.1,1.8,11.5,5.2,17.2c3,5.2,5,5.4,5.7,5.3
				c2.2-0.1,3.7-3.1,4.5-4.7c2-4.1,1.3-6.3,1.9-15.8c0.3-4,0.4-9.4,0.5-11.8c0.3-4.2,0.5-6.6-0.9-7.5c-1.5-1-3.2,0.8-6.2-0.1
				c-2.5-0.8-3.9-2.8-4.4-3.5c-2.1-3.2-1.2-7-1.7-7c-0.5-0.1-0.5,4.4-3.5,7.6C152.8,137.3,151.5,138,150.6,138.5z"/>
			<path class="st1" d="M174.8,133.1c-1.4,1.2-2.7,2.5-4.4,3.4c-1.7,0.9-3.5,0.9-5.4,0.8c-1.6-0.1-3.3-0.7-4.1-2.2
				c-0.5-0.9-0.7-1.9-1.2-2.7c-0.5-0.8-0.5-1.7-0.5-2.7c0-0.5-0.3-1-0.6-1.3c-0.2-0.2-0.5-0.4-0.8-0.5c-1-0.3-1.8,0.3-2.2,1.2
				c-1,2.9-2.2,6.1-5.3,7.4c-1.4,0.6-3,0.8-4.3-0.2c-1.3-1-2.5-2.3-3.3-3.8c-0.4-0.8-1.6-1.1-2.4-0.6c-0.9,0.5-1.1,1.6-0.6,2.4
				c1,2,2.7,3.7,4.5,5c2,1.5,4.6,1.5,6.8,0.7c2.2-0.8,4-2.2,5.3-4c0.3-0.4,0.5-0.8,0.8-1.2c0,0.1,0.1,0.2,0.1,0.3
				c0.3,0.6,0.5,1.3,0.8,1.9c1.2,2.2,3.6,3.4,6,3.8c2.6,0.4,5.2,0.3,7.6-0.8c2.2-1,4-2.6,5.7-4.2C178.9,134,176.4,131.6,174.8,133.1
				z"/>
		</g>
		<path class="st6" d="M116.8,106c4.8-6.2,12.3-8.9,18.3-6.9c9,3.1,12.9,16.4,7.2,24.9c-4.4,6.4-14.2,9.8-21.6,5.1
			C113.4,124.4,111.2,113.8,116.8,106z"/>
		<path class="st8" d="M128,102.6c2.2,0.4,4.3,2.4,4.6,4.9c0.3,2.9-1.9,5.3-4.2,6.1c-1.8,0.6-4.6,0.5-6.2-1.4
			c-1.9-2.3-0.7-5.5-0.5-5.8c0.2-0.4,1-2.2,3.1-3.2C125.2,102.9,126.5,102.3,128,102.6z"/>
		<path class="st8" d="M135.9,109.3c-2.1,0.9-3.2,2.4-3.6,3.1c-0.4,0.6-2.9,4.2-1.4,7.6c0.2,0.4,0.7,1.6,2,2.3
			c2.6,1.4,6.2-0.5,8.1-2.3c0.2-0.2,3.8-3.8,2.6-7.7c-0.1-0.4-0.7-2.1-2.3-3C139.1,108,136.6,109,135.9,109.3z"/>
		<path class="st8" d="M124.8,118.6c-0.4,0.1-1.4,0.4-2.2,1.3c-1,1.2-1.2,3.2,0,4.6c1.3,1.4,3.7,1.5,5.1,0.1
			c1.2-1.2,1.4-3.2,0.3-4.6C126.9,118.4,125,118.6,124.8,118.6z"/>
		<path class="st6" d="M176.8,107c4.8-6.2,12.3-8.9,18.3-6.9c9,3.1,12.9,16.4,7.2,24.9c-4.4,6.4-14.2,9.8-21.6,5.1
			C173.4,125.4,171.2,114.8,176.8,107z"/>
		<path class="st8" d="M188,103.6c2.2,0.4,4.3,2.4,4.6,4.9c0.3,2.9-1.9,5.3-4.2,6.1c-1.8,0.6-4.6,0.5-6.2-1.4
			c-1.9-2.3-0.7-5.5-0.5-5.8c0.2-0.4,1-2.2,3.1-3.2C185.2,103.9,186.5,103.4,188,103.6z"/>
		<path class="st8" d="M195.8,110.3c-2.1,0.9-3.2,2.4-3.6,3.1c-0.4,0.6-2.9,4.2-1.4,7.6c0.2,0.4,0.7,1.6,2,2.3
			c2.6,1.4,6.2-0.5,8.1-2.3c0.2-0.2,3.8-3.8,2.6-7.7c-0.1-0.4-0.7-2.1-2.3-3C199,109,196.6,110,195.8,110.3z"/>
		<path class="st8" d="M184.8,119.6c-0.4,0.1-1.4,0.4-2.2,1.3c-1,1.2-1.2,3.2,0,4.6c1.3,1.4,3.7,1.5,5.1,0.1
			c1.2-1.2,1.4-3.2,0.3-4.6C186.9,119.4,184.9,119.6,184.8,119.6z"/>
	</g>
	<path class="st11" d="M303.9,114.2"/>
</g>
</svg>
